<?xml version="1.0" encoding="utf-8"?>
<!-- Generator: Adobe Illustrator 22.1.0, SVG Export Plug-In . SVG Version: 6.00 Build 0)  -->
<svg version="1.1" xmlns="http://www.w3.org/2000/svg" xmlns:xlink="http://www.w3.org/1999/xlink" x="0px" y="0px"
	 viewBox="0 0 2000 2000" style="enable-background:new 0 0 2000 2000;" xml:space="preserve">
<style type="text/css">
	.st0{fill:#424953;}
	.st1{fill:#071A38;}
	.st2{fill:#FFFFFF;}
</style>
<g id="Layer_2">
	<rect x="-0.5" y="-0.5" class="st0" width="2000" height="2000"/>
</g>
<g id="Layer_3">
</g>
<g id="Layer_1">
	<g>
		<g>
			<path class="st1" d="M406.9,236.3c11.2,0,20.3,9.1,20.3,20.3v186.6c0,11.2-9.1,20.3-20.3,20.3H220.3c-11.2,0-20.3-9.1-20.3-20.3
				V256.6c0-11.2,9.1-20.3,20.3-20.3H406.9 M406.9,232.3H220.3c-13.4,0-24.3,10.9-24.3,24.3v186.6c0,13.4,10.9,24.3,24.3,24.3h186.6
				c13.4,0,24.3-10.9,24.3-24.3V256.6C431.2,243.2,420.3,232.3,406.9,232.3L406.9,232.3z"/>
		</g>
	</g>
	<g>
		<g>
			<path class="st1" d="M750.1,236.3c11.2,0,20.3,9.1,20.3,20.3v186.6c0,11.2-9.1,20.3-20.3,20.3H563.5c-11.2,0-20.3-9.1-20.3-20.3
				V256.6c0-11.2,9.1-20.3,20.3-20.3H750.1 M750.1,232.3H563.5c-13.4,0-24.3,10.9-24.3,24.3v186.6c0,13.4,10.9,24.3,24.3,24.3h186.7
				c13.4,0,24.3-10.9,24.3-24.3V256.6C774.4,243.2,763.5,232.3,750.1,232.3L750.1,232.3z"/>
		</g>
	</g>
	<g>
		<g>
			<path class="st1" d="M1093.3,236.3c11.2,0,20.3,9.1,20.3,20.3v186.6c0,11.2-9.1,20.3-20.3,20.3H906.7c-11.2,0-20.3-9.1-20.3-20.3
				V256.6c0-11.2,9.1-20.3,20.3-20.3H1093.3 M1093.3,232.3H906.7c-13.4,0-24.3,10.9-24.3,24.3v186.6c0,13.4,10.9,24.3,24.3,24.3
				h186.6c13.4,0,24.3-10.9,24.3-24.3V256.6C1117.6,243.2,1106.7,232.3,1093.3,232.3L1093.3,232.3z"/>
		</g>
	</g>
	<g>
		<g>
			<path class="st1" d="M1436.5,236.3c11.2,0,20.3,9.1,20.3,20.3v186.6c0,11.2-9.1,20.3-20.3,20.3h-186.6
				c-11.2,0-20.3-9.1-20.3-20.3V256.6c0-11.2,9.1-20.3,20.3-20.3H1436.5 M1436.5,232.3h-186.6c-13.4,0-24.3,10.9-24.3,24.3v186.6
				c0,13.4,10.9,24.3,24.3,24.3h186.6c13.4,0,24.3-10.9,24.3-24.3V256.6C1460.8,243.2,1449.9,232.3,1436.5,232.3L1436.5,232.3z"/>
		</g>
	</g>
	<g>
		<g>
			<path class="st1" d="M1779.7,236.3c11.2,0,20.3,9.1,20.3,20.3v186.6c0,11.2-9.1,20.3-20.3,20.3h-186.7
				c-11.2,0-20.3-9.1-20.3-20.3V256.6c0-11.2,9.1-20.3,20.3-20.3H1779.7 M1779.7,232.3h-186.7c-13.4,0-24.3,10.9-24.3,24.3v186.6
				c0,13.4,10.9,24.3,24.3,24.3h186.7c13.4,0,24.3-10.9,24.3-24.3V256.6C1804,243.2,1793.1,232.3,1779.7,232.3L1779.7,232.3z"/>
		</g>
	</g>
	<g>
		<g>
			<path class="st1" d="M406.9,561.4c11.2,0,20.3,9.1,20.3,20.3v186.6c0,11.2-9.1,20.3-20.3,20.3H220.3c-11.2,0-20.3-9.1-20.3-20.3
				V581.6c0-11.2,9.1-20.3,20.3-20.3H406.9 M406.9,557.4H220.3c-13.4,0-24.3,10.9-24.3,24.3v186.6c0,13.4,10.9,24.3,24.3,24.3h186.6
				c13.4,0,24.3-10.9,24.3-24.3V581.6C431.2,568.2,420.3,557.4,406.9,557.4L406.9,557.4z"/>
		</g>
	</g>
	<g>
		<g>
			<path class="st1" d="M750.1,561.4c11.2,0,20.3,9.1,20.3,20.3v186.7c0,11.2-9.1,20.3-20.3,20.3H563.5c-11.2,0-20.3-9.1-20.3-20.3
				V581.6c0-11.2,9.1-20.3,20.3-20.3H750.1 M750.1,557.4H563.5c-13.4,0-24.3,10.9-24.3,24.3v186.6c0,13.4,10.9,24.3,24.3,24.3h186.7
				c13.4,0,24.3-10.9,24.3-24.3V581.6C774.4,568.2,763.5,557.4,750.1,557.4L750.1,557.4z"/>
		</g>
	</g>
	<g>
		<g>
			<path class="st1" d="M1093.3,561.4c11.2,0,20.3,9.1,20.3,20.3v186.6c0,11.2-9.1,20.3-20.3,20.3H906.7c-11.2,0-20.3-9.1-20.3-20.3
				V581.6c0-11.2,9.1-20.3,20.3-20.3H1093.3 M1093.3,557.4H906.7c-13.4,0-24.3,10.9-24.3,24.3v186.6c0,13.4,10.9,24.3,24.3,24.3
				h186.6c13.4,0,24.3-10.9,24.3-24.3V581.6C1117.6,568.2,1106.7,557.4,1093.3,557.4L1093.3,557.4z"/>
		</g>
	</g>
	<g>
		<g>
			<path class="st1" d="M1436.5,561.4c11.2,0,20.3,9.1,20.3,20.3v186.6c0,11.2-9.1,20.3-20.3,20.3h-186.6
				c-11.2,0-20.3-9.1-20.3-20.3V581.6c0-11.2,9.1-20.3,20.3-20.3H1436.5 M1436.5,557.4h-186.6c-13.4,0-24.3,10.9-24.3,24.3v186.6
				c0,13.4,10.9,24.3,24.3,24.3h186.6c13.4,0,24.3-10.9,24.3-24.3V581.6C1460.8,568.2,1449.9,557.4,1436.5,557.4L1436.5,557.4z"/>
		</g>
	</g>
	<g>
		<g>
			<path class="st1" d="M406.9,886.4c11.2,0,20.3,9.1,20.3,20.3v186.6c0,11.2-9.1,20.3-20.3,20.3H220.3c-11.2,0-20.3-9.1-20.3-20.3
				V906.7c0-11.2,9.1-20.3,20.3-20.3H406.9 M406.9,882.4H220.3c-13.4,0-24.3,10.9-24.3,24.3v186.6c0,13.4,10.9,24.3,24.3,24.3h186.6
				c13.4,0,24.3-10.9,24.3-24.3V906.7C431.2,893.3,420.3,882.4,406.9,882.4L406.9,882.4z"/>
		</g>
	</g>
	<g>
		<g>
			<path class="st1" d="M750.1,886.4c11.2,0,20.3,9.1,20.3,20.3v186.6c0,11.2-9.1,20.3-20.3,20.3H563.5c-11.2,0-20.3-9.1-20.3-20.3
				V906.7c0-11.2,9.1-20.3,20.3-20.3H750.1 M750.1,882.4H563.5c-13.4,0-24.3,10.9-24.3,24.3v186.6c0,13.4,10.9,24.3,24.3,24.3h186.7
				c13.4,0,24.3-10.9,24.3-24.3V906.7C774.4,893.3,763.5,882.4,750.1,882.4L750.1,882.4z"/>
		</g>
	</g>
	<g>
		<g>
			<path class="st1" d="M1093.3,886.4c11.2,0,20.3,9.1,20.3,20.3v186.6c0,11.2-9.1,20.3-20.3,20.3H906.7c-11.2,0-20.3-9.1-20.3-20.3
				V906.7c0-11.2,9.1-20.3,20.3-20.3H1093.3 M1093.3,882.4H906.7c-13.4,0-24.3,10.9-24.3,24.3v186.6c0,13.4,10.9,24.3,24.3,24.3
				h186.6c13.4,0,24.3-10.9,24.3-24.3V906.7C1117.6,893.3,1106.7,882.4,1093.3,882.4L1093.3,882.4z"/>
		</g>
	</g>
	<g>
		<g>
			<path class="st1" d="M1436.5,886.4c11.2,0,20.3,9.1,20.3,20.3v186.6c0,11.2-9.1,20.3-20.3,20.3h-186.6
				c-11.2,0-20.3-9.1-20.3-20.3V906.7c0-11.2,9.1-20.3,20.3-20.3H1436.5 M1436.5,882.4h-186.6c-13.4,0-24.3,10.9-24.3,24.3v186.6
				c0,13.4,10.9,24.3,24.3,24.3h186.6c13.4,0,24.3-10.9,24.3-24.3V906.7C1460.8,893.3,1449.9,882.4,1436.5,882.4L1436.5,882.4z"/>
		</g>
	</g>
	<g>
		<g>
			<path class="st1" d="M1779.7,886.4c11.2,0,20.3,9.1,20.3,20.3v186.6c0,11.2-9.1,20.3-20.3,20.3h-186.7
				c-11.2,0-20.3-9.1-20.3-20.3V906.7c0-11.2,9.1-20.3,20.3-20.3H1779.7 M1779.7,882.4h-186.7c-13.4,0-24.3,10.9-24.3,24.3v186.6
				c0,13.4,10.9,24.3,24.3,24.3h186.7c13.4,0,24.3-10.9,24.3-24.3V906.7C1804,893.3,1793.1,882.4,1779.7,882.4L1779.7,882.4z"/>
		</g>
	</g>
	<g>
		<g>
			<path class="st1" d="M406.9,1211.5c11.2,0,20.3,9.1,20.3,20.3v186.6c0,11.2-9.1,20.3-20.3,20.3H220.3c-11.2,0-20.3-9.1-20.3-20.3
				v-186.6c0-11.2,9.1-20.3,20.3-20.3H406.9 M406.9,1207.5H220.3c-13.4,0-24.3,10.9-24.3,24.3v186.6c0,13.4,10.9,24.3,24.3,24.3
				h186.6c13.4,0,24.3-10.9,24.3-24.3v-186.6C431.2,1218.3,420.3,1207.5,406.9,1207.5L406.9,1207.5z"/>
		</g>
	</g>
	<g>
		<g>
			<path class="st1" d="M750.1,1211.5c11.2,0,20.3,9.1,20.3,20.3v186.6c0,11.2-9.1,20.3-20.3,20.3H563.5c-11.2,0-20.3-9.1-20.3-20.3
				v-186.6c0-11.2,9.1-20.3,20.3-20.3H750.1 M750.1,1207.5H563.5c-13.4,0-24.3,10.9-24.3,24.3v186.6c0,13.4,10.9,24.3,24.3,24.3
				h186.7c13.4,0,24.3-10.9,24.3-24.3v-186.6C774.4,1218.3,763.5,1207.5,750.1,1207.5L750.1,1207.5z"/>
		</g>
	</g>
	<g>
		<g>
			<path class="st1" d="M1093.3,1211.5c11.2,0,20.3,9.1,20.3,20.3v186.6c0,11.2-9.1,20.3-20.3,20.3H906.7
				c-11.2,0-20.3-9.1-20.3-20.3v-186.6c0-11.2,9.1-20.3,20.3-20.3H1093.3 M1093.3,1207.5H906.7c-13.4,0-24.3,10.9-24.3,24.3v186.6
				c0,13.4,10.9,24.3,24.3,24.3h186.6c13.4,0,24.3-10.9,24.3-24.3v-186.6C1117.6,1218.3,1106.7,1207.5,1093.3,1207.5L1093.3,1207.5z
				"/>
		</g>
	</g>
	<g>
		<g>
			<path class="st1" d="M1779.7,1211.5c11.2,0,20.3,9.1,20.3,20.3v186.6c0,11.2-9.1,20.3-20.3,20.3h-186.7
				c-11.2,0-20.3-9.1-20.3-20.3v-186.6c0-11.2,9.1-20.3,20.3-20.3H1779.7 M1779.7,1207.5h-186.7c-13.4,0-24.3,10.9-24.3,24.3v186.6
				c0,13.4,10.9,24.3,24.3,24.3h186.7c13.4,0,24.3-10.9,24.3-24.3v-186.6C1804,1218.3,1793.1,1207.5,1779.7,1207.5L1779.7,1207.5z"
				/>
		</g>
	</g>
	<g>
		<g>
			<path class="st1" d="M406.9,1536.5c11.2,0,20.3,9.1,20.3,20.3v186.6c0,11.2-9.1,20.3-20.3,20.3H220.3c-11.2,0-20.3-9.1-20.3-20.3
				v-186.6c0-11.2,9.1-20.3,20.3-20.3H406.9 M406.9,1532.5H220.3c-13.4,0-24.3,10.9-24.3,24.3v186.6c0,13.4,10.9,24.3,24.3,24.3
				h186.6c13.4,0,24.3-10.9,24.3-24.3v-186.6C431.2,1543.4,420.3,1532.5,406.9,1532.5L406.9,1532.5z"/>
		</g>
	</g>
	<g>
		<g>
			<path class="st1" d="M750.1,1536.5c11.2,0,20.3,9.1,20.3,20.3v186.6c0,11.2-9.1,20.3-20.3,20.3H563.5c-11.2,0-20.3-9.1-20.3-20.3
				v-186.6c0-11.2,9.1-20.3,20.3-20.3H750.1 M750.1,1532.5H563.5c-13.4,0-24.3,10.9-24.3,24.3v186.6c0,13.4,10.9,24.3,24.3,24.3
				h186.7c13.4,0,24.3-10.9,24.3-24.3v-186.6C774.4,1543.4,763.5,1532.5,750.1,1532.5L750.1,1532.5z"/>
		</g>
	</g>
	<g>
		<g>
			<path class="st1" d="M1093.3,1536.5c11.2,0,20.3,9.1,20.3,20.3v186.6c0,11.2-9.1,20.3-20.3,20.3H906.7
				c-11.2,0-20.3-9.1-20.3-20.3v-186.6c0-11.2,9.1-20.3,20.3-20.3H1093.3 M1093.3,1532.5H906.7c-13.4,0-24.3,10.9-24.3,24.3v186.6
				c0,13.4,10.9,24.3,24.3,24.3h186.6c13.4,0,24.3-10.9,24.3-24.3v-186.6C1117.6,1543.4,1106.7,1532.5,1093.3,1532.5L1093.3,1532.5z
				"/>
		</g>
	</g>
	<g>
		<g>
			<path class="st1" d="M1436.5,1536.5c11.2,0,20.3,9.1,20.3,20.3v186.6c0,11.2-9.1,20.3-20.3,20.3h-186.6
				c-11.2,0-20.3-9.1-20.3-20.3v-186.6c0-11.2,9.1-20.3,20.3-20.3H1436.5 M1436.5,1532.5h-186.6c-13.4,0-24.3,10.9-24.3,24.3v186.6
				c0,13.4,10.9,24.3,24.3,24.3h186.6c13.4,0,24.3-10.9,24.3-24.3v-186.6C1460.8,1543.4,1449.9,1532.5,1436.5,1532.5L1436.5,1532.5z
				"/>
		</g>
	</g>
	<g>
		<g>
			<path class="st1" d="M1783.3,1536.5c8.8,0,15.6,7.9,14.2,16.6l-28.8,188.9c-1.9,12.5-12.7,21.7-25.3,21.7h-115.2
				c-12.7,0-23.5-9.3-25.4-21.9l-27.6-188.8c-1.3-8.7,5.5-16.5,14.3-16.5H1783.3 M1783.3,1532.5h-193.8c-5.3,0-10.4,2.3-13.9,6.4
				c-3.5,4-5.1,9.4-4.3,14.7l27.6,188.8c1,7,4.6,13.5,9.9,18.1c5.4,4.7,12.3,7.2,19.4,7.2h115.2c7.1,0,13.9-2.5,19.3-7.2
				c5.4-4.6,8.9-11,10-18l28.8-188.9c0.8-5.3-0.7-10.7-4.2-14.8C1793.7,1534.8,1788.6,1532.5,1783.3,1532.5L1783.3,1532.5z"/>
		</g>
	</g>
	<g>
		<g>
			<path class="st1" d="M1740.6,518c31.8,21.9,31.3,43.3,31.3,43.3l7.9,0.1c11.2,0,20.3,9.1,20.3,20.3v186.6
				c0,11.2-9.1,20.3-20.3,20.3h-186.7c-11.2,0-20.3-9.1-20.3-20.3V581.6c0-11.2,9.1-20.3,20.3-20.3l7.9-0.1c0,0-0.5-21.4,31.2-43.3
				c0,0-9.2,17.8-0.3,43.4H1741C1749.8,535.7,1740.6,518,1740.6,518 M1632.2,518L1632.2,518 M1740.6,514c-1,0-1.9,0.3-2.6,1
				c-1.4,1.2-1.7,3.2-0.9,4.8c0.1,0.2,7.6,15.5,1,37.6h-103.3c-6.4-21.3,0.4-36.3,0.9-37.5c0.3-0.6,0.5-1.2,0.5-1.9c0-2.2-1.8-4-4-4
				h0c-0.9,0-1.7,0.3-2.3,0.7c-25.3,17.5-31.2,34.9-32.5,42.6l-4.3,0.1c-13.4,0-24.3,10.9-24.3,24.3v186.6
				c0,13.4,10.9,24.3,24.3,24.3h186.7c13.4,0,24.3-10.9,24.3-24.3V581.6c0-13.4-10.9-24.3-24.2-24.3l-4.3-0.1
				c-1.4-7.7-7.2-25.1-32.6-42.6C1742.2,514.2,1741.4,514,1740.6,514L1740.6,514z"/>
		</g>
	</g>
	<g>
		<g>
			<path class="st1" d="M1436.5,1211.5c11.2,0,20.3,9.1,20.3,20.3v186.6c0,11.2-9.1,20.3-20.3,20.3h-186.6
				c-11.2,0-20.3-9.1-20.3-20.3v-186.6c0-11.2,9.1-20.3,20.3-20.3H1436.5 M1436.5,1207.5h-186.6c-13.4,0-24.3,10.9-24.3,24.3v186.6
				c0,13.4,10.9,24.3,24.3,24.3h186.6c13.4,0,24.3-10.9,24.3-24.3v-186.6C1460.8,1218.3,1449.9,1207.5,1436.5,1207.5L1436.5,1207.5z
				"/>
		</g>
	</g>
	<path class="st2" d="M406.9,236.3H220.3c-11.2,0-20.3,9.1-20.3,20.3v186.6c0,11.2,9.1,20.3,20.3,20.3h186.6
		c11.2,0,20.3-9.1,20.3-20.3V256.6C427.2,245.4,418.1,236.3,406.9,236.3z"/>
	<path class="st2" d="M750.1,236.3H563.5c-11.2,0-20.3,9.1-20.3,20.3v186.6c0,11.2,9.1,20.3,20.3,20.3h186.7
		c11.2,0,20.3-9.1,20.3-20.3V256.6C770.4,245.4,761.3,236.3,750.1,236.3z"/>
	<path class="st2" d="M1093.3,236.3H906.7c-11.2,0-20.3,9.1-20.3,20.3v186.6c0,11.2,9.1,20.3,20.3,20.3h186.6
		c11.2,0,20.3-9.1,20.3-20.3V256.6C1113.6,245.4,1104.5,236.3,1093.3,236.3z"/>
	<path class="st2" d="M1436.5,236.3h-186.6c-11.2,0-20.3,9.1-20.3,20.3v186.6c0,11.2,9.1,20.3,20.3,20.3h186.6
		c11.2,0,20.3-9.1,20.3-20.3V256.6C1456.8,245.4,1447.7,236.3,1436.5,236.3z"/>
	<path class="st2" d="M1779.7,236.3h-186.7c-11.2,0-20.3,9.1-20.3,20.3v186.6c0,11.2,9.1,20.3,20.3,20.3h186.7
		c11.2,0,20.3-9.1,20.3-20.3V256.6C1800,245.4,1790.9,236.3,1779.7,236.3z"/>
	<path class="st2" d="M406.9,561.4H220.3c-11.2,0-20.3,9.1-20.3,20.3v186.6c0,11.2,9.1,20.3,20.3,20.3h186.6
		c11.2,0,20.3-9.1,20.3-20.3V581.6C427.2,570.4,418.1,561.4,406.9,561.4z"/>
	<path class="st2" d="M750.1,561.4H563.5c-11.2,0-20.3,9.1-20.3,20.3v186.6c0,11.2,9.1,20.3,20.3,20.3h186.7
		c11.2,0,20.3-9.1,20.3-20.3V581.6C770.4,570.4,761.3,561.4,750.1,561.4z"/>
	<path class="st2" d="M1093.3,561.4H906.7c-11.2,0-20.3,9.1-20.3,20.3v186.6c0,11.2,9.1,20.3,20.3,20.3h186.6
		c11.2,0,20.3-9.1,20.3-20.3V581.6C1113.6,570.4,1104.5,561.4,1093.3,561.4z"/>
	<path class="st2" d="M1436.5,561.4h-186.6c-11.2,0-20.3,9.1-20.3,20.3v186.6c0,11.2,9.1,20.3,20.3,20.3h186.6
		c11.2,0,20.3-9.1,20.3-20.3V581.6C1456.8,570.4,1447.7,561.4,1436.5,561.4z"/>
	<path class="st2" d="M406.9,886.4H220.3c-11.2,0-20.3,9.1-20.3,20.3v186.6c0,11.2,9.1,20.3,20.3,20.3h186.6
		c11.2,0,20.3-9.1,20.3-20.3V906.7C427.2,895.5,418.1,886.4,406.9,886.4z"/>
	<path class="st2" d="M750.1,886.4H563.5c-11.2,0-20.3,9.1-20.3,20.3v186.6c0,11.2,9.1,20.3,20.3,20.3h186.7
		c11.2,0,20.3-9.1,20.3-20.3V906.7C770.4,895.5,761.3,886.4,750.1,886.4z"/>
	<path class="st2" d="M1093.3,886.4H906.7c-11.2,0-20.3,9.1-20.3,20.3v186.6c0,11.2,9.1,20.3,20.3,20.3h186.6
		c11.2,0,20.3-9.1,20.3-20.3V906.7C1113.6,895.5,1104.5,886.4,1093.3,886.4z"/>
	<path class="st2" d="M1436.5,886.4h-186.6c-11.2,0-20.3,9.1-20.3,20.3v186.6c0,11.2,9.1,20.3,20.3,20.3h186.6
		c11.2,0,20.3-9.1,20.3-20.3V906.7C1456.8,895.5,1447.7,886.4,1436.5,886.4z"/>
	<path class="st2" d="M1779.7,886.4h-186.7c-11.2,0-20.3,9.1-20.3,20.3v186.6c0,11.2,9.1,20.3,20.3,20.3h186.7
		c11.2,0,20.3-9.1,20.3-20.3V906.7C1800,895.5,1790.9,886.4,1779.7,886.4z"/>
	<path class="st2" d="M406.9,1211.5H220.3c-11.2,0-20.3,9.1-20.3,20.3v186.6c0,11.2,9.1,20.3,20.3,20.3h186.6
		c11.2,0,20.3-9.1,20.3-20.3v-186.6C427.2,1220.5,418.1,1211.5,406.9,1211.5z"/>
	<path class="st2" d="M750.1,1211.5H563.5c-11.2,0-20.3,9.1-20.3,20.3v186.6c0,11.2,9.1,20.3,20.3,20.3h186.7
		c11.2,0,20.3-9.1,20.3-20.3v-186.6C770.4,1220.5,761.3,1211.5,750.1,1211.5z"/>
	<path class="st2" d="M1093.3,1211.5H906.7c-11.2,0-20.3,9.1-20.3,20.3v186.6c0,11.2,9.1,20.3,20.3,20.3h186.6
		c11.2,0,20.3-9.1,20.3-20.3v-186.6C1113.6,1220.5,1104.5,1211.5,1093.3,1211.5z"/>
	<path class="st2" d="M1779.7,1211.5h-186.7c-11.2,0-20.3,9.1-20.3,20.3v186.6c0,11.2,9.1,20.3,20.3,20.3h186.7
		c11.2,0,20.3-9.1,20.3-20.3v-186.6C1800,1220.5,1790.9,1211.5,1779.7,1211.5z"/>
	<path class="st2" d="M406.9,1536.5H220.3c-11.2,0-20.3,9.1-20.3,20.3v186.6c0,11.2,9.1,20.3,20.3,20.3h186.6
		c11.2,0,20.3-9.1,20.3-20.3v-186.6C427.2,1545.6,418.1,1536.5,406.9,1536.5z"/>
	<path class="st2" d="M750.1,1536.5H563.5c-11.2,0-20.3,9.1-20.3,20.3v186.6c0,11.2,9.1,20.3,20.3,20.3h186.7
		c11.2,0,20.3-9.1,20.3-20.3v-186.6C770.4,1545.6,761.3,1536.5,750.1,1536.5z"/>
	<path class="st2" d="M1093.3,1536.5H906.7c-11.2,0-20.3,9.1-20.3,20.3v186.6c0,11.2,9.1,20.3,20.3,20.3h186.6
		c11.2,0,20.3-9.1,20.3-20.3v-186.6C1113.6,1545.6,1104.5,1536.5,1093.3,1536.5z"/>
	<path class="st2" d="M1436.5,1536.5h-186.6c-11.2,0-20.3,9.1-20.3,20.3v186.6c0,11.2,9.1,20.3,20.3,20.3h186.6
		c11.2,0,20.3-9.1,20.3-20.3v-186.6C1456.8,1545.6,1447.7,1536.5,1436.5,1536.5z"/>
	<path class="st2" d="M1783.3,1536.5h-193.8c-8.8,0-15.5,7.8-14.3,16.5l27.6,188.8c1.8,12.6,12.6,21.9,25.4,21.9h115.2
		c12.7,0,23.4-9.3,25.3-21.7l28.8-188.9C1798.8,1544.4,1792.1,1536.5,1783.3,1536.5z"/>
	<path class="st2" d="M1800,581.6v186.6c0,11.2-9.1,20.3-20.3,20.3h-186.7c-11.2,0-20.3-9.1-20.3-20.3V581.6
		c0-11.2,9.1-20.3,20.3-20.3l7.9-0.1c0,0-0.5-21.4,31.2-43.3c0,0-9.2,17.8-0.3,43.4H1741c8.9-25.6-0.3-43.4-0.3-43.4
		c31.8,21.9,31.3,43.3,31.3,43.3l7.9,0.1C1790.9,561.3,1800,570.4,1800,581.6z"/>
	<path class="st2" d="M1436.5,1211.5h-186.6c-11.2,0-20.3,9.1-20.3,20.3v186.6c0,11.2,9.1,20.3,20.3,20.3h186.6
		c11.2,0,20.3-9.1,20.3-20.3v-186.6C1456.8,1220.5,1447.7,1211.5,1436.5,1211.5z"/>
	<g>
		<g>
			<path class="st1" d="M693.6,624.6c2.8,0,5.7,1.1,7.8,3.3l2.6,2.6c0.3,0.3,0.8,0.5,1.2,0.5c0.4,0,0.9-0.2,1.3-0.5l2.6-2.6
				c2.1-2.2,5-3.2,7.8-3.2c2.8,0,5.6,1.1,7.8,3.2l3,3c4.3,4.3,4.3,11.3,0,15.6l-21.2,21.2c-0.4,0.3-0.8,0.5-1.3,0.5
				c-0.4,0-0.9-0.2-1.2-0.5l-21.2-21.2c-4.3-4.3-4.3-11.3,0-15.6l3-3C687.9,625.7,690.7,624.6,693.6,624.6 M693.6,620.6l0,4
				L693.6,620.6c-4,0-7.8,1.6-10.6,4.4l-3,3c-5.9,5.9-5.9,15.4,0,21.2l21.2,21.2c1.1,1.1,2.5,1.7,4.1,1.7c1.5,0,2.9-0.6,4-1.6
				c0,0,0,0,0.1-0.1l21.2-21.2c2.8-2.8,4.4-6.6,4.4-10.6c0-4-1.6-7.8-4.4-10.6l-3-3c-2.8-2.8-6.6-4.4-10.6-4.4
				c-4,0-7.8,1.6-10.6,4.4l-1,1l-1-1C701.4,622.2,697.6,620.6,693.6,620.6L693.6,620.6z"/>
		</g>
	</g>
	<g>
		<g>
			<path class="st1" d="M708.7,298.1c4,0,7.2,3.2,7.2,7.2v19c0,4-3.2,7.2-7.2,7.2h-19c-4,0-7.2-3.2-7.2-7.2v-19c0-4,3.2-7.2,7.2-7.2
				H708.7 M708.7,294.1h-19c-6.2,0-11.2,5-11.2,11.2v19c0,6.2,5,11.2,11.2,11.2h19c6.2,0,11.2-5,11.2-11.2v-19
				C719.9,299.2,714.9,294.1,708.7,294.1L708.7,294.1z"/>
		</g>
	</g>
	<g>
		<g>
			<path class="st1" d="M627.6,298.1c4,0,7.2,3.2,7.2,7.2v19c0,4-3.2,7.2-7.2,7.2h-19c-4,0-7.2-3.2-7.2-7.2v-19c0-4,3.2-7.2,7.2-7.2
				H627.6 M627.6,294.1h-19c-6.2,0-11.2,5-11.2,11.2v19c0,6.2,5,11.2,11.2,11.2h19c6.2,0,11.2-5,11.2-11.2v-19
				C638.8,299.2,633.8,294.1,627.6,294.1L627.6,294.1z"/>
		</g>
	</g>
	<g>
		<g>
			<path class="st1" d="M970.8,1602.3c4,0,7.2,3.2,7.2,7.2v19c0,4-3.2,7.2-7.2,7.2h-19c-4,0-7.2-3.2-7.2-7.2v-19
				c0-4,3.2-7.2,7.2-7.2H970.8 M970.8,1598.3h-19c-6.2,0-11.2,5-11.2,11.2v19c0,6.2,5,11.2,11.2,11.2h19c6.2,0,11.2-5,11.2-11.2v-19
				C982,1603.4,977,1598.3,970.8,1598.3L970.8,1598.3z"/>
		</g>
	</g>
	<g>
		<g>
			<path class="st1" d="M656.8,381.3c30.2,0,55.4,14.7,60.9,34h-14.7c-6-10.8-23.3-20.4-46.2-20.4c-22.9,0-40.3,9.6-46.3,20.4h-14.7
				C601.4,396,626.6,381.3,656.8,381.3 M656.8,377.3c-15.2,0-30,3.6-41.7,10.3c-11.9,6.7-20.1,16.2-23.1,26.7
				c-0.3,1.2-0.1,2.5,0.7,3.5c0.8,1,1.9,1.6,3.2,1.6h14.7c1.4,0,2.8-0.8,3.5-2c4.9-8.8,20.4-18.4,42.8-18.4
				c22.4,0,37.8,9.5,42.7,18.4c0.7,1.3,2,2.1,3.5,2.1h14.7c1.3,0,2.4-0.6,3.2-1.6c0.8-1,1-2.3,0.7-3.5c-3-10.5-11.2-19.9-23.1-26.7
				C686.8,380.9,672,377.3,656.8,377.3L656.8,377.3z"/>
		</g>
	</g>
	<g>
		<g>
			<path class="st1" d="M960.8,1563.9c15.1,0,27.7,7.3,30.5,17h-7.4c-3-5.4-11.7-10.2-23.1-10.2c-11.4,0-20.1,4.8-23.1,10.2h-7.4
				C933,1571.3,945.7,1563.9,960.8,1563.9 M960.8,1559.9c-16.9,0-31,8.2-34.3,19.9c-0.3,1.2-0.1,2.5,0.7,3.5c0.8,1,1.9,1.6,3.2,1.6
				h7.4c1.4,0,2.8-0.8,3.5-2c2.3-4.1,9.8-8.2,19.7-8.2c9.9,0,17.4,4.1,19.6,8.1c0.7,1.3,2,2.1,3.5,2.1h7.4c1.3,0,2.4-0.6,3.2-1.6
				s1-2.3,0.7-3.5C991.8,1568.1,977.7,1559.9,960.8,1559.9L960.8,1559.9z"/>
		</g>
	</g>
	<g>
		<g>
			<path class="st1" d="M717.8,715.7L717.8,715.7 M717.8,715.7c-5.5,19.4-30.7,34-60.9,34c-30.3,0-55.5-14.7-61-34h14.7
				c6,10.8,23.4,20.4,46.3,20.4c22.9,0,40.2-9.6,46.2-20.4H717.8 M717.8,711.7L717.8,711.7h-14.7c-1.5,0-2.8,0.8-3.5,2.1
				c-4.9,8.8-20.4,18.4-42.7,18.4c-22.4,0-37.9-9.5-42.8-18.4c-0.7-1.3-2-2-3.5-2h-14.7c-1.3,0-2.4,0.6-3.2,1.6
				c-0.8,1-1,2.3-0.7,3.5c3,10.5,11.2,19.9,23.1,26.7c11.7,6.6,26.6,10.3,41.7,10.3c15.2,0,30-3.6,41.7-10.3
				c11.8-6.7,20-16.1,23-26.5c0.1-0.4,0.2-0.8,0.2-1.3C721.8,713.5,720,711.7,717.8,711.7L717.8,711.7z M717.8,719.7L717.8,719.7
				L717.8,719.7L717.8,719.7z"/>
		</g>
	</g>
	<g>
		<g>
			<path class="st1" d="M638.1,969.4c-1.2,10.6-10.1,18.9-21.1,18.9c-10.9,0-19.9-8.3-21.1-18.9h9.3c1.1,5.6,6,9.8,11.8,9.8
				c5.9,0,10.8-4.2,11.8-9.8H638.1 M638.1,965.4h-9.3c-1.9,0-3.6,1.4-3.9,3.3c-0.7,3.8-4,6.5-7.9,6.5c-3.9,0-7.2-2.7-7.9-6.5
				c-0.4-1.9-2-3.3-3.9-3.3H596c-1.1,0-2.2,0.5-3,1.3c-0.8,0.8-1.1,2-1,3.1c1.4,12.8,12.2,22.5,25,22.5s23.6-9.7,25-22.5
				c0.1-1.1-0.2-2.3-1-3.1C640.3,965.9,639.3,965.4,638.1,965.4L638.1,965.4z M638.1,973.4L638.1,973.4L638.1,973.4L638.1,973.4z"/>
		</g>
	</g>
	<g>
		<g>
			<path class="st1" d="M1050.4,1692.2L1050.4,1692.2 M1050.4,1692.2c-6,17.9-26.2,31.2-50.3,31.2c-24.1,0-44.4-13.2-50.4-31.2
				H1050.4 M1050.4,1688.2L1050.4,1688.2H949.7c-1.3,0-2.5,0.6-3.2,1.7c-0.8,1-1,2.4-0.6,3.6c6.6,20,28.9,33.9,54.2,33.9
				c25.2,0,47.4-13.9,54.1-33.8c0.2-0.4,0.3-0.9,0.3-1.4C1054.4,1690,1052.6,1688.2,1050.4,1688.2L1050.4,1688.2z M1050.4,1696.2
				L1050.4,1696.2L1050.4,1696.2L1050.4,1696.2z"/>
		</g>
	</g>
	<g>
		<g>
			<path class="st1" d="M717.8,1032.3L717.8,1032.3 M717.8,1032.3c-5.5,19.4-30.7,34-60.9,34c-30.3,0-55.5-14.7-61-34h14.7
				c6,10.8,23.4,20.4,46.3,20.4c22.9,0,40.2-9.6,46.2-20.4H717.8 M717.8,1028.3L717.8,1028.3h-14.7c-1.5,0-2.8,0.8-3.5,2.1
				c-4.9,8.8-20.4,18.4-42.7,18.4c-22.4,0-37.9-9.5-42.8-18.4c-0.7-1.3-2-2-3.5-2h-14.7c-1.3,0-2.4,0.6-3.2,1.6
				c-0.8,1-1,2.3-0.7,3.5c3,10.5,11.2,19.9,23.1,26.7c11.7,6.6,26.6,10.3,41.7,10.3c15.2,0,30-3.6,41.7-10.3
				c11.8-6.7,20-16.1,23-26.5c0.1-0.4,0.2-0.8,0.2-1.3C721.8,1030,720,1028.3,717.8,1028.3L717.8,1028.3z M717.8,1036.3
				L717.8,1036.3L717.8,1036.3L717.8,1036.3z"/>
		</g>
	</g>
	<g>
		<g>
			<path class="st1" d="M724.8,1254l4.7,9.1l-50.3,28l-4.7-9.1L724.8,1254 M724.8,1250c-0.7,0-1.3,0.2-1.9,0.5l-50.3,28
				c-1.9,1.1-2.6,3.4-1.6,5.3l4.7,9.1c0.5,1,1.4,1.7,2.4,2c0.4,0.1,0.8,0.2,1.2,0.2c0.7,0,1.3-0.2,1.9-0.5l50.3-28
				c1.9-1.1,2.6-3.4,1.6-5.3l-4.7-9.1c-0.5-1-1.4-1.7-2.4-2C725.6,1250.1,725.2,1250,724.8,1250L724.8,1250z"/>
		</g>
	</g>
	<g>
		<g>
			<path class="st1" d="M711.5,1306.8c4,0,7.2,3.2,7.2,7.2v12.5c0,4-3.2,7.2-7.2,7.2h-19c-4,0-7.2-3.2-7.2-7.2V1314
				c0-4,3.2-7.2,7.2-7.2H711.5 M711.5,1302.8h-19c-6.2,0-11.2,5-11.2,11.2v12.5c0,6.2,5,11.2,11.2,11.2h19c6.2,0,11.2-5,11.2-11.2
				V1314C722.8,1307.8,717.7,1302.8,711.5,1302.8L711.5,1302.8z"/>
		</g>
	</g>
	<g>
		<g>
			<path class="st1" d="M719.4,969.4L719.4,969.4 M719.4,969.4c-1.2,10.6-10.1,18.9-21.1,18.9s-19.9-8.3-21.1-18.9h9.3
				c1.1,5.6,6,9.8,11.8,9.8c5.9,0,10.8-4.2,11.8-9.8H719.4 M719.4,965.4L719.4,965.4h-9.3c-1.9,0-3.6,1.4-3.9,3.3
				c-0.7,3.8-4,6.5-7.9,6.5c-3.9,0-7.2-2.7-7.9-6.5c-0.4-1.9-2-3.3-3.9-3.3h-9.3c-1.1,0-2.2,0.5-3,1.3c-0.8,0.8-1.1,2-1,3.1
				c1.4,12.8,12.2,22.5,25,22.5c12.8,0,23.6-9.6,25-22.3c0-0.2,0-0.4,0-0.6C723.4,967.2,721.6,965.4,719.4,965.4L719.4,965.4z
				 M719.4,973.4L719.4,973.4L719.4,973.4L719.4,973.4z"/>
		</g>
	</g>
	<g>
		<g>
			<path class="st1" d="M621.1,624.6c2.8,0,5.7,1.1,7.8,3.2l3,3c4.3,4.3,4.3,11.3,0,15.6l-21.2,21.2c-0.3,0.3-0.8,0.5-1.2,0.5
				s-0.9-0.2-1.3-0.5L587,646.4c-4.3-4.3-4.3-11.3,0-15.6l3-3c2.1-2.1,5-3.2,7.8-3.2c2.8,0,5.7,1.1,7.8,3.2l2.6,2.6
				c0.4,0.3,0.8,0.5,1.3,0.5s0.9-0.2,1.2-0.5l2.6-2.6C615.4,625.7,618.3,624.6,621.1,624.6 M621.1,620.6c-4,0-7.8,1.6-10.7,4.4l-1,1
				l-1-1c-2.9-2.9-6.6-4.4-10.7-4.4c-4,0-7.8,1.6-10.6,4.4l-3,3c-5.9,5.9-5.9,15.4,0,21.2l21.2,21.2c0,0,0,0,0.1,0.1
				c1.1,1,2.5,1.6,4,1.6c1.5,0,3-0.6,4.1-1.7l21.2-21.2c5.9-5.9,5.9-15.4,0-21.2l-3-3C628.9,622.2,625.1,620.6,621.1,620.6
				L621.1,620.6z"/>
		</g>
	</g>
	<g>
		<g>
			<path class="st1" d="M970.8,960.5c4,0,7.2,3.2,7.2,7.2v19c0,4-3.2,7.2-7.2,7.2h-19c-4,0-7.2-3.2-7.2-7.2v-19c0-4,3.2-7.2,7.2-7.2
				H970.8 M970.8,956.5h-19c-6.2,0-11.2,5-11.2,11.2v19c0,6.2,5,11.2,11.2,11.2h19c6.2,0,11.2-5,11.2-11.2v-19
				C982,961.5,977,956.5,970.8,956.5L970.8,956.5z"/>
		</g>
	</g>
	<g>
		<g>
			<path class="st1" d="M1069.4,933.2c1.9,0,3.5,1.6,3.5,3.5v3.3c0,1.9-1.6,3.5-3.5,3.5h-54c-1.9,0-3.5-1.6-3.5-3.5v-3.3
				c0-1.9,1.6-3.5,3.5-3.5H1069.4 M1069.4,929.2h-54c-4.1,0-7.5,3.4-7.5,7.5v3.3c0,4.1,3.4,7.5,7.5,7.5h54c4.1,0,7.5-3.4,7.5-7.5
				v-3.3C1076.9,932.5,1073.6,929.2,1069.4,929.2L1069.4,929.2z"/>
		</g>
	</g>
	<g>
		<g>
			<path class="st1" d="M1036.2,1049.3c2.4,0,4.3,1.9,4.3,4.3v5c0,2.4-1.9,4.3-4.3,4.3h-72.5c-2.4,0-4.3-1.9-4.3-4.3v-5
				c0-2.4,1.9-4.3,4.3-4.3H1036.2 M1036.2,1045.3h-72.5c-4.6,0-8.3,3.7-8.3,8.3v5c0,4.6,3.7,8.3,8.3,8.3h72.5c4.6,0,8.3-3.7,8.3-8.3
				v-5C1044.6,1049,1040.8,1045.3,1036.2,1045.3L1036.2,1045.3z"/>
		</g>
	</g>
	<g>
		<g>
			<path class="st1" d="M1051.9,960.5c4,0,7.2,3.2,7.2,7.2v19c0,4-3.2,7.2-7.2,7.2h-19c-4,0-7.2-3.2-7.2-7.2v-19
				c0-4,3.2-7.2,7.2-7.2H1051.9 M1051.9,956.5h-19c-6.2,0-11.2,5-11.2,11.2v19c0,6.2,5,11.2,11.2,11.2h19c6.2,0,11.2-5,11.2-11.2
				v-19C1063.2,961.5,1058.1,956.5,1051.9,956.5L1051.9,956.5z"/>
		</g>
	</g>
	<g>
		<g>
			<path class="st1" d="M970.8,623.2c4,0,7.2,3.2,7.2,7.2v19c0,4-3.2,7.2-7.2,7.2h-19c-4,0-7.2-3.2-7.2-7.2v-19c0-4,3.2-7.2,7.2-7.2
				H970.8 M970.8,619.2h-19c-6.2,0-11.2,5-11.2,11.2v19c0,6.2,5,11.2,11.2,11.2h19c6.2,0,11.2-5,11.2-11.2v-19
				C982,624.2,977,619.2,970.8,619.2L970.8,619.2z"/>
		</g>
	</g>
	<g>
		<g>
			<path class="st1" d="M1051.9,623.2c4,0,7.2,3.2,7.2,7.2v19c0,4-3.2,7.2-7.2,7.2h-19c-4,0-7.2-3.2-7.2-7.2v-19
				c0-4,3.2-7.2,7.2-7.2H1051.9 M1051.9,619.2h-19c-6.2,0-11.2,5-11.2,11.2v19c0,6.2,5,11.2,11.2,11.2h19c6.2,0,11.2-5,11.2-11.2
				v-19C1063.2,624.2,1058.1,619.2,1051.9,619.2L1051.9,619.2z"/>
		</g>
	</g>
	<g>
		<g>
			<path class="st1" d="M1064.9,1614c1.2,0,2.2,1,2.2,2.2v5.9c0,1.2-1,2.2-2.2,2.2h-35.6c-1.2,0-2.2-1-2.2-2.2v-5.9
				c0-1.2,1-2.2,2.2-2.2H1064.9 M1064.9,1610h-35.6c-3.4,0-6.2,2.8-6.2,6.2v5.9c0,3.4,2.8,6.2,6.2,6.2h35.6c3.4,0,6.2-2.8,6.2-6.2
				v-5.9C1071.1,1612.7,1068.3,1610,1064.9,1610L1064.9,1610z"/>
		</g>
	</g>
	<g>
		<g>
			<path class="st1" d="M1044,1579.3c15.1,0,27.7,7.3,30.5,17h-7.4c-3-5.4-11.7-10.2-23.1-10.2s-20.1,4.8-23.1,10.2h-7.4
				C1016.3,1586.6,1028.9,1579.3,1044,1579.3 M1044,1575.3c-16.9,0-31,8.2-34.3,19.9c-0.3,1.2-0.1,2.5,0.7,3.5
				c0.8,1,1.9,1.6,3.2,1.6h7.4c1.4,0,2.8-0.8,3.5-2c2.3-4.1,9.7-8.2,19.7-8.2c9.9,0,17.4,4.1,19.6,8.1c0.7,1.3,2,2.1,3.5,2.1h7.4
				c1.3,0,2.4-0.6,3.2-1.6s1-2.3,0.7-3.5C1075,1583.5,1060.9,1575.3,1044,1575.3L1044,1575.3z"/>
		</g>
	</g>
	<g>
		<g>
			<path class="st1" d="M988.3,912.3c1.9,0,3.5,1.6,3.5,3.5v3.3c0,1.9-1.5,3.4-3.4,3.4h-54c-1.9,0-3.5-1.6-3.5-3.5v-3.3
				c0-1.9,1.6-3.5,3.5-3.5H988.3 M988.3,908.3h-54c-4.1,0-7.5,3.4-7.5,7.5v3.3c0,4.1,3.4,7.5,7.5,7.5h54c4.1,0,7.4-3.3,7.4-7.4v-3.3
				C995.8,911.7,992.4,908.3,988.3,908.3L988.3,908.3z"/>
		</g>
	</g>
	<g>
		<g>
			<path class="st1" d="M970.8,1273.3c4,0,7.2,3.2,7.2,7.2v19c0,4-3.2,7.2-7.2,7.2h-19c-4,0-7.2-3.2-7.2-7.2v-19
				c0-4,3.2-7.2,7.2-7.2H970.8 M970.8,1269.3h-19c-6.2,0-11.2,5-11.2,11.2v19c0,6.2,5,11.2,11.2,11.2h19c6.2,0,11.2-5,11.2-11.2v-19
				C982,1274.3,977,1269.3,970.8,1269.3L970.8,1269.3z"/>
		</g>
	</g>
	<g>
		<g>
			<path class="st1" d="M1049.1,1343.5c2,0,3.6,1.7,3.5,3.7l-0.2,3.3c-0.1,1.6-1.3,2.9-2.8,3.2c-1.9,0.3-4.4,1.1-6.4,3
				c-2.7,2.5-4,6.4-4,11.7c0,11.6,6.6,14.7,10.6,15.6c1.6,0.3,2.7,1.7,2.7,3.3c0,0,0,3.1,0,5.2c0,1-0.9,1.8-1.9,1.8
				c-0.1,0-0.1,0-0.2,0c-3.2-0.3-9.4-1.7-14.4-6.6c-3.2-3.1-5.3-7.1-6.3-11.9h-56.8c-0.8,5.8-3.1,10.6-6.8,14.2
				c-4.9,4.9-10.9,6.2-14.2,6.6c-0.1,0-0.2,0-0.2,0c-1.1,0-2-0.9-2-2c0-2.1,0-5,0-5c0-1.6,1.1-3,2.7-3.3c4-0.9,10.6-4,10.6-15.6
				c0-5.3-1.3-9.3-4-11.7c-2-1.9-4.5-2.7-6.4-3c-1.6-0.3-2.7-1.6-2.8-3.2l-0.2-3.3c-0.1-2,1.5-3.7,3.5-3.7c0.2,0,0.3,0,0.5,0
				c3.4,0.5,8.3,1.9,12.5,5.8c3.7,3.5,6,8.2,6.8,14.1h56.1c0.5-6.9,2.9-12.4,7.1-16.4c4.2-3.9,9.1-5.3,12.5-5.8
				C1048.7,1343.6,1048.9,1343.5,1049.1,1343.5 M1049.1,1339.5c-0.3,0-0.7,0-1,0.1c-3.9,0.5-9.7,2.2-14.7,6.8
				c-4.2,3.9-6.8,9.1-7.9,15.3h-49.3c-1.3-5.2-3.8-9.6-7.4-13c-4.9-4.6-10.7-6.3-14.7-6.8c-0.3,0-0.7-0.1-1-0.1c-2,0-4,0.9-5.4,2.4
				c-1.4,1.5-2.1,3.5-2,5.6l0.2,3.3c0.2,3.5,2.7,6.3,6.1,6.9c1.8,0.3,3.3,1,4.3,2c0,0,0,0,0,0c1.8,1.6,2.7,4.6,2.7,8.8
				c0,6.7-2.5,10.6-7.4,11.7c-3.4,0.7-5.9,3.7-5.9,7.3c0,0.1,0,2.9,0,5c0,3.3,2.7,6,6,6c0.2,0,0.5,0,0.7,0c3.7-0.4,10.8-2,16.6-7.7
				c3.5-3.5,6-7.9,7.3-13.1h50.4c1.4,4.2,3.6,7.8,6.6,10.7c5.9,5.8,13,7.4,16.7,7.8c0.2,0,0.4,0,0.6,0c3.2,0,5.8-2.6,5.9-5.8
				c0-2.2,0-5.2,0-5.3c0-3.5-2.5-6.5-5.9-7.2c-4.9-1.1-7.4-5-7.4-11.7c0-4.1,0.9-7.1,2.7-8.8c1.1-1,2.5-1.7,4.4-2
				c3.4-0.6,5.9-3.4,6.1-6.9l0.2-3.4c0.1-2.1-0.6-4.1-2-5.6C1053.1,1340.4,1051.1,1339.5,1049.1,1339.5L1049.1,1339.5z"/>
		</g>
	</g>
	<g>
		<g>
			<path class="st1" d="M1051.9,1273.3c4,0,7.2,3.2,7.2,7.2v19c0,4-3.2,7.2-7.2,7.2h-19c-4,0-7.2-3.2-7.2-7.2v-19
				c0-4,3.2-7.2,7.2-7.2H1051.9 M1051.9,1269.3h-19c-6.2,0-11.2,5-11.2,11.2v19c0,6.2,5,11.2,11.2,11.2h19c6.2,0,11.2-5,11.2-11.2
				v-19C1063.2,1274.3,1058.1,1269.3,1051.9,1269.3L1051.9,1269.3z"/>
		</g>
	</g>
	<g>
		<g>
			<path class="st1" d="M375.4,394.6L375.4,394.6 M375.4,394.6c-5.5,19.4-30.7,34-60.9,34c-30.3,0-55.5-14.7-61-34h14.7
				c6,10.8,23.4,20.4,46.3,20.4c22.9,0,40.2-9.6,46.2-20.4H375.4 M375.4,390.6L375.4,390.6h-14.7c-1.5,0-2.8,0.8-3.5,2.1
				c-4.9,8.8-20.4,18.4-42.7,18.4c-22.4,0-37.9-9.5-42.8-18.4c-0.7-1.3-2-2.1-3.5-2.1h-14.7c-1.3,0-2.4,0.6-3.2,1.6
				c-0.8,1-1,2.3-0.7,3.5c3,10.5,11.2,19.9,23.1,26.7c11.7,6.6,26.6,10.3,41.7,10.3c15.2,0,30-3.6,41.7-10.3
				c11.8-6.7,20-16.1,23-26.5c0.1-0.4,0.2-0.8,0.2-1.3C379.4,392.4,377.6,390.6,375.4,390.6L375.4,390.6z M375.4,398.6L375.4,398.6
				L375.4,398.6L375.4,398.6z"/>
		</g>
	</g>
	<g>
		<g>
			<path class="st1" d="M313,1342.7c2.8,0,6.8,1.1,10.5,6c3.5,4.7,3.2,8.6,2.2,11.1c-0.3,0.7-0.6,1.3-1,1.9c0.7,0.3,1.4,0.6,2,1
				c2.2,1.4,4.9,4.3,5,10.1c0.1,6-2.5,9.2-4.7,10.9c-2.8,2.1-6.5,2.7-9.9,2.7c-3.5,0-6.8-0.7-8.9-1.2c-1.1-0.3-1.7-1.4-1.3-2.4
				l1-2.9c0.3-0.8,1-1.3,1.8-1.3c0.2,0,0.3,0,0.5,0.1c1.9,0.5,4.6,1,7.1,1c2.2,0,4.3-0.4,5.7-1.4c0.5-0.4,2-1.5,2-5.2
				c-0.1-3.4-1.4-4.2-1.8-4.5c-0.9-0.5-2-0.7-3.3-0.7c-1,0-2.1,0.1-3.2,0.3c-3,1.4-5.9,2.2-7.8,2.7c-0.2,0-0.3,0.1-0.5,0.1
				c-0.8,0-1.5-0.5-1.8-1.3l-1.1-3.1c-0.3-1,0.1-2,1.1-2.3c1.7-0.7,4.6-1.8,7.9-2.5c2.3-1.2,4.2-2.6,4.8-4.2
				c0.2-0.4,0.7-1.8-1.3-4.5c-2.4-3.2-4.4-3.3-5.1-3.3c0,0-0.1,0-0.1,0c-3.3,0.1-6.8,3.7-8.7,6c-0.4,0.5-0.9,0.7-1.4,0.7
				c-0.4,0-0.7-0.1-1.1-0.3l-2.5-1.7c-0.9-0.6-1.1-1.9-0.4-2.8c2.3-2.9,7.5-8.5,14-8.7C312.9,1342.7,312.9,1342.7,313,1342.7
				 M313,1338.7c-0.1,0-0.2,0-0.4,0c-8.1,0.3-14.1,6.6-17,10.3c-1,1.3-1.4,3-1.2,4.6c0.3,1.6,1.2,3,2.5,3.9l2.5,1.7
				c1,0.6,2.1,1,3.3,1c1.8,0,3.4-0.8,4.6-2.2c2.7-3.2,4.8-4.4,5.7-4.5l0.1,0c0,0,0.7,0.2,1.8,1.7c0.3,0.4,0.5,0.7,0.6,0.9
				c-0.3,0.3-1,0.9-2.3,1.6c-3.5,0.8-6.5,1.9-8.1,2.6c-2.8,1.2-4.3,4.3-3.3,7.3c0,0,0,0,0,0.1l1,3.1c0.8,2.3,2.9,3.9,5.3,4
				c-1.9,0.5-3.4,1.9-4.1,3.9l-0.9,2.8c-0.5,1.6-0.4,3.3,0.4,4.7c0.8,1.4,2.1,2.4,3.7,2.8c1.9,0.5,5.7,1.4,9.9,1.4
				c5,0,9.1-1.2,12.3-3.5c3-2.2,6.5-6.4,6.4-14.1c-0.1-7.1-3.4-10.9-5.9-12.8c0.8-3,1-8-3.2-13.6
				C322.1,1340,316.7,1338.7,313,1338.7L313,1338.7z M317.9,1371.9c0.8-0.1,1.4-0.2,2-0.2c0.5,0,0.8,0,1,0.1
				c0.1,0.2,0.1,0.6,0.1,1.2c0,1.4-0.3,1.9-0.3,1.9c0,0,0,0,0,0c0,0,0,0,0,0c-0.2,0.1-1,0.6-3.3,0.6c-2.5,0-5.1-0.6-6.1-0.8
				c-0.4-0.1-0.8-0.2-1.2-0.2C312.1,1374.1,314.9,1373.2,317.9,1371.9L317.9,1371.9z"/>
		</g>
	</g>
	<g>
		<g>
			<path class="st1" d="M284.4,1273.3c4,0,7.2,3.2,7.2,7.2v19c0,4-3.2,7.2-7.2,7.2h-19c-4,0-7.2-3.2-7.2-7.2v-19
				c0-4,3.2-7.2,7.2-7.2H284.4 M284.4,1269.3h-19c-6.2,0-11.2,5-11.2,11.2v19c0,6.2,5,11.2,11.2,11.2h19c6.2,0,11.2-5,11.2-11.2v-19
				C295.6,1274.3,290.6,1269.3,284.4,1269.3L284.4,1269.3z"/>
		</g>
	</g>
	<g>
		<g>
			<path class="st1" d="M381.3,1645.2l8.3,4.4l-1.2,13.7l4.6-3.8l6.5,7.9l-14.1,11.6l-8.3-4.4l1.2-13.7l-4.6,3.8l-6.5-7.9
				L381.3,1645.2 M381.3,1641.2c-0.9,0-1.8,0.3-2.5,0.9l-14.1,11.6c-0.8,0.7-1.3,1.6-1.4,2.7c-0.1,1.1,0.2,2.1,0.9,2.9l6.5,7.9
				c0.7,0.8,1.7,1.3,2.7,1.4c0.1,0,0.2,0,0.3,0l-0.5,5.5c-0.1,1.6,0.7,3.1,2.1,3.9l8.3,4.4c0.6,0.3,1.2,0.5,1.9,0.5
				c0.9,0,1.8-0.3,2.5-0.9l14.1-11.6c0.8-0.7,1.3-1.7,1.4-2.7c0.1-1.1-0.2-2.1-0.9-2.9l-6.5-7.9c-0.8-0.9-1.9-1.4-3-1.4l0.5-5.5
				c0.1-1.6-0.7-3.1-2.1-3.9l-8.3-4.4C382.6,1641.4,381.9,1641.2,381.3,1641.2L381.3,1641.2z"/>
		</g>
	</g>
	<g>
		<g>
			<path class="st1" d="M284.4,948.2c4,0,7.2,3.2,7.2,7.2v19c0,4-3.2,7.2-7.2,7.2h-19c-4,0-7.2-3.2-7.2-7.2v-19c0-4,3.2-7.2,7.2-7.2
				H284.4 M284.4,944.2h-19c-6.2,0-11.2,5-11.2,11.2v19c0,6.2,5,11.2,11.2,11.2h19c6.2,0,11.2-5,11.2-11.2v-19
				C295.6,949.3,290.6,944.2,284.4,944.2L284.4,944.2z"/>
		</g>
	</g>
	<g>
		<g>
			<path class="st1" d="M351.7,1049.3c2.4,0,4.3,1.9,4.3,4.3v5c0,2.4-1.9,4.3-4.3,4.3h-72.5c-2.4,0-4.3-1.9-4.3-4.3v-5
				c0-2.4,1.9-4.3,4.3-4.3H351.7 M351.7,1045.3h-72.5c-4.6,0-8.3,3.7-8.3,8.3v5c0,4.6,3.7,8.3,8.3,8.3h72.5c4.6,0,8.3-3.7,8.3-8.3
				v-5C360,1049,356.3,1045.3,351.7,1045.3L351.7,1045.3z"/>
		</g>
	</g>
	<g>
		<g>
			<path class="st1" d="M656.8,1370.2c26.2,0,48.1,12.7,52.9,29.5h-12.8c-5.2-9.4-20.3-17.7-40.1-17.7c-19.9,0-34.9,8.3-40.2,17.7
				h-12.8C608.7,1382.9,630.6,1370.2,656.8,1370.2 M656.8,1366.2c-13.3,0-26.2,3.2-36.5,9c-10.5,5.9-17.7,14.2-20.3,23.5
				c-0.3,1.2-0.1,2.5,0.7,3.5c0.8,1,1.9,1.6,3.2,1.6h12.8c1.5,0,2.8-0.8,3.5-2.1c4.2-7.6,17.5-15.7,36.7-15.7
				c19.2,0,32.4,8.1,36.6,15.7c0.7,1.3,2,2.1,3.5,2.1h12.8c1.3,0,2.4-0.6,3.2-1.6c0.8-1,1-2.3,0.7-3.5c-2.6-9.2-9.8-17.6-20.3-23.5
				C683,1369.4,670.1,1366.2,656.8,1366.2L656.8,1366.2z"/>
		</g>
	</g>
	<g>
		<g>
			<path class="st1" d="M377.8,1608L377.8,1608 M377.8,1608c-1.1,10.6-10.1,18.9-21.1,18.9c-10.9,0-19.9-8.3-21.1-18.9h9.3
				c1,5.6,6,9.8,11.8,9.8c5.9,0,10.8-4.2,11.8-9.8H377.8 M377.8,1604L377.8,1604h-9.2c-1.9,0-3.6,1.4-3.9,3.3
				c-0.7,3.8-4,6.5-7.9,6.5c-3.9,0-7.2-2.7-7.8-6.5c-0.3-1.9-2-3.3-3.9-3.3h-9.3c-1.1,0-2.2,0.5-3,1.3c-0.8,0.8-1.1,2-1,3.1
				c1.4,12.8,12.2,22.5,25,22.5c12.9,0,23.6-9.6,25-22.3c0-0.2,0-0.4,0-0.6C381.8,1605.8,380,1604,377.8,1604L377.8,1604z
				 M377.8,1612L377.8,1612L377.8,1612L377.8,1612z"/>
		</g>
	</g>
	<g>
		<g>
			<path class="st1" d="M323.1,1679.2c4,0,7.2,4.3,7.2,9.5v25.2c0,5.2-3.2,9.5-7.2,9.5h-19c-4,0-7.2-4.3-7.2-9.5v-25.2
				c0-5.2,3.2-9.5,7.2-9.5H323.1 M323.1,1675.2h-19c-6.2,0-11.2,6.1-11.2,13.5v25.2c0,7.5,5,13.5,11.2,13.5h19
				c6.2,0,11.2-6.1,11.2-13.5v-25.2C334.3,1681.3,329.3,1675.2,323.1,1675.2L323.1,1675.2z"/>
		</g>
	</g>
	<g>
		<g>
			<path class="st1" d="M295.7,1608L295.7,1608 M295.7,1608c-1.2,10.6-10.1,18.9-21.1,18.9s-19.9-8.3-21.1-18.9h9.3
				c1.1,5.6,6,9.8,11.8,9.8c5.9,0,10.8-4.2,11.8-9.8H295.7 M295.7,1604L295.7,1604h-9.3c-1.9,0-3.6,1.4-3.9,3.3
				c-0.7,3.8-4,6.5-7.9,6.5c-3.9,0-7.2-2.7-7.9-6.5c-0.4-1.9-2-3.3-3.9-3.3h-9.3c-1.1,0-2.2,0.5-3,1.3c-0.8,0.8-1.1,2-1,3.1
				c1.4,12.8,12.2,22.5,25,22.5c12.8,0,23.6-9.6,25-22.3c0-0.2,0-0.4,0-0.6C299.7,1605.8,297.9,1604,295.7,1604L295.7,1604z
				 M295.7,1612L295.7,1612L295.7,1612L295.7,1612z"/>
		</g>
	</g>
	<g>
		<g>
			<path class="st1" d="M364.9,1664.1l5,3.7l-2.9,12.6l5.4-3.1l3.4,5.9l-12.2,7l-5-3.7l2.9-12.6l-5.4,3.1l-3.4-5.9L364.9,1664.1
				 M364.9,1660.1c-0.7,0-1.4,0.2-2,0.5l-12.2,7c-0.9,0.5-1.6,1.4-1.9,2.4c-0.3,1-0.1,2.1,0.4,3l3.4,5.9c0.7,1.2,1.9,1.9,3.2,2
				l-1,4.5c-0.4,1.5,0.2,3.2,1.5,4.1l5,3.7c0.7,0.5,1.5,0.8,2.4,0.8c0.7,0,1.4-0.2,2-0.5l12.2-7c0.9-0.5,1.6-1.4,1.9-2.4
				c0.3-1,0.1-2.1-0.4-3l-3.4-5.9c-0.7-1.2-1.9-1.9-3.2-2l1-4.5c0.4-1.5-0.2-3.2-1.5-4.1l-5-3.7
				C366.6,1660.3,365.8,1660.1,364.9,1660.1L364.9,1660.1z"/>
		</g>
	</g>
	<g>
		<g>
			<path class="st1" d="M368.2,618.4c5,0,9,4.1,9,9.1v34.2c0,5-4.1,9.1-9,9.1h-15.4c-5,0-9.1-4.1-9.1-9.1v-34.2c0-5,4.1-9.1,9.1-9.1
				H368.2 M368.2,614.4h-15.4c-7.2,0-13.1,5.9-13.1,13.1v34.2c0,7.2,5.9,13.1,13.1,13.1h15.4c7.2,0,13-5.9,13-13.1v-34.2
				C381.3,620.2,375.4,614.4,368.2,614.4L368.2,614.4z"/>
		</g>
	</g>
	<g>
		<g>
			<path class="st1" d="M351.9,1678.6l4.6,4.2l-2.4,7.6l2.5-1.1l2.7,6.3l-9.4,4.1l-4.6-4.2l2.5-7.7l-2.5,1.1l-2.7-6.3L351.9,1678.6
				 M351.9,1674.6c-0.5,0-1.1,0.1-1.6,0.3l-9.4,4.1c-1,0.4-1.7,1.2-2.1,2.2c-0.4,1-0.4,2.1,0.1,3.1l2.7,6.3c0.2,0.4,0.4,0.8,0.7,1.1
				l-0.8,2.6c-0.5,1.5,0,3.2,1.1,4.2l4.6,4.2c0.7,0.7,1.7,1,2.7,1c0.5,0,1.1-0.1,1.6-0.3l9.4-4.1c1-0.4,1.7-1.2,2.1-2.2
				s0.4-2.1-0.1-3.1l-2.7-6.3c-0.2-0.4-0.4-0.8-0.8-1.1l0.8-2.6c0.5-1.5,0-3.1-1.1-4.2l-4.6-4.2
				C353.8,1675,352.8,1674.6,351.9,1674.6L351.9,1674.6z"/>
		</g>
	</g>
	<g>
		<g>
			<path class="st1" d="M365.5,948.2c4,0,7.2,3.2,7.2,7.2v19c0,4-3.2,7.2-7.2,7.2h-19c-4,0-7.2-3.2-7.2-7.2v-19c0-4,3.2-7.2,7.2-7.2
				H365.5 M365.5,944.2h-19c-6.2,0-11.2,5-11.2,11.2v19c0,6.2,5,11.2,11.2,11.2h19c6.2,0,11.2-5,11.2-11.2v-19
				C376.7,949.3,371.7,944.2,365.5,944.2L365.5,944.2z"/>
		</g>
	</g>
	<g>
		<g>
			<path class="st1" d="M710.3,1611.8c3.1,0,5.6,2.5,5.6,5.6v8.8c0,3.1-2.5,5.6-5.6,5.6h-22.3c-3.1,0-5.6-2.5-5.6-5.6v-8.8
				c0-3.1,2.5-5.6,5.6-5.6H710.3 M710.3,1607.8h-22.3c-5.3,0-9.6,4.3-9.6,9.6v8.8c0,5.3,4.3,9.6,9.6,9.6h22.3c5.3,0,9.6-4.3,9.6-9.6
				v-8.8C719.9,1612.1,715.6,1607.8,710.3,1607.8L710.3,1607.8z"/>
		</g>
	</g>
	<g>
		<g>
			<path class="st1" d="M276.3,618.4c5,0,9,4.1,9,9.1v34.2c0,5-4.1,9.1-9,9.1H261c-5,0-9.1-4.1-9.1-9.1v-34.2c0-5,4.1-9.1,9.1-9.1
				H276.3 M276.3,614.4H261c-7.2,0-13.1,5.9-13.1,13.1v34.2c0,7.2,5.9,13.1,13.1,13.1h15.4c7.2,0,13-5.9,13-13.1v-34.2
				C289.4,620.2,283.5,614.4,276.3,614.4L276.3,614.4z"/>
		</g>
	</g>
	<g>
		<g>
			<path class="st1" d="M698.4,1574.1c15.1,0,27.7,7.3,30.5,17h-7.4c-3-5.4-11.7-10.2-23.1-10.2c-11.4,0-20.1,4.8-23.1,10.2h-7.4
				C670.7,1581.4,683.3,1574.1,698.4,1574.1 M698.4,1570.1c-16.9,0-31,8.2-34.3,19.9c-0.3,1.2-0.1,2.5,0.7,3.5
				c0.8,1,1.9,1.6,3.2,1.6h7.4c1.4,0,2.8-0.8,3.5-2c2.3-4.1,9.8-8.2,19.7-8.2c9.9,0,17.4,4.1,19.6,8.1c0.7,1.3,2,2.1,3.5,2.1h7.4
				c1.3,0,2.4-0.6,3.2-1.6c0.8-1,1-2.3,0.7-3.5C729.4,1578.3,715.3,1570.1,698.4,1570.1L698.4,1570.1z"/>
		</g>
	</g>
	<g>
		<g>
			<path class="st1" d="M621,1306.8c4,0,7.2,3.2,7.2,7.2v12.5c0,4-3.2,7.2-7.2,7.2h-19c-4,0-7.2-3.2-7.2-7.2V1314
				c0-4,3.2-7.2,7.2-7.2H621 M621,1302.8h-19c-6.2,0-11.2,5-11.2,11.2v12.5c0,6.2,5,11.2,11.2,11.2h19c6.2,0,11.2-5,11.2-11.2V1314
				C632.3,1307.8,627.2,1302.8,621,1302.8L621,1302.8z"/>
		</g>
	</g>
	<g>
		<g>
			<path class="st1" d="M591.4,1254.2l50.7,28.5l-4.7,9.1l-50.7-28.5L591.4,1254.2 M591.4,1250.2c-0.4,0-0.8,0.1-1.1,0.2
				c-1,0.3-1.9,1-2.4,2l-4.7,9.1c-1,1.9-0.3,4.3,1.6,5.3l50.7,28.5c0.6,0.3,1.3,0.5,2,0.5c0.4,0,0.8-0.1,1.1-0.2c1-0.3,1.9-1,2.4-2
				l4.7-9.1c1-1.9,0.3-4.3-1.6-5.3l-50.7-28.5C592.7,1250.4,592,1250.2,591.4,1250.2L591.4,1250.2z"/>
		</g>
	</g>
	<g>
		<g>
			<path class="st1" d="M629.2,1611.8c3.1,0,5.6,2.5,5.6,5.6v8.8c0,3.1-2.5,5.6-5.6,5.6h-22.3c-3.1,0-5.6-2.5-5.6-5.6v-8.8
				c0-3.1,2.5-5.6,5.6-5.6H629.2 M629.2,1607.8h-22.3c-5.3,0-9.6,4.3-9.6,9.6v8.8c0,5.3,4.3,9.6,9.6,9.6h22.3c5.3,0,9.6-4.3,9.6-9.6
				v-8.8C638.8,1612.1,634.5,1607.8,629.2,1607.8L629.2,1607.8z"/>
		</g>
	</g>
	<g>
		<g>
			<path class="st1" d="M707.1,1679.2L707.1,1679.2 M707.1,1679.2c-6,18-26.2,31.2-50.3,31.2c-24.1,0-44.4-13.2-50.4-31.2H707.1
				 M707.2,1675.2L707.2,1675.2H606.4c-1.3,0-2.5,0.6-3.2,1.7c-0.8,1-1,2.4-0.6,3.6c6.6,20,28.9,34,54.2,34
				c25.2,0,47.4-13.9,54.1-33.8c0.2-0.4,0.3-0.9,0.3-1.4C711.2,1677,709.4,1675.2,707.2,1675.2L707.2,1675.2z M707.1,1683.2
				L707.1,1683.2L707.1,1683.2L707.1,1683.2z"/>
		</g>
	</g>
	<g>
		<g>
			<path class="st1" d="M365.5,298.1c4,0,7.2,3.2,7.2,7.2v19c0,4-3.2,7.2-7.2,7.2h-19c-4,0-7.2-3.2-7.2-7.2v-19c0-4,3.2-7.2,7.2-7.2
				H365.5 M365.5,294.1h-19c-6.2,0-11.2,5-11.2,11.2v19c0,6.2,5,11.2,11.2,11.2h19c6.2,0,11.2-5,11.2-11.2v-19
				C376.7,299.2,371.7,294.1,365.5,294.1L365.5,294.1z"/>
		</g>
	</g>
	<g>
		<g>
			<path class="st1" d="M380.1,708.6L380.1,708.6 M380.1,708.6c-7.7,27.8-33.8,48.2-65,48.2c-31.1,0-57.3-20.5-65-48.2H380.1
				 M380.1,704.6L380.1,704.6h-130c-1.2,0-2.4,0.6-3.2,1.6c-0.8,1-1,2.3-0.7,3.5c8.3,30.1,36.6,51.2,68.8,51.2
				c32.2,0,60.4-21,68.8-51c0.1-0.4,0.2-0.8,0.2-1.2C384.1,706.4,382.3,704.6,380.1,704.6L380.1,704.6z M380.1,712.6L380.1,712.6
				L380.1,712.6L380.1,712.6z"/>
		</g>
	</g>
	<g>
		<g>
			<path class="st1" d="M1047.2,719.6c9.3,0,15.3,7.6,17.4,12l-9.3,4.4c0,0-3-6.2-8.1-6.2c-4.3,0-5.5,1.3-7.8,3.7
				c-2.8,3-6.6,7-15.5,7c-8.7,0-12.5-3.9-15.3-6.8c-2.3-2.4-3.7-3.9-8.7-3.9c-4.9,0-6.2,1.4-8.5,3.8c-2.7,2.9-6.4,6.8-15.2,6.8
				c-9.1,0-12.7-4.2-15.4-7.2c-2-2.3-2.9-3.4-6.6-3.4c-7.6,0-9.2,5.5-9.5,6.6l-10-2.1c1-5.1,6.4-14.7,19.5-14.7
				c8.4,0,11.8,4,14.3,6.9c2.1,2.4,3.2,3.7,7.6,3.7c4.4,0,5.6-1.3,7.8-3.6c2.8-3,6.6-7,15.9-7c9.3,0,13.2,4.1,16,7
				c2.3,2.4,3.5,3.7,7.9,3.7c4.5,0,5.8-1.4,8.1-3.8C1034.8,723.6,1038.5,719.6,1047.2,719.6 M1047.2,715.6
				c-10.4,0-15.2,5.1-18.1,8.1l0,0l-0.1,0.1c-2,2.2-2.3,2.5-5.1,2.5c-2.7,0-3-0.3-5-2.4l-0.1-0.1c-3-3-7.9-8.1-18.8-8.1
				c-11,0-15.9,5.2-18.8,8.3l0,0l0,0c-1.9,2-2.2,2.3-4.8,2.3c-2.6,0-2.7-0.2-4.6-2.3l0-0.1c-2.7-3.1-7.2-8.3-17.3-8.3
				c-15.7,0-22.2,11.7-23.4,17.9c-0.4,2.2,1,4.3,3.1,4.7l10,2.1c0.3,0.1,0.5,0.1,0.8,0.1c1.8,0,3.4-1.2,3.9-3
				c0.4-1.6,1.7-3.6,5.6-3.6c1.9,0,1.9,0,3.6,2c2.8,3.2,7.4,8.7,18.4,8.7c10.5,0,15.3-5,18.1-8.1l0,0c2-2.1,2.4-2.6,5.6-2.6
				c3.3,0,3.7,0.5,5.8,2.6c2.9,3,7.7,8,18.2,8c10.7,0,15.5-5.1,18.4-8.2c2.1-2.1,2.3-2.4,4.9-2.4c1.9,0,3.8,2.5,4.6,4
				c0.1,0.2,0.3,0.6,0.8,1c0.8,0.7,1.8,1.1,2.8,1.1c0.6,0,1.2-0.1,1.7-0.4l9.3-4.4c1-0.5,1.7-1.3,2.1-2.3s0.3-2.1-0.1-3.1
				C1065.7,724.6,1058.5,715.6,1047.2,715.6L1047.2,715.6z"/>
		</g>
	</g>
	<g>
		<g>
			<path class="st1" d="M284.4,298.1c4,0,7.2,3.2,7.2,7.2v19c0,4-3.2,7.2-7.2,7.2h-19c-4,0-7.2-3.2-7.2-7.2v-19c0-4,3.2-7.2,7.2-7.2
				H284.4 M284.4,294.1h-19c-6.2,0-11.2,5-11.2,11.2v19c0,6.2,5,11.2,11.2,11.2h19c6.2,0,11.2-5,11.2-11.2v-19
				C295.6,299.2,290.6,294.1,284.4,294.1L284.4,294.1z"/>
		</g>
	</g>
	<g>
		<g>
			<path class="st1" d="M615.2,1574.1c15.1,0,27.7,7.3,30.5,17h-7.4c-3-5.4-11.7-10.2-23.1-10.2c-11.4,0-20.1,4.8-23.1,10.2h-7.4
				C587.4,1581.4,600.1,1574.1,615.2,1574.1 M615.2,1570.1c-16.9,0-31,8.2-34.3,19.9c-0.3,1.2-0.1,2.5,0.7,3.5
				c0.8,1,1.9,1.6,3.2,1.6h7.4c1.4,0,2.8-0.8,3.5-2c2.3-4.1,9.7-8.2,19.7-8.2c9.9,0,17.4,4.1,19.6,8.1c0.7,1.3,2,2.1,3.5,2.1h7.4
				c1.3,0,2.4-0.6,3.2-1.6c0.8-1,1-2.3,0.7-3.5C646.2,1578.3,632,1570.1,615.2,1570.1L615.2,1570.1z"/>
		</g>
	</g>
	<g>
		<g>
			<path class="st1" d="M365.5,1273.3c4,0,7.2,3.2,7.2,7.2v19c0,4-3.2,7.2-7.2,7.2h-19c-4,0-7.2-3.2-7.2-7.2v-19
				c0-4,3.2-7.2,7.2-7.2H365.5 M365.5,1269.3h-19c-6.2,0-11.2,5-11.2,11.2v19c0,6.2,5,11.2,11.2,11.2h19c6.2,0,11.2-5,11.2-11.2v-19
				C376.7,1274.3,371.7,1269.3,365.5,1269.3L365.5,1269.3z"/>
		</g>
	</g>
	<g>
		<g>
			<path class="st1" d="M1404.2,720.7L1404.2,720.7 M1404.2,720.7c-5.5,19.4-30.7,34-61,34s-55.5-14.7-61-34h14.7
				c6,10.8,23.3,20.4,46.3,20.4c22.9,0,40.3-9.6,46.2-20.4H1404.2 M1404.2,716.7L1404.2,716.7h-14.7c-1.5,0-2.8,0.8-3.5,2.1
				c-4.9,8.8-20.3,18.4-42.7,18.4c-22.4,0-37.8-9.5-42.8-18.4c-0.7-1.3-2-2.1-3.5-2.1h-14.7c-1.3,0-2.4,0.6-3.2,1.6
				c-0.8,1-1,2.3-0.7,3.5c6.1,21.4,33.4,36.9,64.8,36.9c31.4,0,58.6-15.5,64.8-36.8c0.1-0.4,0.2-0.8,0.2-1.3
				C1408.2,718.5,1406.4,716.7,1404.2,716.7L1404.2,716.7z M1404.2,724.7L1404.2,724.7L1404.2,724.7L1404.2,724.7z"/>
		</g>
	</g>
	<g>
		<g>
			<path class="st1" d="M1289.5,614.5l33.1,33.1l-33.7,25.1l-6.1-8.2l24.2-18l-24.7-24.7L1289.5,614.5 M1289.5,610.5
				c-1,0-2,0.4-2.8,1.2l-7.2,7.2c-0.8,0.8-1.2,1.8-1.2,2.8c0,1.1,0.4,2.1,1.2,2.8l21.5,21.5l-20.5,15.3c-1.8,1.3-2.1,3.8-0.8,5.6
				l6.1,8.2c0.6,0.9,1.6,1.4,2.6,1.6c0.2,0,0.4,0,0.6,0c0.9,0,1.7-0.3,2.4-0.8l33.7-25.1c0.9-0.7,1.5-1.8,1.6-2.9
				c0.1-1.2-0.3-2.3-1.2-3.1l-33.1-33.1C1291.6,610.9,1290.5,610.5,1289.5,610.5L1289.5,610.5z"/>
		</g>
	</g>
	<g>
		<g>
			<path class="st1" d="M1657.2,948.2c4,0,7.2,3.2,7.2,7.2v19c0,4-3.2,7.2-7.2,7.2h-19c-4,0-7.2-3.2-7.2-7.2v-19
				c0-4,3.2-7.2,7.2-7.2H1657.2 M1657.2,944.2h-19c-6.2,0-11.2,5-11.2,11.2v19c0,6.2,5,11.2,11.2,11.2h19c6.2,0,11.2-5,11.2-11.2
				v-19C1668.4,949.3,1663.4,944.2,1657.2,944.2L1657.2,944.2z"/>
		</g>
	</g>
	<g>
		<g>
			<path class="st1" d="M1367.5,373.7c10,0,18.1,8.1,18.1,18.1v26c0,10-8.1,18.1-18.1,18.1h-44.8c-10,0-18.1-8.1-18.1-18.1v-26
				c0-10,8.1-18.1,18.1-18.1H1367.5 M1367.5,369.7h-44.8c-12.2,0-22.1,9.9-22.1,22.1v26c0,12.2,9.9,22.1,22.1,22.1h44.8
				c12.2,0,22.1-9.9,22.1-22.1v-26C1389.6,379.7,1379.7,369.7,1367.5,369.7L1367.5,369.7z"/>
		</g>
	</g>
	<g>
		<g>
			<path class="st1" d="M1314,293.1c4,0,7.2,3.2,7.2,7.2v26.2c0,4-3.2,7.2-7.2,7.2h-19c-4,0-7.2-3.2-7.2-7.2v-26.2
				c0-4,3.2-7.2,7.2-7.2H1314 M1314,289.1h-19c-6.2,0-11.2,5-11.2,11.2v26.2c0,6.2,5,11.2,11.2,11.2h19c6.2,0,11.2-5,11.2-11.2
				v-26.2C1325.2,294.2,1320.2,289.1,1314,289.1L1314,289.1z"/>
		</g>
	</g>
	<g>
		<g>
			<path class="st1" d="M1404.2,1024.3L1404.2,1024.3 M1404.2,1024.3c-5.5,19.4-30.7,34-61,34c-7.7,0-15.1-1-22-2.7l-12.8,22.3
				c-1.5,2.6-4.2,4.1-7,4.1c-1.4,0-2.8-0.4-4-1.1l-13.4-7.8c-3.8-2.2-5.2-7.2-3-11l12.1-21c-5.3-4.9-9.1-10.6-10.9-16.8h14.7
				c6,10.8,23.3,20.4,46.3,20.4c22.9,0,40.3-9.6,46.2-20.4H1404.2 M1404.2,1020.3L1404.2,1020.3h-14.7c-1.5,0-2.8,0.8-3.5,2.1
				c-4.9,8.8-20.3,18.4-42.7,18.4c-22.4,0-37.8-9.5-42.8-18.4c-0.7-1.3-2-2.1-3.5-2.1h-14.7c-1.3,0-2.4,0.6-3.2,1.6s-1,2.3-0.6,3.5
				c1.7,5.8,5,11.4,9.7,16.4l-10.6,18.3c-3.3,5.7-1.3,13.1,4.4,16.5l13.5,7.8c1.8,1.1,3.9,1.6,6,1.6c4.3,0,8.3-2.3,10.5-6l11.3-19.7
				c6.4,1.4,13.1,2.1,20,2.1c31.4,0,58.6-15.5,64.8-36.8c0.1-0.4,0.2-0.8,0.2-1.3C1408.2,1022.1,1406.4,1020.3,1404.2,1020.3
				L1404.2,1020.3z M1404.2,1028.3L1404.2,1028.3L1404.2,1028.3L1404.2,1028.3z"/>
		</g>
	</g>
	<g>
		<g>
			<path class="st1" d="M1314,948.2c4,0,7.2,3.2,7.2,7.2v19c0,4-3.2,7.2-7.2,7.2h-19c-4,0-7.2-3.2-7.2-7.2v-19c0-4,3.2-7.2,7.2-7.2
				H1314 M1314,944.2h-19c-6.2,0-11.2,5-11.2,11.2v19c0,6.2,5,11.2,11.2,11.2h19c6.2,0,11.2-5,11.2-11.2v-19
				C1325.2,949.3,1320.2,944.2,1314,944.2L1314,944.2z"/>
		</g>
	</g>
	<g>
		<g>
			<path class="st1" d="M1707.6,1015.9l9.2,9.2l-20.6,20.7l20.6,20.6l-9.2,9.2l-20.6-20.6l-20.7,20.6l-9.2-9.2l20.7-20.6l-20.7-20.7
				l9.2-9.2l20.7,20.7L1707.6,1015.9 M1707.6,1011.9C1707.6,1011.9,1707.6,1011.9,1707.6,1011.9c-1.1,0-2.1,0.4-2.8,1.2l-17.8,17.9
				l-17.8-17.9c-0.8-0.8-1.8-1.2-2.8-1.2c0,0,0,0,0,0c-1.1,0-2.1,0.4-2.8,1.2l-9.2,9.2c-0.8,0.8-1.2,1.8-1.2,2.8
				c0,1.1,0.4,2.1,1.2,2.8l17.9,17.8l-17.9,17.8c-0.8,0.8-1.2,1.8-1.2,2.8c0,1.1,0.4,2.1,1.2,2.8l9.2,9.2c0.8,0.8,1.8,1.2,2.8,1.2
				c1,0,2-0.4,2.8-1.2l17.8-17.8l17.8,17.8c0.8,0.8,1.8,1.2,2.8,1.2c1,0,2-0.4,2.8-1.2l9.2-9.2c0.8-0.7,1.2-1.8,1.2-2.8
				s-0.4-2.1-1.2-2.8l-17.8-17.8l17.8-17.8c1.6-1.6,1.6-4.1,0-5.7l-9.2-9.2C1709.6,1012.3,1708.6,1011.9,1707.6,1011.9
				L1707.6,1011.9z"/>
		</g>
	</g>
	<g>
		<g>
			<path class="st1" d="M1396.9,614.5l7.2,7.2l-24.7,24.7l24.2,18l-6.1,8.2l-33.7-25.1L1396.9,614.5 M1396.9,610.5
				c-1,0-2,0.4-2.8,1.2l-33.1,33.1c-0.8,0.8-1.2,2-1.2,3.1c0.1,1.2,0.7,2.2,1.6,2.9l33.7,25.1c0.7,0.5,1.5,0.8,2.4,0.8
				c0.2,0,0.4,0,0.6,0c1.1-0.2,2-0.7,2.6-1.6l6.1-8.2c1.3-1.8,0.9-4.3-0.8-5.6l-20.5-15.3l21.5-21.5c0.8-0.8,1.2-1.8,1.2-2.8
				c0-1.1-0.4-2.1-1.2-2.8l-7.2-7.2C1398.9,610.9,1397.9,610.5,1396.9,610.5L1396.9,610.5z"/>
		</g>
	</g>
	<g>
		<g>
			<path class="st1" d="M1737.3,1602.6c2.5,0,5.1,1,6.9,3.1l10,11.1c3.4,3.8,3.1,9.7-0.7,13.1l-26.9,24.3c-1.8,1.6-4,2.4-6.2,2.4
				c-2.5,0-5-1-6.9-3.1l-10-11.1c-3.4-3.8-3.1-9.6,0.7-13.1l26.9-24.3C1732.8,1603.4,1735,1602.6,1737.3,1602.6 M1737.3,1598.6
				c-3.3,0-6.4,1.2-8.9,3.4l-26.9,24.3c-5.4,4.9-5.8,13.3-1,18.7l10.1,11.1c2.5,2.8,6.1,4.4,9.8,4.4c3.3,0,6.4-1.2,8.9-3.4
				l26.9-24.3c2.6-2.3,4.2-5.6,4.4-9.1c0.2-3.5-1-7-3.4-9.6l-10-11.1C1744.6,1600.2,1741,1598.6,1737.3,1598.6L1737.3,1598.6z"/>
		</g>
	</g>
	<g>
		<g>
			<path class="st1" d="M1743.6,1266.6l7.2,7.2l-16.2,16.2l16.2,16.2l-7.2,7.2l-16.2-16.2l-16.2,16.2l-7.2-7.2l16.2-16.2l-16.2-16.2
				l7.2-7.2l16.2,16.2L1743.6,1266.6 M1743.6,1262.6c-1,0-2,0.4-2.8,1.2l-13.3,13.3l-13.3-13.3c-0.8-0.8-1.8-1.2-2.8-1.2
				s-2,0.4-2.8,1.2l-7.2,7.2c-1.6,1.6-1.6,4.1,0,5.7l13.3,13.4l-13.3,13.3c-0.8,0.8-1.2,1.8-1.2,2.8c0,1.1,0.4,2.1,1.2,2.8l7.2,7.2
				c0.8,0.8,1.8,1.2,2.8,1.2c1,0,2-0.4,2.8-1.2l13.3-13.3l13.3,13.3c0.8,0.8,1.8,1.2,2.8,1.2s2-0.4,2.8-1.2l7.2-7.2
				c0.8-0.8,1.2-1.8,1.2-2.8c0-1.1-0.4-2.1-1.2-2.8l-13.3-13.3l13.3-13.4c1.6-1.6,1.6-4.1,0-5.7l-7.2-7.2
				C1745.6,1263,1744.6,1262.6,1743.6,1262.6L1743.6,1262.6z"/>
		</g>
	</g>
	<g>
		<g>
			<path class="st1" d="M1661.6,1266.6l7.2,7.2l-16.2,16.2l16.2,16.2l-7.2,7.2l-16.2-16.2l-16.2,16.2l-7.2-7.2l16.2-16.2l-16.2-16.2
				l7.2-7.2l16.2,16.2L1661.6,1266.6 M1661.6,1262.6C1661.6,1262.6,1661.6,1262.6,1661.6,1262.6c-1.1,0-2.1,0.4-2.8,1.2l-13.3,13.4
				l-13.4-13.4c-0.8-0.8-1.8-1.2-2.8-1.2c-1.1,0-2.1,0.4-2.8,1.2l-7.2,7.2c-1.6,1.6-1.6,4.1,0,5.7l13.4,13.4l-13.4,13.3
				c-0.8,0.7-1.2,1.8-1.2,2.8c0,1.1,0.4,2.1,1.2,2.8l7.2,7.2c0.8,0.8,1.8,1.2,2.8,1.2c1,0,2-0.4,2.8-1.2l13.4-13.3l13.3,13.3
				c0.8,0.8,1.8,1.2,2.8,1.2s2-0.4,2.8-1.2l7.2-7.2c0.8-0.8,1.2-1.8,1.2-2.8c0-1.1-0.4-2.1-1.2-2.8l-13.3-13.3l13.3-13.4
				c1.6-1.6,1.6-4.1,0-5.7l-7.2-7.2C1663.7,1263,1662.7,1262.6,1661.6,1262.6L1661.6,1262.6z"/>
		</g>
	</g>
	<g>
		<g>
			<path class="st1" d="M1657.2,298.1c4,0,7.2,3.2,7.2,7.2v19c0,4-3.2,7.2-7.2,7.2h-19c-4,0-7.2-3.2-7.2-7.2v-19
				c0-4,3.2-7.2,7.2-7.2H1657.2 M1657.2,294.1h-19c-6.2,0-11.2,5-11.2,11.2v19c0,6.2,5,11.2,11.2,11.2h19c6.2,0,11.2-5,11.2-11.2
				v-19C1668.4,299.2,1663.4,294.1,1657.2,294.1L1657.2,294.1z"/>
		</g>
	</g>
	<g>
		<g>
			<path class="st1" d="M1730.3,1686.5L1730.3,1686.5 M1730.3,1686.5c-4,14-22.1,24.5-43.9,24.5c-21.8,0-39.9-10.6-43.9-24.5h10.6
				c4.3,7.8,16.8,14.7,33.3,14.7c16.5,0,29-6.9,33.3-14.7H1730.3 M1730.3,1682.5L1730.3,1682.5h-10.6c-1.5,0-2.8,0.8-3.5,2.1
				c-3.4,6.1-14.2,12.7-29.8,12.7c-15.7,0-26.4-6.6-29.8-12.7c-0.7-1.3-2-2.1-3.5-2.1h-10.6c-1.3,0-2.4,0.6-3.2,1.6s-1,2.3-0.7,3.5
				c2.2,7.8,8.3,14.9,17.2,19.9c8.6,4.9,19.5,7.5,30.6,7.5c11.1,0,22-2.7,30.6-7.5c8.8-5,14.8-11.9,17.1-19.7
				c0.1-0.4,0.2-0.8,0.2-1.3C1734.3,1684.3,1732.5,1682.5,1730.3,1682.5L1730.3,1682.5z M1730.3,1690.5L1730.3,1690.5L1730.3,1690.5
				L1730.3,1690.5z"/>
		</g>
	</g>
	<g>
		<g>
			<path class="st1" d="M1395.1,293.1c4,0,7.2,3.2,7.2,7.2v26.2c0,4-3.2,7.2-7.2,7.2h-19c-4,0-7.2-3.2-7.2-7.2v-26.2
				c0-4,3.2-7.2,7.2-7.2H1395.1 M1395.1,289.1h-19c-6.2,0-11.2,5-11.2,11.2v26.2c0,6.2,5,11.2,11.2,11.2h19c6.2,0,11.2-5,11.2-11.2
				v-26.2C1406.3,294.2,1401.3,289.1,1395.1,289.1L1395.1,289.1z"/>
		</g>
	</g>
	<g>
		<g>
			<path class="st1" d="M1633.9,1602.6c2.2,0,4.4,0.8,6.2,2.4l26.9,24.3c3.8,3.4,4.1,9.3,0.7,13.1l-10,11.1c-1.8,2-4.3,3.1-6.9,3.1
				c-2.2,0-4.4-0.8-6.2-2.4l-26.9-24.3c-3.8-3.4-4.1-9.3-0.7-13.1l10-11.1C1628.8,1603.6,1631.4,1602.6,1633.9,1602.6
				 M1633.9,1598.6c-3.7,0-7.3,1.6-9.9,4.4l-10,11.1c-2.4,2.6-3.6,6.1-3.4,9.6c0.2,3.5,1.7,6.8,4.4,9.1l26.9,24.3
				c2.4,2.2,5.6,3.4,8.9,3.4c3.8,0,7.3-1.6,9.8-4.4l10-11.1c4.9-5.4,4.4-13.8-1-18.7l-26.9-24.3
				C1640.3,1599.8,1637.2,1598.6,1633.9,1598.6L1633.9,1598.6z"/>
		</g>
	</g>
	<g>
		<g>
			<path class="st1" d="M1738.3,298.1c4,0,7.2,3.2,7.2,7.2v19c0,4-3.2,7.2-7.2,7.2h-19c-4,0-7.2-3.2-7.2-7.2v-19
				c0-4,3.2-7.2,7.2-7.2H1738.3 M1738.3,294.1h-19c-6.2,0-11.2,5-11.2,11.2v19c0,6.2,5,11.2,11.2,11.2h19c6.2,0,11.2-5,11.2-11.2
				v-19C1749.5,299.2,1744.5,294.1,1738.3,294.1L1738.3,294.1z"/>
		</g>
	</g>
	<g>
		<g>
			<path class="st1" d="M1042.4,276.6c15.1,0,27.7,7.3,30.5,17h-7.4c-3-5.4-11.7-10.2-23.1-10.2c-11.4,0-20.1,4.8-23.1,10.2h-7.4
				C1014.7,283.9,1027.3,276.6,1042.4,276.6 M1042.4,272.6c-16.9,0-31,8.2-34.3,19.9c-0.3,1.2-0.1,2.5,0.7,3.5
				c0.8,1,1.9,1.6,3.2,1.6h7.4c1.5,0,2.8-0.8,3.5-2.1c2.2-4,9.7-8.1,19.6-8.1c9.9,0,17.4,4.1,19.6,8.1c0.7,1.3,2,2.1,3.5,2.1h7.4
				c1.3,0,2.4-0.6,3.2-1.6c0.8-1,1-2.3,0.7-3.5C1073.4,280.8,1059.3,272.6,1042.4,272.6L1042.4,272.6z"/>
		</g>
	</g>
	<g>
		<g>
			<path class="st1" d="M1051.9,309.8c4,0,7.2,3.2,7.2,7.2v30.6c0,4-3.2,7.2-7.2,7.2h-19c-4,0-7.2-3.2-7.2-7.2V317
				c0-4,3.2-7.2,7.2-7.2H1051.9 M1051.9,305.8h-19c-6.2,0-11.2,5-11.2,11.2v30.6c0,6.2,5,11.2,11.2,11.2h19c6.2,0,11.2-5,11.2-11.2
				V317C1063.2,310.8,1058.1,305.8,1051.9,305.8L1051.9,305.8z"/>
		</g>
	</g>
	<g>
		<g>
			<path class="st1" d="M1738.3,948.2c4,0,7.2,3.2,7.2,7.2v19c0,4-3.2,7.2-7.2,7.2h-19c-4,0-7.2-3.2-7.2-7.2v-19
				c0-4,3.2-7.2,7.2-7.2H1738.3 M1738.3,944.2h-19c-6.2,0-11.2,5-11.2,11.2v19c0,6.2,5,11.2,11.2,11.2h19c6.2,0,11.2-5,11.2-11.2
				v-19C1749.5,949.3,1744.5,944.2,1738.3,944.2L1738.3,944.2z"/>
		</g>
	</g>
	<g>
		<g>
			<path class="st1" d="M1314,1598.3c4,0,7.2,3.2,7.2,7.2v19c0,4-3.2,7.2-7.2,7.2h-19c-4,0-7.2-3.2-7.2-7.2v-19c0-4,3.2-7.2,7.2-7.2
				H1314 M1314,1594.3h-19c-6.2,0-11.2,5-11.2,11.2v19c0,6.2,5,11.2,11.2,11.2h19c6.2,0,11.2-5,11.2-11.2v-19
				C1325.2,1599.4,1320.2,1594.3,1314,1594.3L1314,1594.3z"/>
		</g>
	</g>
	<g>
		<g>
			<path class="st1" d="M970.8,309.8c4,0,7.2,3.2,7.2,7.2v30.6c0,4-3.2,7.2-7.2,7.2h-19c-4,0-7.2-3.2-7.2-7.2V317
				c0-4,3.2-7.2,7.2-7.2H970.8 M970.8,305.8h-19c-6.2,0-11.2,5-11.2,11.2v30.6c0,6.2,5,11.2,11.2,11.2h19c6.2,0,11.2-5,11.2-11.2
				V317C982,310.8,977,305.8,970.8,305.8L970.8,305.8z"/>
		</g>
	</g>
	<g>
		<g>
			<path class="st1" d="M998.2,386.3c30.2,0,55.4,14.7,60.9,34h-14.7c-6-10.8-23.3-20.4-46.2-20.4c-22.9,0-40.3,9.6-46.3,20.4h-14.7
				C942.7,401,968,386.3,998.2,386.3 M998.2,382.3c-15.2,0-30,3.6-41.7,10.3c-11.9,6.7-20.1,16.2-23.1,26.7
				c-0.3,1.2-0.1,2.5,0.7,3.5c0.8,1,1.9,1.6,3.2,1.6h14.7c1.4,0,2.8-0.8,3.5-2c4.9-8.8,20.4-18.4,42.8-18.4
				c22.3,0,37.8,9.5,42.7,18.4c0.7,1.3,2,2.1,3.5,2.1h14.7c1.3,0,2.4-0.6,3.2-1.6c0.8-1,1-2.3,0.7-3.5c-3-10.5-11.2-19.9-23.1-26.7
				C1028.2,385.9,1013.4,382.3,998.2,382.3L998.2,382.3z"/>
		</g>
	</g>
	<g>
		<g>
			<path class="st1" d="M959.2,276.6c15.1,0,27.7,7.3,30.5,17h-7.4c-3-5.4-11.7-10.2-23.1-10.2c-11.5,0-20.1,4.8-23.1,10.2h-7.4
				C931.4,283.9,944,276.6,959.2,276.6 M959.2,272.6c-16.9,0-31,8.2-34.3,19.9c-0.3,1.2-0.1,2.5,0.7,3.5c0.8,1,1.9,1.6,3.2,1.6h7.4
				c1.5,0,2.8-0.8,3.5-2.1c2.2-4,9.7-8.1,19.6-8.1c9.9,0,17.4,4.1,19.6,8.1c0.7,1.3,2,2.1,3.5,2.1h7.4c1.3,0,2.4-0.6,3.2-1.6
				c0.8-1,1-2.3,0.7-3.5C990.2,280.8,976.1,272.6,959.2,272.6L959.2,272.6z"/>
		</g>
	</g>
	<g>
		<g>
			<path class="st1" d="M1344.9,1679.2c19.3,0,35.3,10.4,38.2,24c0.5,2.3-1.3,4.6-3.6,4.6h-7c-7-5.3-16.8-8.5-27.6-8.5
				c-10.8,0-20.5,3.3-27.5,8.5h-7c-2.4,0-4.2-2.2-3.6-4.6C1309.7,1689.6,1325.6,1679.2,1344.9,1679.2 M1344.9,1675.2
				c-21,0-38.7,11.4-42.1,27.2c-0.5,2.3,0,4.7,1.5,6.5c1.5,1.9,3.7,2.9,6,2.9h7c0.9,0,1.7-0.3,2.4-0.8c6.6-5,15.6-7.7,25.1-7.7
				c9.6,0,18.5,2.7,25.2,7.7c0.7,0.5,1.5,0.8,2.4,0.8h7c2.4,0,4.6-1.1,6-2.9c1.5-1.9,2-4.2,1.5-6.5
				C1383.6,1686.6,1365.9,1675.2,1344.9,1675.2L1344.9,1675.2z"/>
		</g>
	</g>
	<g>
		<g>
			<path class="st1" d="M1395.1,948.2c4,0,7.2,3.2,7.2,7.2v19c0,4-3.2,7.2-7.2,7.2h-19c-4,0-7.2-3.2-7.2-7.2v-19
				c0-4,3.2-7.2,7.2-7.2H1395.1 M1395.1,944.2h-19c-6.2,0-11.2,5-11.2,11.2v19c0,6.2,5,11.2,11.2,11.2h19c6.2,0,11.2-5,11.2-11.2
				v-19C1406.3,949.3,1401.3,944.2,1395.1,944.2L1395.1,944.2z"/>
		</g>
	</g>
	<g>
		<g>
			<path class="st1" d="M1419.1,1272.1c1.9,0,3.4,1.5,3.4,3.4v6.8c0,1.9-1.5,3.4-3.4,3.4h-2.4c-1.3,0-2.4,1.1-2.4,2.4v31.7
				c0,7.4-6,13.3-13.3,13.3h-35c-7.4,0-13.3-6-13.3-13.3v-12.9c0-2.1-1.7-3.8-3.8-3.8h-10.8c-2.1,0-3.8,1.7-3.8,3.8v13
				c0,7.4-6,13.3-13.3,13.3h-35c-7.4,0-13.3-6-13.3-13.3v-31.8c0-1.3-1.1-2.4-2.4-2.4h-1.7c-1.9,0-3.4-1.5-3.4-3.4v-6.8
				c0-1.9,1.5-3.4,3.4-3.4H1419.1 M1419.1,1268.1h-150.6c-4.1,0-7.4,3.3-7.4,7.4v6.8c0,4.1,3.3,7.4,7.4,7.4h0.1v30.1
				c0,9.5,7.8,17.3,17.3,17.3h35c9.6,0,17.3-7.8,17.3-17.3V1307h10.4v12.8c0,9.5,7.8,17.3,17.3,17.3h35c9.5,0,17.3-7.8,17.3-17.3
				v-30.1h0.8c4.1,0,7.4-3.3,7.4-7.4v-6.8C1426.5,1271.4,1423.2,1268.1,1419.1,1268.1L1419.1,1268.1z"/>
		</g>
	</g>
	<g>
		<g>
			<path class="st1" d="M1686.4,1359.5c24.1,0,44.4,13.2,50.3,31.2h-100.7C1642,1372.8,1662.3,1359.5,1686.4,1359.5 M1686.4,1355.5
				c-25.3,0-47.5,14-54.1,34c-0.4,1.2-0.2,2.6,0.6,3.6c0.8,1,2,1.7,3.2,1.7h100.7c1.3,0,2.5-0.6,3.2-1.7c0.8-1,1-2.4,0.6-3.6
				C1734,1369.5,1711.7,1355.5,1686.4,1355.5L1686.4,1355.5z"/>
		</g>
	</g>
	<g>
		<g>
			<path class="st1" d="M1404.2,1361.2L1404.2,1361.2 M1404.2,1361.2c-5.5,19.4-30.7,34-61,34s-55.5-14.7-61-34h14.7
				c6,10.8,23.3,20.4,46.3,20.4c22.9,0,40.3-9.6,46.2-20.4H1404.2 M1404.2,1357.2L1404.2,1357.2h-14.7c-1.5,0-2.8,0.8-3.5,2.1
				c-4.9,8.8-20.3,18.4-42.7,18.4c-22.4,0-37.8-9.5-42.8-18.4c-0.7-1.3-2-2.1-3.5-2.1h-14.7c-1.3,0-2.4,0.6-3.2,1.6
				c-0.8,1-1,2.3-0.7,3.5c6.1,21.4,33.4,36.9,64.8,36.9c31.4,0,58.6-15.5,64.8-36.8c0.1-0.4,0.2-0.8,0.2-1.3
				C1408.2,1359,1406.4,1357.2,1404.2,1357.2L1404.2,1357.2z M1404.2,1365.2L1404.2,1365.2L1404.2,1365.2L1404.2,1365.2z"/>
		</g>
	</g>
	<g>
		<g>
			<path class="st1" d="M1395.1,1598.3c4,0,7.2,3.2,7.2,7.2v19c0,4-3.2,7.2-7.2,7.2h-19c-4,0-7.2-3.2-7.2-7.2v-19
				c0-4,3.2-7.2,7.2-7.2H1395.1 M1395.1,1594.3h-19c-6.2,0-11.2,5-11.2,11.2v19c0,6.2,5,11.2,11.2,11.2h19c6.2,0,11.2-5,11.2-11.2
				v-19C1406.3,1599.4,1401.3,1594.3,1395.1,1594.3L1395.1,1594.3z"/>
		</g>
	</g>
	<g>
		<g>
			<path class="st1" d="M1751.4,708.6L1751.4,708.6 M1751.4,708.6c-7.7,27.8-33.8,48.2-65,48.2c-31.1,0-57.3-20.5-65-48.2h28.5
				l5.7,29.5l6.5-29.5h50.2l5.7,29.5l6.5-29.5H1751.4 M1751.4,704.6L1751.4,704.6h-26.9c-1.9,0-3.5,1.3-3.9,3.1l-2.4,10.7l-2-10.5
				c-0.4-1.9-2-3.2-3.9-3.2h-50.2c-1.9,0-3.5,1.3-3.9,3.1l-2.3,10.6l-2-10.5c-0.4-1.9-2-3.2-3.9-3.2h-28.5c-1.2,0-2.4,0.6-3.2,1.6
				c-0.8,1-1,2.3-0.7,3.5c8.3,30.1,36.6,51.2,68.8,51.2c32.2,0,60.4-21,68.8-51c0.1-0.4,0.2-0.8,0.2-1.2
				C1755.4,706.4,1753.6,704.6,1751.4,704.6L1751.4,704.6z M1751.4,712.6L1751.4,712.6L1751.4,712.6L1751.4,712.6z"/>
		</g>
	</g>
	<g>
		<g>
			<path class="st1" d="M1751.5,623.4c0.3,0.5,0.5,1.1,0.8,1.7c5.6,13-1.7,28.7-16.2,34.9c-4.1,1.8-8.3,2.6-12.4,2.6
				c-8.7,0-16.8-3.8-21.5-10.4L1751.5,623.4 M1751.5,619.4c-0.7,0-1.4,0.2-2,0.5l-49.3,28.7c-1,0.6-1.7,1.5-1.9,2.6
				c-0.2,1.1,0,2.3,0.7,3.2c5.5,7.6,14.7,12.1,24.8,12.1c4.8,0,9.5-1,13.9-2.9c16.5-7.1,24.7-25.1,18.3-40.1
				c-0.3-0.7-0.6-1.3-0.9-1.9c-0.5-1-1.4-1.7-2.4-2C1752.3,619.5,1751.9,619.4,1751.5,619.4L1751.5,619.4z"/>
		</g>
	</g>
	<g>
		<g>
			<path class="st1" d="M1624.7,623.4l49.3,28.7c-4.8,6.6-12.9,10.4-21.5,10.4c-4.1,0-8.3-0.8-12.4-2.6
				c-14.5-6.2-21.8-21.9-16.2-34.9C1624.2,624.5,1624.4,623.9,1624.7,623.4 M1624.7,619.4c-0.4,0-0.8,0.1-1.1,0.2
				c-1.1,0.3-1.9,1.1-2.4,2l3.6,1.8l-3.6-1.8c-0.3,0.6-0.6,1.2-0.9,1.9c-6.4,15,1.8,33,18.3,40.1c4.5,1.9,9.2,2.9,13.9,2.9
				c10.1,0,19.3-4.5,24.8-12.1c0.7-0.9,0.9-2.1,0.7-3.2c-0.2-1.1-0.9-2.1-1.9-2.6l-49.3-28.7
				C1626.1,619.6,1625.4,619.4,1624.7,619.4L1624.7,619.4z"/>
		</g>
	</g>
</g>
</svg>
