<?xml version="1.0" encoding="utf-8"?>
<!-- Generator: Adobe Illustrator 22.1.0, SVG Export Plug-In . SVG Version: 6.00 Build 0)  -->
<svg version="1.1" xmlns="http://www.w3.org/2000/svg" xmlns:xlink="http://www.w3.org/1999/xlink" x="0px" y="0px"
	 viewBox="0 0 1000 2000" style="enable-background:new 0 0 1000 2000;" xml:space="preserve">
<style type="text/css">
	.st0{fill:#1B2638;}
	.st1{fill:#424953;}
	.st2{fill:#FFFFFF;}
	.st3{fill:none;stroke:#FFFFFF;stroke-width:4;stroke-miterlimit:10;}
	.st4{fill:none;stroke:#FFFFFF;stroke-width:4;stroke-linejoin:round;stroke-miterlimit:10;}
	.st5{fill:none;stroke:#FFFFFF;stroke-width:4;stroke-linecap:round;stroke-linejoin:round;stroke-miterlimit:10;}
</style>
<g id="Layer_3">
	<rect x="0.1" y="-5.5" class="st0" width="1000" height="2000"/>
</g>
<g id="Layer_4">
	<path class="st1" d="M265.6,242.4H115.2c-5.5,0-10-4.5-10-10V82c0-5.5,4.5-10,10-10h150.4c5.5,0,10,4.5,10,10v150.4
		C275.6,237.9,271.2,242.4,265.6,242.4z"/>
	<path class="st1" d="M576,242.4H425.6c-5.5,0-10-4.5-10-10V82c0-5.5,4.5-10,10-10H576c5.5,0,10,4.5,10,10v150.4
		C586,237.9,581.5,242.4,576,242.4z"/>
	<path class="st1" d="M886.3,242.4H735.9c-5.5,0-10-4.5-10-10V82c0-5.5,4.5-10,10-10h150.4c5.5,0,10,4.5,10,10v150.4
		C896.3,237.9,891.8,242.4,886.3,242.4z"/>
	<path class="st1" d="M265.6,510.1H115.2c-5.5,0-10-4.5-10-10V349.7c0-5.5,4.5-10,10-10h150.4c5.5,0,10,4.5,10,10v150.4
		C275.6,505.7,271.2,510.1,265.6,510.1z"/>
	<path class="st1" d="M576,510.1H425.6c-5.5,0-10-4.5-10-10V349.7c0-5.5,4.5-10,10-10H576c5.5,0,10,4.5,10,10v150.4
		C586,505.7,581.5,510.1,576,510.1z"/>
	<path class="st1" d="M886.3,510.1H735.9c-5.5,0-10-4.5-10-10V349.7c0-5.5,4.5-10,10-10h150.4c5.5,0,10,4.5,10,10v150.4
		C896.3,505.7,891.8,510.1,886.3,510.1z"/>
	<path class="st1" d="M576,1904.2H425.6c-5.5,0-10-4.5-10-10v-150.4c0-5.5,4.5-10,10-10H576c5.5,0,10,4.5,10,10v150.4
		C586,1899.7,581.5,1904.2,576,1904.2z"/>
	<path class="st1" d="M265.6,1608.8H115.2c-5.5,0-10-4.5-10-10v-150.4c0-5.5,4.5-10,10-10h150.4c5.5,0,10,4.5,10,10v150.4
		C275.6,1604.3,271.2,1608.8,265.6,1608.8z"/>
	<path class="st1" d="M886.3,1608.8H735.9c-5.5,0-10-4.5-10-10v-150.4c0-5.5,4.5-10,10-10h150.4c5.5,0,10,4.5,10,10v150.4
		C896.3,1604.3,891.8,1608.8,886.3,1608.8z"/>
	<path class="st1" d="M576,1608.8H425.6c-5.5,0-10-4.5-10-10v-150.4c0-5.5,4.5-10,10-10H576c5.5,0,10,4.5,10,10v150.4
		C586,1604.3,581.5,1608.8,576,1608.8z"/>
	<path class="st1" d="M265.6,1904.2H115.2c-5.5,0-10-4.5-10-10v-150.4c0-5.5,4.5-10,10-10h150.4c5.5,0,10,4.5,10,10v150.4
		C275.6,1899.7,271.2,1904.2,265.6,1904.2z"/>
	<path class="st1" d="M886.3,1904.2H735.9c-5.5,0-10-4.5-10-10v-150.4c0-5.5,4.5-10,10-10h150.4c5.5,0,10,4.5,10,10v150.4
		C896.3,1899.7,891.8,1904.2,886.3,1904.2z"/>
	<path class="st1" d="M265.6,1045.6H115.2c-5.5,0-10-4.5-10-10V885.2c0-5.5,4.5-10,10-10h150.4c5.5,0,10,4.5,10,10v150.4
		C275.6,1041.2,271.2,1045.6,265.6,1045.6z"/>
	<path class="st1" d="M576,1045.6H425.6c-5.5,0-10-4.5-10-10V885.2c0-5.5,4.5-10,10-10H576c5.5,0,10,4.5,10,10v150.4
		C586,1041.2,581.5,1045.6,576,1045.6z"/>
	<path class="st1" d="M265.6,1313.4H115.2c-5.5,0-10-4.5-10-10V1153c0-5.5,4.5-10,10-10h150.4c5.5,0,10,4.5,10,10v150.4
		C275.6,1308.9,271.2,1313.4,265.6,1313.4z"/>
	<path class="st1" d="M576,1313.4H425.6c-5.5,0-10-4.5-10-10V1153c0-5.5,4.5-10,10-10H576c5.5,0,10,4.5,10,10v150.4
		C586,1308.9,581.5,1313.4,576,1313.4z"/>
	<path class="st1" d="M886.3,1313.4H735.9c-5.5,0-10-4.5-10-10V1153c0-5.5,4.5-10,10-10h150.4c5.5,0,10,4.5,10,10v150.4
		C896.3,1308.9,891.8,1313.4,886.3,1313.4z"/>
	<path class="st1" d="M265.6,777.9H115.2c-5.5,0-10-4.5-10-10V617.5c0-5.5,4.5-10,10-10h150.4c5.5,0,10,4.5,10,10v150.4
		C275.6,773.4,271.2,777.9,265.6,777.9z"/>
	<path class="st1" d="M576,777.9H425.6c-5.5,0-10-4.5-10-10V617.5c0-5.5,4.5-10,10-10H576c5.5,0,10,4.5,10,10v150.4
		C586,773.4,581.5,777.9,576,777.9z"/>
	<path class="st1" d="M886.3,1045.6H735.9c-5.5,0-10-4.5-10-10V885.2c0-5.5,4.5-10,10-10h150.4c5.5,0,10,4.5,10,10v150.4
		C896.3,1041.2,891.8,1045.6,886.3,1045.6z"/>
	<path class="st1" d="M886.3,777.9H735.9c-5.5,0-10-4.5-10-10V617.5c0-5.5,4.5-10,10-10h150.4c5.5,0,10,4.5,10,10v150.4
		C896.3,773.4,891.8,777.9,886.3,777.9z"/>
	<path class="st1" d="M265.6,242.4H115.2c-5.5,0-10-4.5-10-10V82c0-5.5,4.5-10,10-10h150.4c5.5,0,10,4.5,10,10v150.4
		C275.6,237.9,271.2,242.4,265.6,242.4z"/>
	<path class="st1" d="M576,242.4H425.6c-5.5,0-10-4.5-10-10V82c0-5.5,4.5-10,10-10H576c5.5,0,10,4.5,10,10v150.4
		C586,237.9,581.5,242.4,576,242.4z"/>
	<path class="st1" d="M886.3,242.4H735.9c-5.5,0-10-4.5-10-10V82c0-5.5,4.5-10,10-10h150.4c5.5,0,10,4.5,10,10v150.4
		C896.3,237.9,891.8,242.4,886.3,242.4z"/>
	<path class="st1" d="M265.6,510.1H115.2c-5.5,0-10-4.5-10-10V349.7c0-5.5,4.5-10,10-10h150.4c5.5,0,10,4.5,10,10v150.4
		C275.6,505.7,271.2,510.1,265.6,510.1z"/>
	<path class="st1" d="M576,510.1H425.6c-5.5,0-10-4.5-10-10V349.7c0-5.5,4.5-10,10-10H576c5.5,0,10,4.5,10,10v150.4
		C586,505.7,581.5,510.1,576,510.1z"/>
	<path class="st1" d="M886.3,510.1H735.9c-5.5,0-10-4.5-10-10V349.7c0-5.5,4.5-10,10-10h150.4c5.5,0,10,4.5,10,10v150.4
		C896.3,505.7,891.8,510.1,886.3,510.1z"/>
	<path class="st1" d="M576,1904.2H425.6c-5.5,0-10-4.5-10-10v-150.4c0-5.5,4.5-10,10-10H576c5.5,0,10,4.5,10,10v150.4
		C586,1899.7,581.5,1904.2,576,1904.2z"/>
	<path class="st1" d="M265.6,1608.8H115.2c-5.5,0-10-4.5-10-10v-150.4c0-5.5,4.5-10,10-10h150.4c5.5,0,10,4.5,10,10v150.4
		C275.6,1604.3,271.2,1608.8,265.6,1608.8z"/>
	<path class="st1" d="M886.3,1608.8H735.9c-5.5,0-10-4.5-10-10v-150.4c0-5.5,4.5-10,10-10h150.4c5.5,0,10,4.5,10,10v150.4
		C896.3,1604.3,891.8,1608.8,886.3,1608.8z"/>
	<path class="st1" d="M576,1608.8H425.6c-5.5,0-10-4.5-10-10v-150.4c0-5.5,4.5-10,10-10H576c5.5,0,10,4.5,10,10v150.4
		C586,1604.3,581.5,1608.8,576,1608.8z"/>
	<path class="st1" d="M265.6,1904.2H115.2c-5.5,0-10-4.5-10-10v-150.4c0-5.5,4.5-10,10-10h150.4c5.5,0,10,4.5,10,10v150.4
		C275.6,1899.7,271.2,1904.2,265.6,1904.2z"/>
	<path class="st1" d="M886.3,1904.2H735.9c-5.5,0-10-4.5-10-10v-150.4c0-5.5,4.5-10,10-10h150.4c5.5,0,10,4.5,10,10v150.4
		C896.3,1899.7,891.8,1904.2,886.3,1904.2z"/>
	<path class="st1" d="M265.6,1045.6H115.2c-5.5,0-10-4.5-10-10V885.2c0-5.5,4.5-10,10-10h150.4c5.5,0,10,4.5,10,10v150.4
		C275.6,1041.2,271.2,1045.6,265.6,1045.6z"/>
	<path class="st1" d="M576,1045.6H425.6c-5.5,0-10-4.5-10-10V885.2c0-5.5,4.5-10,10-10H576c5.5,0,10,4.5,10,10v150.4
		C586,1041.2,581.5,1045.6,576,1045.6z"/>
	<path class="st1" d="M265.6,1313.4H115.2c-5.5,0-10-4.5-10-10V1153c0-5.5,4.5-10,10-10h150.4c5.5,0,10,4.5,10,10v150.4
		C275.6,1308.9,271.2,1313.4,265.6,1313.4z"/>
	<path class="st1" d="M576,1313.4H425.6c-5.5,0-10-4.5-10-10V1153c0-5.5,4.5-10,10-10H576c5.5,0,10,4.5,10,10v150.4
		C586,1308.9,581.5,1313.4,576,1313.4z"/>
	<path class="st1" d="M886.3,1313.4H735.9c-5.5,0-10-4.5-10-10V1153c0-5.5,4.5-10,10-10h150.4c5.5,0,10,4.5,10,10v150.4
		C896.3,1308.9,891.8,1313.4,886.3,1313.4z"/>
	<path class="st1" d="M265.6,777.9H115.2c-5.5,0-10-4.5-10-10V617.5c0-5.5,4.5-10,10-10h150.4c5.5,0,10,4.5,10,10v150.4
		C275.6,773.4,271.2,777.9,265.6,777.9z"/>
	<path class="st1" d="M576,777.9H425.6c-5.5,0-10-4.5-10-10V617.5c0-5.5,4.5-10,10-10H576c5.5,0,10,4.5,10,10v150.4
		C586,773.4,581.5,777.9,576,777.9z"/>
	<path class="st1" d="M886.3,1045.6H735.9c-5.5,0-10-4.5-10-10V885.2c0-5.5,4.5-10,10-10h150.4c5.5,0,10,4.5,10,10v150.4
		C896.3,1041.2,891.8,1045.6,886.3,1045.6z"/>
	<path class="st1" d="M886.3,777.9H735.9c-5.5,0-10-4.5-10-10V617.5c0-5.5,4.5-10,10-10h150.4c5.5,0,10,4.5,10,10v150.4
		C896.3,773.4,891.8,777.9,886.3,777.9z"/>
</g>
<g id="Layer_2">
	<g>
		<path class="st2" d="M265.6,72c5.5,0,10,4.5,10,10v150.4c0,5.5-4.5,10-10,10H115.2c-5.5,0-10-4.5-10-10V82c0-5.5,4.5-10,10-10
			H265.6 M265.6,68H115.2c-7.7,0-14,6.3-14,14v150.4c0,7.7,6.3,14,14,14h150.4c7.7,0,14-6.3,14-14V82C279.6,74.3,273.4,68,265.6,68
			L265.6,68z"/>
	</g>
	<g>
		<path class="st2" d="M576,72c5.5,0,10,4.5,10,10v150.4c0,5.5-4.5,10-10,10H425.6c-5.5,0-10-4.5-10-10V82c0-5.5,4.5-10,10-10H576
			 M576,68H425.6c-7.7,0-14,6.3-14,14v150.4c0,7.7,6.3,14,14,14H576c7.7,0,14-6.3,14-14V82C590,74.3,583.7,68,576,68L576,68z"/>
	</g>
	<g>
		<path class="st2" d="M886.3,72c5.5,0,10,4.5,10,10v150.4c0,5.5-4.5,10-10,10H735.9c-5.5,0-10-4.5-10-10V82c0-5.5,4.5-10,10-10
			H886.3 M886.3,68H735.9c-7.7,0-14,6.3-14,14v150.4c0,7.7,6.3,14,14,14h150.4c7.7,0,14-6.3,14-14V82C900.3,74.3,894,68,886.3,68
			L886.3,68z"/>
	</g>
	<g>
		<path class="st2" d="M265.6,339.7c5.5,0,10,4.5,10,10v150.4c0,5.5-4.5,10-10,10H115.2c-5.5,0-10-4.5-10-10V349.7
			c0-5.5,4.5-10,10-10H265.6 M265.6,335.7H115.2c-7.7,0-14,6.3-14,14v150.4c0,7.7,6.3,14,14,14h150.4c7.7,0,14-6.3,14-14V349.7
			C279.6,342,273.4,335.7,265.6,335.7L265.6,335.7z"/>
	</g>
	<g>
		<path class="st2" d="M576,339.7c5.5,0,10,4.5,10,10v150.4c0,5.5-4.5,10-10,10H425.6c-5.5,0-10-4.5-10-10V349.7c0-5.5,4.5-10,10-10
			H576 M576,335.7H425.6c-7.7,0-14,6.3-14,14v150.4c0,7.7,6.3,14,14,14H576c7.7,0,14-6.3,14-14V349.7C590,342,583.7,335.7,576,335.7
			L576,335.7z"/>
	</g>
	<g>
		<path class="st2" d="M886.3,339.7c5.5,0,10,4.5,10,10v150.4c0,5.5-4.5,10-10,10H735.9c-5.5,0-10-4.5-10-10V349.7
			c0-5.5,4.5-10,10-10H886.3 M886.3,335.7H735.9c-7.7,0-14,6.3-14,14v150.4c0,7.7,6.3,14,14,14h150.4c7.7,0,14-6.3,14-14V349.7
			C900.3,342,894,335.7,886.3,335.7L886.3,335.7z"/>
	</g>
	<g>
		<path class="st2" d="M576,1733.8c5.5,0,10,4.5,10,10v150.4c0,5.5-4.5,10-10,10H425.6c-5.5,0-10-4.5-10-10v-150.4
			c0-5.5,4.5-10,10-10H576 M576,1729.8H425.6c-7.7,0-14,6.3-14,14v150.4c0,7.7,6.3,14,14,14H576c7.7,0,14-6.3,14-14v-150.4
			C590,1736.1,583.7,1729.8,576,1729.8L576,1729.8z"/>
	</g>
	<g>
		<path class="st2" d="M265.6,1438.4c5.5,0,10,4.5,10,10v150.4c0,5.5-4.5,10-10,10H115.2c-5.5,0-10-4.5-10-10v-150.4
			c0-5.5,4.5-10,10-10H265.6 M265.6,1434.4H115.2c-7.7,0-14,6.3-14,14v150.4c0,7.7,6.3,14,14,14h150.4c7.7,0,14-6.3,14-14v-150.4
			C279.6,1440.7,273.4,1434.4,265.6,1434.4L265.6,1434.4z"/>
	</g>
	<g>
		<path class="st2" d="M886.3,1438.4c5.5,0,10,4.5,10,10v150.4c0,5.5-4.5,10-10,10H735.9c-5.5,0-10-4.5-10-10v-150.4
			c0-5.5,4.5-10,10-10H886.3 M886.3,1434.4H735.9c-7.7,0-14,6.3-14,14v150.4c0,7.7,6.3,14,14,14h150.4c7.7,0,14-6.3,14-14v-150.4
			C900.3,1440.7,894,1434.4,886.3,1434.4L886.3,1434.4z"/>
	</g>
	<g>
		<path class="st2" d="M576,1438.4c5.5,0,10,4.5,10,10v150.4c0,5.5-4.5,10-10,10H425.6c-5.5,0-10-4.5-10-10v-150.4
			c0-5.5,4.5-10,10-10H576 M576,1434.4H425.6c-7.7,0-14,6.3-14,14v150.4c0,7.7,6.3,14,14,14H576c7.7,0,14-6.3,14-14v-150.4
			C590,1440.7,583.7,1434.4,576,1434.4L576,1434.4z"/>
	</g>
	<g>
		<path class="st2" d="M265.6,1733.8c5.5,0,10,4.5,10,10v150.4c0,5.5-4.5,10-10,10H115.2c-5.5,0-10-4.5-10-10v-150.4
			c0-5.5,4.5-10,10-10H265.6 M265.6,1729.8H115.2c-7.7,0-14,6.3-14,14v150.4c0,7.7,6.3,14,14,14h150.4c7.7,0,14-6.3,14-14v-150.4
			C279.6,1736.1,273.4,1729.8,265.6,1729.8L265.6,1729.8z"/>
	</g>
	<g>
		<path class="st2" d="M886.3,1733.8c5.5,0,10,4.5,10,10v150.4c0,5.5-4.5,10-10,10H735.9c-5.5,0-10-4.5-10-10v-150.4
			c0-5.5,4.5-10,10-10H886.3 M886.3,1729.8H735.9c-7.7,0-14,6.3-14,14v150.4c0,7.7,6.3,14,14,14h150.4c7.7,0,14-6.3,14-14v-150.4
			C900.3,1736.1,894,1729.8,886.3,1729.8L886.3,1729.8z"/>
	</g>
	<g>
		<path class="st2" d="M265.6,875.2c5.5,0,10,4.5,10,10v150.4c0,5.5-4.5,10-10,10H115.2c-5.5,0-10-4.5-10-10V885.2
			c0-5.5,4.5-10,10-10H265.6 M265.6,871.2H115.2c-7.7,0-14,6.3-14,14v150.4c0,7.7,6.3,14,14,14h150.4c7.7,0,14-6.3,14-14V885.2
			C279.6,877.5,273.4,871.2,265.6,871.2L265.6,871.2z"/>
	</g>
	<g>
		<path class="st2" d="M576,875.2c5.5,0,10,4.5,10,10v150.4c0,5.5-4.5,10-10,10H425.6c-5.5,0-10-4.5-10-10V885.2c0-5.5,4.5-10,10-10
			H576 M576,871.2H425.6c-7.7,0-14,6.3-14,14v150.4c0,7.7,6.3,14,14,14H576c7.7,0,14-6.3,14-14V885.2
			C590,877.5,583.7,871.2,576,871.2L576,871.2z"/>
	</g>
	<g>
		<path class="st2" d="M265.6,1143c5.5,0,10,4.5,10,10v150.4c0,5.5-4.5,10-10,10H115.2c-5.5,0-10-4.5-10-10V1153c0-5.5,4.5-10,10-10
			H265.6 M265.6,1139H115.2c-7.7,0-14,6.3-14,14v150.4c0,7.7,6.3,14,14,14h150.4c7.7,0,14-6.3,14-14V1153
			C279.6,1145.3,273.4,1139,265.6,1139L265.6,1139z"/>
	</g>
	<g>
		<path class="st2" d="M576,1143c5.5,0,10,4.5,10,10v150.4c0,5.5-4.5,10-10,10H425.6c-5.5,0-10-4.5-10-10V1153c0-5.5,4.5-10,10-10
			H576 M576,1139H425.6c-7.7,0-14,6.3-14,14v150.4c0,7.7,6.3,14,14,14H576c7.7,0,14-6.3,14-14V1153C590,1145.3,583.7,1139,576,1139
			L576,1139z"/>
	</g>
	<g>
		<path class="st2" d="M886.3,1143c5.5,0,10,4.5,10,10v150.4c0,5.5-4.5,10-10,10H735.9c-5.5,0-10-4.5-10-10V1153c0-5.5,4.5-10,10-10
			H886.3 M886.3,1139H735.9c-7.7,0-14,6.3-14,14v150.4c0,7.7,6.3,14,14,14h150.4c7.7,0,14-6.3,14-14V1153
			C900.3,1145.3,894,1139,886.3,1139L886.3,1139z"/>
	</g>
	<g>
		<path class="st2" d="M265.6,607.5c5.5,0,10,4.5,10,10v150.4c0,5.5-4.5,10-10,10H115.2c-5.5,0-10-4.5-10-10V617.5
			c0-5.5,4.5-10,10-10H265.6 M265.6,603.5H115.2c-7.7,0-14,6.3-14,14v150.4c0,7.7,6.3,14,14,14h150.4c7.7,0,14-6.3,14-14V617.5
			C279.6,609.8,273.4,603.5,265.6,603.5L265.6,603.5z"/>
	</g>
	<g>
		<path class="st2" d="M576,607.5c5.5,0,10,4.5,10,10v150.4c0,5.5-4.5,10-10,10H425.6c-5.5,0-10-4.5-10-10V617.5c0-5.5,4.5-10,10-10
			H576 M576,603.5H425.6c-7.7,0-14,6.3-14,14v150.4c0,7.7,6.3,14,14,14H576c7.7,0,14-6.3,14-14V617.5
			C590,609.8,583.7,603.5,576,603.5L576,603.5z"/>
	</g>
	<g>
		<path class="st2" d="M886.3,875.2c5.5,0,10,4.5,10,10v150.4c0,5.5-4.5,10-10,10H735.9c-5.5,0-10-4.5-10-10V885.2
			c0-5.5,4.5-10,10-10H886.3 M886.3,871.2H735.9c-7.7,0-14,6.3-14,14v150.4c0,7.7,6.3,14,14,14h150.4c7.7,0,14-6.3,14-14V885.2
			C900.3,877.5,894,871.2,886.3,871.2L886.3,871.2z"/>
	</g>
	<g>
		<path class="st2" d="M886.3,607.5c5.5,0,10,4.5,10,10v150.4c0,5.5-4.5,10-10,10H735.9c-5.5,0-10-4.5-10-10V617.5
			c0-5.5,4.5-10,10-10H886.3 M886.3,603.5H735.9c-7.7,0-14,6.3-14,14v150.4c0,7.7,6.3,14,14,14h150.4c7.7,0,14-6.3,14-14V617.5
			C900.3,609.8,894,603.5,886.3,603.5L886.3,603.5z"/>
	</g>
	<g>
		<path class="st2" d="M265.6,72c5.5,0,10,4.5,10,10v150.4c0,5.5-4.5,10-10,10H115.2c-5.5,0-10-4.5-10-10V82c0-5.5,4.5-10,10-10
			H265.6 M265.6,68H115.2c-7.7,0-14,6.3-14,14v150.4c0,7.7,6.3,14,14,14h150.4c7.7,0,14-6.3,14-14V82C279.6,74.3,273.4,68,265.6,68
			L265.6,68z"/>
	</g>
	<g>
		<path class="st2" d="M576,72c5.5,0,10,4.5,10,10v150.4c0,5.5-4.5,10-10,10H425.6c-5.5,0-10-4.5-10-10V82c0-5.5,4.5-10,10-10H576
			 M576,68H425.6c-7.7,0-14,6.3-14,14v150.4c0,7.7,6.3,14,14,14H576c7.7,0,14-6.3,14-14V82C590,74.3,583.7,68,576,68L576,68z"/>
	</g>
	<g>
		<path class="st2" d="M886.3,72c5.5,0,10,4.5,10,10v150.4c0,5.5-4.5,10-10,10H735.9c-5.5,0-10-4.5-10-10V82c0-5.5,4.5-10,10-10
			H886.3 M886.3,68H735.9c-7.7,0-14,6.3-14,14v150.4c0,7.7,6.3,14,14,14h150.4c7.7,0,14-6.3,14-14V82C900.3,74.3,894,68,886.3,68
			L886.3,68z"/>
	</g>
	<g>
		<path class="st2" d="M265.6,339.7c5.5,0,10,4.5,10,10v150.4c0,5.5-4.5,10-10,10H115.2c-5.5,0-10-4.5-10-10V349.7
			c0-5.5,4.5-10,10-10H265.6 M265.6,335.7H115.2c-7.7,0-14,6.3-14,14v150.4c0,7.7,6.3,14,14,14h150.4c7.7,0,14-6.3,14-14V349.7
			C279.6,342,273.4,335.7,265.6,335.7L265.6,335.7z"/>
	</g>
	<g>
		<path class="st2" d="M576,339.7c5.5,0,10,4.5,10,10v150.4c0,5.5-4.5,10-10,10H425.6c-5.5,0-10-4.5-10-10V349.7c0-5.5,4.5-10,10-10
			H576 M576,335.7H425.6c-7.7,0-14,6.3-14,14v150.4c0,7.7,6.3,14,14,14H576c7.7,0,14-6.3,14-14V349.7C590,342,583.7,335.7,576,335.7
			L576,335.7z"/>
	</g>
	<g>
		<path class="st2" d="M886.3,339.7c5.5,0,10,4.5,10,10v150.4c0,5.5-4.5,10-10,10H735.9c-5.5,0-10-4.5-10-10V349.7
			c0-5.5,4.5-10,10-10H886.3 M886.3,335.7H735.9c-7.7,0-14,6.3-14,14v150.4c0,7.7,6.3,14,14,14h150.4c7.7,0,14-6.3,14-14V349.7
			C900.3,342,894,335.7,886.3,335.7L886.3,335.7z"/>
	</g>
	<g>
		<path class="st2" d="M576,1733.8c5.5,0,10,4.5,10,10v150.4c0,5.5-4.5,10-10,10H425.6c-5.5,0-10-4.5-10-10v-150.4
			c0-5.5,4.5-10,10-10H576 M576,1729.8H425.6c-7.7,0-14,6.3-14,14v150.4c0,7.7,6.3,14,14,14H576c7.7,0,14-6.3,14-14v-150.4
			C590,1736.1,583.7,1729.8,576,1729.8L576,1729.8z"/>
	</g>
	<g>
		<path class="st2" d="M265.6,1438.4c5.5,0,10,4.5,10,10v150.4c0,5.5-4.5,10-10,10H115.2c-5.5,0-10-4.5-10-10v-150.4
			c0-5.5,4.5-10,10-10H265.6 M265.6,1434.4H115.2c-7.7,0-14,6.3-14,14v150.4c0,7.7,6.3,14,14,14h150.4c7.7,0,14-6.3,14-14v-150.4
			C279.6,1440.7,273.4,1434.4,265.6,1434.4L265.6,1434.4z"/>
	</g>
	<g>
		<path class="st2" d="M886.3,1438.4c5.5,0,10,4.5,10,10v150.4c0,5.5-4.5,10-10,10H735.9c-5.5,0-10-4.5-10-10v-150.4
			c0-5.5,4.5-10,10-10H886.3 M886.3,1434.4H735.9c-7.7,0-14,6.3-14,14v150.4c0,7.7,6.3,14,14,14h150.4c7.7,0,14-6.3,14-14v-150.4
			C900.3,1440.7,894,1434.4,886.3,1434.4L886.3,1434.4z"/>
	</g>
	<g>
		<path class="st2" d="M576,1438.4c5.5,0,10,4.5,10,10v150.4c0,5.5-4.5,10-10,10H425.6c-5.5,0-10-4.5-10-10v-150.4
			c0-5.5,4.5-10,10-10H576 M576,1434.4H425.6c-7.7,0-14,6.3-14,14v150.4c0,7.7,6.3,14,14,14H576c7.7,0,14-6.3,14-14v-150.4
			C590,1440.7,583.7,1434.4,576,1434.4L576,1434.4z"/>
	</g>
	<g>
		<path class="st2" d="M265.6,1733.8c5.5,0,10,4.5,10,10v150.4c0,5.5-4.5,10-10,10H115.2c-5.5,0-10-4.5-10-10v-150.4
			c0-5.5,4.5-10,10-10H265.6 M265.6,1729.8H115.2c-7.7,0-14,6.3-14,14v150.4c0,7.7,6.3,14,14,14h150.4c7.7,0,14-6.3,14-14v-150.4
			C279.6,1736.1,273.4,1729.8,265.6,1729.8L265.6,1729.8z"/>
	</g>
	<g>
		<path class="st2" d="M886.3,1733.8c5.5,0,10,4.5,10,10v150.4c0,5.5-4.5,10-10,10H735.9c-5.5,0-10-4.5-10-10v-150.4
			c0-5.5,4.5-10,10-10H886.3 M886.3,1729.8H735.9c-7.7,0-14,6.3-14,14v150.4c0,7.7,6.3,14,14,14h150.4c7.7,0,14-6.3,14-14v-150.4
			C900.3,1736.1,894,1729.8,886.3,1729.8L886.3,1729.8z"/>
	</g>
	<g>
		<path class="st2" d="M265.6,875.2c5.5,0,10,4.5,10,10v150.4c0,5.5-4.5,10-10,10H115.2c-5.5,0-10-4.5-10-10V885.2
			c0-5.5,4.5-10,10-10H265.6 M265.6,871.2H115.2c-7.7,0-14,6.3-14,14v150.4c0,7.7,6.3,14,14,14h150.4c7.7,0,14-6.3,14-14V885.2
			C279.6,877.5,273.4,871.2,265.6,871.2L265.6,871.2z"/>
	</g>
	<g>
		<path class="st2" d="M576,875.2c5.5,0,10,4.5,10,10v150.4c0,5.5-4.5,10-10,10H425.6c-5.5,0-10-4.5-10-10V885.2c0-5.5,4.5-10,10-10
			H576 M576,871.2H425.6c-7.7,0-14,6.3-14,14v150.4c0,7.7,6.3,14,14,14H576c7.7,0,14-6.3,14-14V885.2
			C590,877.5,583.7,871.2,576,871.2L576,871.2z"/>
	</g>
	<g>
		<path class="st2" d="M265.6,1143c5.5,0,10,4.5,10,10v150.4c0,5.5-4.5,10-10,10H115.2c-5.5,0-10-4.5-10-10V1153c0-5.5,4.5-10,10-10
			H265.6 M265.6,1139H115.2c-7.7,0-14,6.3-14,14v150.4c0,7.7,6.3,14,14,14h150.4c7.7,0,14-6.3,14-14V1153
			C279.6,1145.3,273.4,1139,265.6,1139L265.6,1139z"/>
	</g>
	<g>
		<path class="st2" d="M576,1143c5.5,0,10,4.5,10,10v150.4c0,5.5-4.5,10-10,10H425.6c-5.5,0-10-4.5-10-10V1153c0-5.5,4.5-10,10-10
			H576 M576,1139H425.6c-7.7,0-14,6.3-14,14v150.4c0,7.7,6.3,14,14,14H576c7.7,0,14-6.3,14-14V1153C590,1145.3,583.7,1139,576,1139
			L576,1139z"/>
	</g>
	<g>
		<path class="st2" d="M886.3,1143c5.5,0,10,4.5,10,10v150.4c0,5.5-4.5,10-10,10H735.9c-5.5,0-10-4.5-10-10V1153c0-5.5,4.5-10,10-10
			H886.3 M886.3,1139H735.9c-7.7,0-14,6.3-14,14v150.4c0,7.7,6.3,14,14,14h150.4c7.7,0,14-6.3,14-14V1153
			C900.3,1145.3,894,1139,886.3,1139L886.3,1139z"/>
	</g>
	<g>
		<path class="st2" d="M265.6,607.5c5.5,0,10,4.5,10,10v150.4c0,5.5-4.5,10-10,10H115.2c-5.5,0-10-4.5-10-10V617.5
			c0-5.5,4.5-10,10-10H265.6 M265.6,603.5H115.2c-7.7,0-14,6.3-14,14v150.4c0,7.7,6.3,14,14,14h150.4c7.7,0,14-6.3,14-14V617.5
			C279.6,609.8,273.4,603.5,265.6,603.5L265.6,603.5z"/>
	</g>
	<g>
		<path class="st2" d="M576,607.5c5.5,0,10,4.5,10,10v150.4c0,5.5-4.5,10-10,10H425.6c-5.5,0-10-4.5-10-10V617.5c0-5.5,4.5-10,10-10
			H576 M576,603.5H425.6c-7.7,0-14,6.3-14,14v150.4c0,7.7,6.3,14,14,14H576c7.7,0,14-6.3,14-14V617.5
			C590,609.8,583.7,603.5,576,603.5L576,603.5z"/>
	</g>
	<g>
		<path class="st2" d="M886.3,875.2c5.5,0,10,4.5,10,10v150.4c0,5.5-4.5,10-10,10H735.9c-5.5,0-10-4.5-10-10V885.2
			c0-5.5,4.5-10,10-10H886.3 M886.3,871.2H735.9c-7.7,0-14,6.3-14,14v150.4c0,7.7,6.3,14,14,14h150.4c7.7,0,14-6.3,14-14V885.2
			C900.3,877.5,894,871.2,886.3,871.2L886.3,871.2z"/>
	</g>
	<g>
		<path class="st2" d="M886.3,607.5c5.5,0,10,4.5,10,10v150.4c0,5.5-4.5,10-10,10H735.9c-5.5,0-10-4.5-10-10V617.5
			c0-5.5,4.5-10,10-10H886.3 M886.3,603.5H735.9c-7.7,0-14,6.3-14,14v150.4c0,7.7,6.3,14,14,14h150.4c7.7,0,14-6.3,14-14V617.5
			C900.3,609.8,894,603.5,886.3,603.5L886.3,603.5z"/>
	</g>
</g>
<g id="Layer_1">
	<path class="st3" d="M232.6,116.7c-9.5-9.5-22.7-15.4-37.2-15.4h-6.6c-30.9,0-55.9,25-55.9,55.9v0c0,30.9,25,55.9,55.9,55.9
		c16.3,0,31.1-6.6,41.9-17.3c10.7-10.7,17.3-25.5,17.3-41.8C248,139.4,242.1,126.2,232.6,116.7z M216.6,173.4
		c-5.2,5.2-12.1,8.1-19.5,8.1c-0.7,0-1.5,0-2.2-0.1c-13.3-1-24.2-11.9-25.3-25.2c-0.6-8.1,2.3-16,8-21.7c5.2-5.2,12.1-8.1,19.5-8.1
		c7.4,0,14.3,2.9,19.5,8.1c5.2,5.2,8.1,12.1,8.1,19.5C224.7,161.3,221.8,168.2,216.6,173.4z"/>
	<path class="st3" d="M224.7,153.9c0,7.4-2.9,14.3-8.1,19.5c-5.2,5.2-12.1,8.1-19.5,8.1c-0.7,0-1.5,0-2.2-0.1
		c-13.3-1-24.2-11.9-25.3-25.2c-0.6-8.1,2.3-16,8-21.7c5.2-5.2,12.1-8.1,19.5-8.1c7.4,0,14.3,2.9,19.5,8.1
		C221.8,139.6,224.7,146.6,224.7,153.9z"/>
	<g>
		<path class="st2" d="M524.1,173.9c-2.4-5.5-4.6-10.8-4.6-15.9c0-5.4,1.9-10.8,3.9-16.5c2-5.8,4.1-11.7,4.1-17.8
			c0-8.1-3.1-23.8-3.2-24.4l-0.3-1.6h-48l0.5,2.4c0,0.1,3.1,15.7,3.1,23.3c0,5.8-1.7,11.5-3.4,17.6c-1.8,6.1-3.6,12.3-3.6,18.7
			c0,5.7,2.3,11.2,4.5,16.6c2.1,5.3,4.2,10.2,4.2,15.1c0,12.2-4.6,22.6-4.6,22.7l-1.3,2.8h48.5l0.4-1.4c0.2-0.7,4.9-15.9,4.9-23.9
			C529.1,185.4,526.6,179.6,524.1,173.9z M487.6,212.7h-6.3c1.5-4.1,3.9-12.2,3.9-21.5c0-5.7-2.3-11.2-4.5-16.6
			c-2.2-5.2-4.2-10.2-4.2-15.1c0-5.8,1.7-11.5,3.4-17.6s3.6-12.3,3.6-18.7c0-6.2-1.9-16.9-2.7-21.7h6.5c0.8,4.2,2.8,15.5,2.8,21.7
			c0,5.8-1.7,11.5-3.4,17.6c-1.8,6.1-3.6,12.3-3.6,18.7c0,5.7,2.3,11.2,4.5,16.6c2.1,5.2,4.2,10.2,4.2,15.1
			C491.8,201,488.8,209.7,487.6,212.7z M507.6,212.7h-12.3c1.5-4.1,3.9-12.2,3.9-21.5c0-5.7-2.3-11.2-4.5-16.6
			c-2.1-5.3-4.2-10.2-4.2-15.1c0-5.8,1.7-11.5,3.4-17.6c1.8-6.1,3.6-12.3,3.6-18.7c0-6.2-1.8-16.9-2.7-21.7h12.5
			c0.8,4.2,2.8,15.5,2.8,21.7c0,5.8-1.6,11.5-3.4,17.6c-1.8,6.1-3.6,12.3-3.6,18.7c0,5.7,2.3,11.2,4.5,16.6
			c2.2,5.3,4.2,10.2,4.2,15.1C511.7,201,508.8,209.7,507.6,212.7z M520.8,212.7h-5.5c1.5-4.1,3.9-12.2,3.9-21.5
			c0-5.7-2.3-11.2-4.5-16.6c-2.1-5.2-4.2-10.2-4.2-15.1c0-5.8,1.7-11.5,3.4-17.6c1.8-6.1,3.6-12.3,3.6-18.7c0-6.2-1.8-16.9-2.7-21.7
			h5.9c0.8,4.2,2.8,15.8,2.8,22.1c0,5.4-1.9,10.8-3.9,16.5c-2,5.8-4.1,11.8-4.1,17.8c0,6,2.5,11.9,5,17.5c2.4,5.5,4.7,10.8,4.7,15.9
			C525.1,197.5,521.9,208.8,520.8,212.7z"/>
	</g>
	<path class="st4" d="M821.7,214.6h-44.5c-5.5,0-9.9-4.4-9.9-9.9v-57.4h64.3v57.4C831.6,210.2,827.2,214.6,821.7,214.6z"/>
	<path class="st2" d="M847.1,159.8c3.4,0,6.2,2.8,6.2,6.2v25.8c0,3.4-2.8,6.2-6.2,6.2h-13.8v-6.5h7.4c2.9,0,5.3-2.4,5.3-5.3v-14.6
		c0-2.9-2.4-5.3-5.3-5.3h-7.4v-6.5H847.1 M847.1,155.8h-13.8h-1.7v4v6.5v4h1.7h7.4c0.7,0,1.3,0.6,1.3,1.3v14.6
		c0,0.7-0.6,1.3-1.3,1.3h-7.4h-1.7v4v6.5v4h1.7h13.8c5.6,0,10.2-4.6,10.2-10.2V166C857.3,160.4,852.8,155.8,847.1,155.8L847.1,155.8
		z"/>
	<path class="st2" d="M819.4,138.5l-1.2-1.3c-1.5-1.6-2.3-3.3-2.3-5c-0.1-2.9,1.9-5.1,4-7.3c2.1-2.3,4.3-4.6,4.2-7.8
		c0-2.9-2.1-5.9-6-8.7l-0.2-0.1h-5.7l2.2,1.4c3.5,2.4,5.3,4.7,5.4,7c0.1,2.5-1.8,4.5-3.8,6.7c-2.3,2.5-4.7,5.1-4.5,8.7
		c0.1,2.1,1,4.1,2.7,6.1l0.2,0.3H819.4z"/>
	<path class="st2" d="M784.9,138.5l-1.2-1.3c-1.5-1.6-2.3-3.3-2.3-5c-0.1-2.9,1.9-5.1,4-7.3c2.1-2.3,4.3-4.6,4.2-7.8
		c0-2.9-2.1-5.9-6-8.7l-0.2-0.1h-5.8l2.2,1.4c3.5,2.4,5.3,4.7,5.4,7c0.1,2.5-1.8,4.5-3.8,6.7c-2.3,2.5-4.7,5.1-4.5,8.7
		c0.1,2.1,1,4.1,2.7,6.1l0.2,0.3H784.9z"/>
	<path class="st2" d="M803.2,125.1l-1.2-1.3c-1.5-1.6-2.3-3.3-2.3-5c-0.1-2.9,1.9-5.1,4-7.3c2.1-2.3,4.3-4.6,4.2-7.8
		c0-2.9-2.1-5.9-6-8.7l-0.2-0.1h-5.7l2.2,1.4c3.5,2.4,5.3,4.7,5.4,7c0.1,2.5-1.8,4.5-3.8,6.7c-2.3,2.5-4.7,5.1-4.5,8.7
		c0.1,2.1,1,4.1,2.7,6.1l0.2,0.3H803.2z"/>
	<g>
		<path class="st3" d="M551.8,1822.9c-34.2,4.4-67.8,4.4-102,0c-4-0.6-7.6,1.7-8.2,5.2c-2.9,14,11.6,24.8,24,25.9
			c23.6,1.8,46.8,1.8,70.4,0c13-0.7,26.2-12.1,24-25.9C559.4,1824.7,555.8,1822.4,551.8,1822.9z"/>
		<path class="st3" d="M554.8,1800.8L554.8,1800.8c-1.6-8.6-9.6-14.2-18.2-13.4c-24,2.4-47.6,2.4-71.6,0
			c-8.6-0.9-16.6,4.8-18.2,13.4v0C483,1806.2,518.6,1806.2,554.8,1800.8z"/>
		<path class="st3" d="M566.4,1809.9c-0.9-4.8-5.9-8-11.1-7.1c-36.6,5.4-72.5,5.4-109.1,0c-5.2-0.8-10.2,2.3-11.1,7.1
			c-0.9,4.8,2.8,9.6,8.3,10.5c38.5,5.7,76.3,5.7,114.8,0C563.7,1819.5,567.4,1814.7,566.4,1809.9z"/>
	</g>
	<path class="st2" d="M251.6,1546.7c0-4.1-2.6-7.7-6.2-9.1c0.7-1.1,1.2-2.5,1.2-3.9v-6.7c0-1.9-0.8-3.7-2-4.9c1.4-0.8,2.6-2,3.5-3.4
		c2.1-3.2,2.4-7.2,0.9-10.7c-8.3-18.9-31.8-31.7-58.5-31.7c-26.7,0-50.2,12.7-58.5,31.7c-1.5,3.5-1.2,7.5,0.9,10.7
		c0.9,1.4,2.1,2.5,3.5,3.4c-1.2,1.3-2,3-2,4.9v6.7c0,1.4,0.4,2.8,1.2,3.9c-3.6,1.4-6.2,5-6.2,9.1c0,3.7,2,6.8,5,8.5
		c-1.3,1.4-2.2,3.3-2.2,5.4v3.6c0,11,8.9,19.9,19.9,19.9h76.9c11,0,19.9-8.9,19.9-19.9v-3.6c0-2.1-0.8-4-2.2-5.4
		C249.6,1553.5,251.6,1550.3,251.6,1546.7z M138.3,1533.7v-6.7c0-1.7,1.4-3.1,3.1-3.1h98c1.7,0,3.1,1.4,3.1,3.1v6.7
		c0,1.7-1.4,3.1-3.1,3.1h-98C139.7,1536.8,138.3,1535.4,138.3,1533.7z M135.6,1509.6c7.4-17,29.1-29.3,54.8-29.3
		s47.4,12.3,54.8,29.3c2.1,4.8-1.4,10.2-6.6,10.2h-96.4C137,1519.7,133.5,1514.4,135.6,1509.6z M139.1,1540.9h102.7
		c3.2,0,5.8,2.6,5.8,5.8s-2.6,5.8-5.8,5.8H139.1c-3.2,0-5.8-2.6-5.8-5.8S135.9,1540.9,139.1,1540.9z M244.8,1564.3
		c0,8.8-7.1,15.9-15.9,15.9H152c-8.8,0-15.9-7.1-15.9-15.9v-3.6c0-2.2,1.8-3.9,3.9-3.9h100.9c2.2,0,3.9,1.8,3.9,3.9V1564.3z"/>
	<path class="st2" d="M859.8,1490.1c-1.5-1.5-3.6-2.4-5.7-2.4c-0.7,0-1.4,0.1-2,0.3l2-2h0c4.1-4.1,4.1-10.8,0-15
		c-2-2-4.7-3.1-7.5-3.1s-5.5,1.1-7.5,3.1l-80.5,80.5c-2,2-3.1,4.7-3.1,7.5s1.1,5.5,3.1,7.5c2,2,4.7,3.1,7.5,3.1
		c2.8,0,5.5-1.1,7.5-3.1l2-2c-0.7,2.7,0,5.7,2.1,7.8c4.6,4.6,10.7,7,16.8,7s12.2-2.3,16.8-7l48.4-48.4
		C869.1,1514.5,869.1,1499.4,859.8,1490.1z M770.7,1563.7c-1.2,1.2-2.9,1.9-4.6,1.9c-1.8,0-3.4-0.7-4.6-1.9
		c-1.2-1.2-1.9-2.9-1.9-4.6s0.7-3.4,1.9-4.6l80.5-80.5c1.2-1.2,2.9-1.9,4.6-1.9s3.4,0.7,4.6,1.9c2.6,2.6,2.6,6.7,0,9.3h0
		L770.7,1563.7z M857,1521l-48.4,48.4c-7.7,7.7-20.3,7.7-28,0c-1.6-1.6-1.6-4.2,0-5.8h0l70.6-70.6c0.8-0.8,1.8-1.2,2.9-1.2
		c1.1,0,2.1,0.4,2.9,1.2C864.7,1500.7,864.7,1513.2,857,1521z"/>
	<g>
		<g>
			<path class="st2" d="M500.8,1484.4v4c16.8,0,32.2,9.9,39.1,25.2c4.9,10.8,5.2,22.8,0.8,33.8c-4.4,11-12.9,19.5-23.9,23.9
				c-5,2-10.4,3-15.8,3c-16.1,0-30.7-8.7-38.1-22.8c-4.9-9.2-6.2-19.8-3.9-29.8c1.9-8.2,6.2-15.6,12.2-21.4c1.7,1.6,4.2,2.5,7.2,2.5
				c2.7,0,5.7-0.7,8.6-2c6.4-2.9,10.2-7.8,10-12.3c1.3-0.1,2.6-0.2,3.9-0.2L500.8,1484.4 M500.8,1484.4c-3.2,0-6.5,0.3-9.8,1
				c-0.3,0.1-0.4,0.5-0.1,0.7c0.8,0.4,1.4,0.9,1.7,1.6c1.3,2.8-2,7-7.4,9.5c-2.4,1.1-4.9,1.6-6.9,1.6c-2.5,0-4.4-0.8-5.1-2.3
				c-0.3-0.7-0.4-1.5-0.1-2.3c0.1-0.3-0.1-0.5-0.4-0.5c-0.1,0-0.1,0-0.2,0.1c-18,13.5-24.3,38.6-13.2,59.5
				c8.3,15.7,24.7,24.9,41.6,24.9c5.8,0,11.7-1.1,17.3-3.3c25-10,36.4-38.8,25.3-63.1C535.7,1494.6,518.6,1484.4,500.8,1484.4
				L500.8,1484.4z"/>
		</g>
		<path class="st2" d="M471.2,1470l2.4-1.1c0.3-0.1,0.6,0.1,0.6,0.4c-0.4,2.5-0.1,4.4,0.1,5.6c1,4.3,3.7,6.2,7.7,12.2
			c1.4,2.1,2.4,3.9,3.1,5.1c0.2,0.3,0,0.7-0.3,0.8l-2.2,1c-0.3,0.1-0.7,0-0.8-0.3c-0.2-0.6-0.5-1.4-1-2.2c-4.3-9-10.6-11.2-10.9-17
			c0-0.9,0-2.3,0.9-4.1C470.9,1470.2,471.1,1470.1,471.2,1470z"/>
	</g>
	<path class="st2" d="M230.2,1770.5c-0.8-1.5-2.1-2.5-3.7-3l-7.3-2.2c-0.6-0.2-1.2-0.3-1.8-0.3c-0.8,0-1.6,0.2-2.3,0.5
		c-0.2-0.8-0.6-1.6-1.1-2.3c-1.1-1.4-2.8-2.3-4.5-2.4l-9.4-1l-0.1,0l-0.6-0.1c-0.1-0.1-0.1-0.2-0.2-0.2c-1-1.1-2.4-1.7-3.9-1.7H187
		c-2.1,0-4,1.1-5.1,2.7c-0.8-0.3-1.6-0.5-2.5-0.5c-0.2,0-0.4,0-0.7,0l-7.5,0.8c-1.7,0.2-3.1,1-4.2,2.3c-0.6,0.7-1,1.5-1.2,2.4
		c-0.7-0.3-1.5-0.4-2.3-0.4c-0.6,0-1.2,0.1-1.8,0.3l-7.3,2.2c-1.6,0.5-2.9,1.6-3.7,3c-0.8,1.5-1,3.2-0.5,4.8l5.3,17.4H151l0.6,4.5
		l8.1,63.9l0,0.3l0.4,3.5l0.1,0.8l1.4,11.2l0,0c0.3,2,2,3.5,4,3.5h49.6c2,0,3.7-1.5,4-3.5l0,0l1.4-11.2l0.1-0.8l0.4-3.5l0-0.3
		l8.1-63.9l0.6-4.5h-4.5l5.3-17.4C231.2,1773.6,231,1771.9,230.2,1770.5z M211.7,1876.2h-42.5c-2,0-3.7-1.5-4-3.5l-1-7.7h52.4
		l-1,7.7C215.4,1874.7,213.7,1876.2,211.7,1876.2z M211.3,1767.2l-0.5,4.5l-0.7,6l-1.6,14.9h-0.7l-0.5,1l-0.6,1.1l-9.9,18.8h-1.5
		l5.4-49.7l0-0.1v0l8.6,0.9C210.5,1764.9,211.4,1766,211.3,1767.2z M187,1761.8h8.4c0.1,0,0.3,0,0.4,0.1l-0.2,1.5l-2.8,25.6
		l-2.7,24.8h-4.3v-45.1c0-0.2,0-0.4,0-0.7l-0.3-2.3c-0.1-0.8-0.3-1.6-0.7-2.3C185.2,1762.4,186,1761.8,187,1761.8z M171.6,1764.8
		l7.5-0.8c0.1,0,0.2,0,0.3,0c0.5,0,1,0.2,1.4,0.5v42.8l-6.6-12.5l-0.6-1.1l-0.5-1h-0.7l-1.6-14.9l-0.6-6l-0.5-4.6
		C169.5,1766,170.4,1764.9,171.6,1764.8z M154,1774.1c-0.4-1.2,0.3-2.4,1.5-2.8l7.3-2.2c0.2-0.1,0.4-0.1,0.6-0.1
		c1,0,1.8,0.6,2.1,1.6l0.6,2l0.6,5.6l1.6,14.5h-8.7L154,1774.1z M217.2,1860.8h-53.5l-8.2-64.1h1.1h12.7h1.3l0.6,1.1l9.5,18.1
		l0.9,1.8h4.2h3.8h5.1h4.4l10.5-19.9l0.6-1.1h1.3h12.7h1.1L217.2,1860.8z M226.9,1774.1l-5.6,18.6h-8.7l1.6-14.4l0.6-5.6l0.6-2
		c0.3-1,1.2-1.6,2.1-1.6c0.2,0,0.4,0,0.7,0.1l7.3,2.2C226.5,1771.6,227.2,1772.9,226.9,1774.1z"/>
	<g>
		<path class="st5" d="M859.2,1838.6c-5.8,24.7-24.7,41.4-42,37.3c-2.1-0.5-4.2-1.3-6-2.4c-1.9,1.1-3.9,1.8-6,2.4
			c-17.4,4.1-36.2-12.6-42-37.3c-5.8-24.7,3.5-48,20.9-52.2c9.4-2.2,19.2,1.6,27.2,9.6c8-7.9,17.8-11.8,27.2-9.6
			C855.7,1790.6,865,1813.9,859.2,1838.6z"/>
		<path class="st5" d="M833.3,1756.1c0.8,5.8-1.6,12.7-6.9,18c-5.3,5.3-12.2,7.7-18,6.9c-0.8-5.8,1.6-12.7,6.9-18
			C820.7,1757.7,827.6,1755.3,833.3,1756.1z"/>
	</g>
	<g>
		<g>
			<path class="st2" d="M191.6,1180.1c12.4,0.3,23.7,5.3,32.1,13.3l-1.3,1.3l-30.8,30.8V1180.1 M197.8,1189.7c1.3,0,2.4-1.1,2.4-2.4
				s-1.1-2.4-2.4-2.4c-1.3,0-2.4,1.1-2.4,2.4S196.5,1189.7,197.8,1189.7 M206.2,1192.9c1.3,0,2.4-1.1,2.4-2.4c0-1.3-1.1-2.4-2.4-2.4
				s-2.4,1.1-2.4,2.4C203.8,1191.8,204.9,1192.9,206.2,1192.9 M213.9,1198c1.3,0,2.4-1.1,2.4-2.4c0-1.3-1.1-2.4-2.4-2.4
				c-1.3,0-2.4,1.1-2.4,2.4C211.5,1196.9,212.6,1198,213.9,1198 M197.8,1200.9c1.3,0,2.4-1.1,2.4-2.4c0-1.3-1.1-2.4-2.4-2.4
				c-1.3,0-2.4,1.1-2.4,2.4C195.4,1199.8,196.5,1200.9,197.8,1200.9 M205.9,1204.8c1.3,0,2.4-1.1,2.4-2.4s-1.1-2.4-2.4-2.4
				c-1.3,0-2.4,1.1-2.4,2.4S204.6,1204.8,205.9,1204.8 M197.8,1212.1c1.3,0,2.4-1.1,2.4-2.4c0-1.3-1.1-2.4-2.4-2.4
				c-1.3,0-2.4,1.1-2.4,2.4C195.4,1211,196.5,1212.1,197.8,1212.1 M191.6,1177.1c-0.8,0-1.5,0.3-2.1,0.9c-0.6,0.6-0.9,1.3-0.9,2.1
				v45.4c0,1.2,0.7,2.3,1.9,2.8c0.4,0.2,0.8,0.2,1.1,0.2c0.8,0,1.5-0.3,2.1-0.9l30.8-30.8l1.3-1.3c0.6-0.6,0.9-1.3,0.9-2.2
				c0-0.8-0.3-1.6-0.9-2.1C216.5,1182.4,204.4,1177.4,191.6,1177.1C191.6,1177.1,191.6,1177.1,191.6,1177.1L191.6,1177.1z"/>
		</g>
		<g>
			<path class="st2" d="M189.3,1180.1v45.4l-30.8-30.8l-1.3-1.3C166.2,1184.8,177.7,1180.3,189.3,1180.1 M184,1191
				c0.6,0,1.2-0.2,1.7-0.7c0.9-0.9,0.9-2.4,0-3.4c-0.5-0.5-1.1-0.7-1.7-0.7c-0.6,0-1.2,0.2-1.7,0.7c-0.9,0.9-0.9,2.4,0,3.4
				C182.8,1190.7,183.4,1191,184,1191 M174.9,1192.8c0.6,0,1.2-0.2,1.7-0.7c0.9-0.9,0.9-2.4,0-3.4c-0.5-0.5-1.1-0.7-1.7-0.7
				c-0.6,0-1.2,0.2-1.7,0.7c-0.9,0.9-0.9,2.4,0,3.4C173.7,1192.6,174.3,1192.8,174.9,1192.8 M166.8,1196.5c0.6,0,1.2-0.2,1.7-0.7
				c0.9-0.9,0.9-2.4,0-3.4c-0.5-0.5-1.1-0.7-1.7-0.7c-0.6,0-1.2,0.2-1.7,0.7c-0.9,0.9-0.9,2.4,0,3.4
				C165.6,1196.3,166.2,1196.5,166.8,1196.5 M183.1,1201.4c0.6,0,1.2-0.2,1.7-0.7c0.9-0.9,0.9-2.4,0-3.4c-0.5-0.5-1.1-0.7-1.7-0.7
				c-0.6,0-1.2,0.2-1.7,0.7c-0.9,0.9-0.9,2.4,0,3.4C181.9,1201.2,182.5,1201.4,183.1,1201.4 M174.7,1204.4c0.6,0,1.2-0.2,1.7-0.7
				c0.9-0.9,0.9-2.4,0-3.4c-0.5-0.5-1.1-0.7-1.7-0.7c-0.6,0-1.2,0.2-1.7,0.7c-0.9,0.9-0.9,2.4,0,3.4
				C173.4,1204.1,174.1,1204.4,174.7,1204.4 M182.6,1212.3c0.6,0,1.2-0.2,1.7-0.7c0.9-0.9,0.9-2.4,0-3.4c-0.5-0.5-1.1-0.7-1.7-0.7
				c-0.6,0-1.2,0.2-1.7,0.7c-0.9,0.9-0.9,2.4,0,3.4C181.4,1212.1,182,1212.3,182.6,1212.3 M189.3,1177.1
				C189.3,1177.1,189.3,1177.1,189.3,1177.1c-12.8,0.3-24.9,5.3-34.2,14.1c-0.6,0.6-0.9,1.3-0.9,2.1c0,0.8,0.3,1.6,0.9,2.2l1.3,1.3
				l30.8,30.8c0.6,0.6,1.3,0.9,2.1,0.9c0.4,0,0.8-0.1,1.1-0.2c1.1-0.5,1.9-1.6,1.9-2.8v-45.4c0-0.8-0.3-1.6-0.9-2.1
				C190.8,1177.4,190.1,1177.1,189.3,1177.1L189.3,1177.1z"/>
		</g>
		<g>
			<path class="st2" d="M155.6,1195l1.3,1.3l30.9,30.8h-45.4C142.6,1214.6,147.6,1203.3,155.6,1195 M157.9,1207.1
				c1.3,0,2.4-1.1,2.4-2.4c0-1.3-1.1-2.4-2.4-2.4c-1.3,0-2.4,1.1-2.4,2.4C155.5,1206.1,156.5,1207.1,157.9,1207.1 M152.8,1214.8
				c1.3,0,2.4-1.1,2.4-2.4c0-1.3-1.1-2.4-2.4-2.4c-1.3,0-2.4,1.1-2.4,2.4C150.4,1213.8,151.4,1214.8,152.8,1214.8 M164.6,1215.1
				c1.3,0,2.4-1.1,2.4-2.4c0-1.3-1.1-2.4-2.4-2.4c-1.3,0-2.4,1.1-2.4,2.4C162.3,1214,163.3,1215.1,164.6,1215.1 M172,1223.2
				c1.3,0,2.4-1.1,2.4-2.4c0-1.3-1.1-2.4-2.4-2.4s-2.4,1.1-2.4,2.4C169.6,1222.1,170.6,1223.2,172,1223.2 M160.8,1223.2
				c1.3,0,2.4-1.1,2.4-2.4c0-1.3-1.1-2.4-2.4-2.4c-1.3,0-2.4,1.1-2.4,2.4C158.4,1222.1,159.5,1223.2,160.8,1223.2 M149.6,1223.2
				c1.3,0,2.4-1.1,2.4-2.4c0-1.3-1.1-2.4-2.4-2.4s-2.4,1.1-2.4,2.4C147.2,1222.1,148.3,1223.2,149.6,1223.2 M155.6,1192
				C155.6,1192,155.6,1192,155.6,1192c-0.8,0-1.6,0.3-2.2,0.9c-8.8,9.2-13.8,21.3-14.1,34.1c0,0.8,0.3,1.6,0.9,2.2s1.3,0.9,2.1,0.9
				h45.4c1.2,0,2.3-0.7,2.8-1.9c0.5-1.1,0.2-2.4-0.7-3.3l-30.9-30.8l-1.2-1.2C157.2,1192.3,156.4,1192,155.6,1192L155.6,1192z"/>
		</g>
		<g>
			<path class="st2" d="M187.7,1229.3L187.7,1229.3 M187.7,1229.3l-30.8,30.8l-1.3,1.3c-8.6-9-13-20.5-13.3-32.1H187.7 M150.8,1237
				c0.6,0,1.2-0.2,1.7-0.7c0.9-0.9,0.9-2.4,0-3.4c-0.5-0.5-1.1-0.7-1.7-0.7c-0.6,0-1.2,0.2-1.7,0.7c-0.9,0.9-0.9,2.4,0,3.4
				C149.6,1236.8,150.2,1237,150.8,1237 M161.3,1237.9c0.6,0,1.2-0.2,1.7-0.7c0.9-0.9,0.9-2.4,0-3.4c-0.5-0.5-1.1-0.7-1.7-0.7
				s-1.2,0.2-1.7,0.7c-0.9,0.9-0.9,2.4,0,3.4C160,1237.7,160.7,1237.9,161.3,1237.9 M172.2,1238.4c0.6,0,1.2-0.2,1.7-0.7
				c0.9-0.9,0.9-2.4,0-3.4c-0.5-0.5-1.1-0.7-1.7-0.7s-1.2,0.2-1.7,0.7c-0.9,0.9-0.9,2.4,0,3.4
				C170.9,1238.2,171.6,1238.4,172.2,1238.4 M152.7,1246.1c0.6,0,1.2-0.2,1.7-0.7c0.9-0.9,0.9-2.5,0-3.4c-0.5-0.5-1.1-0.7-1.7-0.7
				c-0.6,0-1.2,0.2-1.7,0.7c-0.9,0.9-0.9,2.4,0,3.4C151.4,1245.9,152.1,1246.1,152.7,1246.1 M164.3,1246.3c0.6,0,1.2-0.2,1.7-0.7
				c0.9-0.9,0.9-2.5,0-3.4c-0.5-0.5-1.1-0.7-1.7-0.7c-0.6,0-1.2,0.2-1.7,0.7c-0.9,0.9-0.9,2.4,0,3.4
				C163,1246.1,163.6,1246.3,164.3,1246.3 M156.4,1254.2c0.6,0,1.2-0.2,1.7-0.7c0.9-0.9,0.9-2.4,0-3.4c-0.5-0.5-1.1-0.7-1.7-0.7
				c-0.6,0-1.2,0.2-1.7,0.7c-0.9,0.9-0.9,2.4,0,3.4C155.1,1254,155.8,1254.2,156.4,1254.2 M187.7,1226.3L187.7,1226.3h-45.4
				c-0.8,0-1.6,0.3-2.1,0.9c-0.6,0.6-0.9,1.4-0.9,2.2c0.3,12.8,5.3,24.9,14.1,34.1c0.6,0.6,1.3,0.9,2.1,0.9c0,0,0,0,0,0
				c0.8,0,1.6-0.3,2.1-0.9l1.3-1.3l30.8-30.8c0.6-0.5,0.9-1.3,0.9-2.2C190.7,1227.7,189.4,1226.3,187.7,1226.3L187.7,1226.3z
				 M187.7,1232.3L187.7,1232.3L187.7,1232.3L187.7,1232.3z"/>
		</g>
		<g>
			<path class="st2" d="M189.3,1230.9v45.4c-12.4-0.3-23.7-5.3-32.1-13.3l1.3-1.3L189.3,1230.9 M183.1,1249.1c1.3,0,2.4-1.1,2.4-2.4
				c0-1.3-1.1-2.4-2.4-2.4c-1.3,0-2.4,1.1-2.4,2.4C180.7,1248,181.8,1249.1,183.1,1249.1 M175,1256.4c1.3,0,2.4-1.1,2.4-2.4
				c0-1.3-1.1-2.4-2.4-2.4c-1.3,0-2.4,1.1-2.4,2.4C172.6,1255.3,173.7,1256.4,175,1256.4 M183.1,1260.2c1.3,0,2.4-1.1,2.4-2.4
				s-1.1-2.4-2.4-2.4c-1.3,0-2.4,1.1-2.4,2.4S181.8,1260.2,183.1,1260.2 M167,1263.2c1.3,0,2.4-1.1,2.4-2.4s-1.1-2.4-2.4-2.4
				c-1.3,0-2.4,1.1-2.4,2.4S165.7,1263.2,167,1263.2 M174.7,1268.3c1.3,0,2.4-1.1,2.4-2.4c0-1.3-1.1-2.4-2.4-2.4s-2.4,1.1-2.4,2.4
				C172.3,1267.2,173.4,1268.3,174.7,1268.3 M183.1,1271.4c1.3,0,2.4-1.1,2.4-2.4c0-1.3-1.1-2.4-2.4-2.4c-1.3,0-2.4,1.1-2.4,2.4
				C180.7,1270.3,181.8,1271.4,183.1,1271.4 M189.3,1227.9c-0.8,0-1.5,0.3-2.1,0.9l-30.8,30.8l-1.3,1.3c-0.6,0.6-0.9,1.3-0.9,2.2
				c0,0.8,0.3,1.6,0.9,2.1c9.2,8.8,21.3,13.8,34.1,14.1c0,0,0,0,0.1,0c0.8,0,1.5-0.3,2.1-0.9c0.6-0.6,0.9-1.3,0.9-2.1v-45.4
				c0-1.2-0.7-2.3-1.9-2.8C190.1,1228,189.7,1227.9,189.3,1227.9L189.3,1227.9z"/>
		</g>
		<g>
			<path class="st2" d="M191.6,1230.9l32.1,32.1c-9,8.6-20.5,13-32.1,13.3V1230.9 M198.3,1248.8c0.6,0,1.2-0.2,1.7-0.7
				c0.9-0.9,0.9-2.4,0-3.4c-0.5-0.5-1.1-0.7-1.7-0.7c-0.6,0-1.2,0.2-1.7,0.7c-0.9,0.9-0.9,2.4,0,3.4
				C197.1,1248.6,197.7,1248.8,198.3,1248.8 M206.2,1256.8c0.6,0,1.2-0.2,1.7-0.7c0.9-0.9,0.9-2.4,0-3.4c-0.5-0.5-1.1-0.7-1.7-0.7
				s-1.2,0.2-1.7,0.7c-0.9,0.9-0.9,2.4,0,3.4C205,1256.5,205.6,1256.8,206.2,1256.8 M197.8,1259.7c0.6,0,1.2-0.2,1.7-0.7
				c0.9-0.9,0.9-2.4,0-3.4c-0.5-0.5-1.1-0.7-1.7-0.7c-0.6,0-1.2,0.2-1.7,0.7c-0.9,0.9-0.9,2.4,0,3.4
				C196.5,1259.5,197.1,1259.7,197.8,1259.7 M214.1,1264.6c0.6,0,1.2-0.2,1.7-0.7c0.9-0.9,0.9-2.4,0-3.4c-0.5-0.5-1.1-0.7-1.7-0.7
				c-0.6,0-1.2,0.2-1.7,0.7c-0.9,0.9-0.9,2.4,0,3.4C212.9,1264.4,213.5,1264.6,214.1,1264.6 M206,1268.3c0.6,0,1.2-0.2,1.7-0.7
				c0.9-0.9,0.9-2.4,0-3.4c-0.5-0.5-1.1-0.7-1.7-0.7s-1.2,0.2-1.7,0.7c-0.9,0.9-0.9,2.4,0,3.4C204.7,1268.1,205.3,1268.3,206,1268.3
				 M196.9,1270.2c0.6,0,1.2-0.2,1.7-0.7c0.9-0.9,0.9-2.4,0-3.4c-0.5-0.5-1.1-0.7-1.7-0.7s-1.2,0.2-1.7,0.7c-0.9,0.9-0.9,2.4,0,3.4
				C195.7,1269.9,196.3,1270.2,196.9,1270.2 M191.6,1227.9c-0.4,0-0.8,0.1-1.1,0.2c-1.1,0.5-1.9,1.6-1.9,2.8v45.4
				c0,0.8,0.3,1.6,0.9,2.1c0.6,0.5,1.3,0.9,2.1,0.9c0,0,0,0,0.1,0c12.8-0.3,24.9-5.3,34.1-14.1c0.6-0.6,0.9-1.3,0.9-2.1
				c0-0.8-0.3-1.6-0.9-2.2l-32.1-32.1C193.1,1228.2,192.4,1227.9,191.6,1227.9L191.6,1227.9z"/>
		</g>
		<g>
			<path class="st2" d="M238.6,1229.3L238.6,1229.3 M238.6,1229.3c-0.3,12.4-5.3,23.7-13.3,32.1l-1.3-1.3l-30.8-30.8H238.6
				 M231.3,1237.9c1.3,0,2.4-1.1,2.4-2.4c0-1.3-1.1-2.4-2.4-2.4c-1.3,0-2.4,1.1-2.4,2.4C228.9,1236.9,230,1237.9,231.3,1237.9
				 M220.1,1237.9c1.3,0,2.4-1.1,2.4-2.4c0-1.3-1.1-2.4-2.4-2.4c-1.3,0-2.4,1.1-2.4,2.4C217.7,1236.9,218.8,1237.9,220.1,1237.9
				 M208.9,1237.9c1.3,0,2.4-1.1,2.4-2.4c0-1.3-1.1-2.4-2.4-2.4c-1.3,0-2.4,1.1-2.4,2.4C206.5,1236.9,207.6,1237.9,208.9,1237.9
				 M216.3,1246c1.3,0,2.4-1.1,2.4-2.4s-1.1-2.4-2.4-2.4c-1.3,0-2.4,1.1-2.4,2.4S214.9,1246,216.3,1246 M228.1,1246.3
				c1.3,0,2.4-1.1,2.4-2.4c0-1.3-1.1-2.4-2.4-2.4c-1.3,0-2.4,1.1-2.4,2.4C225.7,1245.2,226.8,1246.3,228.1,1246.3 M223,1254
				c1.3,0,2.4-1.1,2.4-2.4c0-1.3-1.1-2.4-2.4-2.4c-1.3,0-2.4,1.1-2.4,2.4C220.6,1252.9,221.7,1254,223,1254 M238.6,1226.3
				L238.6,1226.3h-45.4c-1.2,0-2.3,0.7-2.8,1.9c-0.5,1.1-0.2,2.4,0.7,3.3l30.8,30.8l1.3,1.3c0.6,0.6,1.3,0.9,2.1,0.9c0,0,0,0,0,0
				c0.8,0,1.6-0.3,2.1-0.9c8.8-9.2,13.8-21.3,14.1-34c0-0.1,0-0.1,0-0.2C241.6,1227.7,240.2,1226.3,238.6,1226.3L238.6,1226.3z
				 M238.6,1232.3L238.6,1232.3L238.6,1232.3L238.6,1232.3z"/>
		</g>
		<g>
			<path class="st2" d="M225.3,1195c8.6,9,13,20.5,13.3,32.1h-45.4l30.8-30.8L225.3,1195 M224.5,1206.9c0.6,0,1.2-0.2,1.7-0.7
				c0.9-0.9,0.9-2.4,0-3.4c-0.5-0.5-1.1-0.7-1.7-0.7s-1.2,0.2-1.7,0.7c-0.9,0.9-0.9,2.4,0,3.4
				C223.3,1206.7,223.9,1206.9,224.5,1206.9 M216.6,1214.8c0.6,0,1.2-0.2,1.7-0.7c0.9-0.9,0.9-2.4,0-3.4c-0.5-0.5-1.1-0.7-1.7-0.7
				s-1.2,0.2-1.7,0.7c-0.9,0.9-0.9,2.4,0,3.4C215.4,1214.6,216,1214.8,216.6,1214.8 M228.2,1215c0.6,0,1.2-0.2,1.7-0.7
				c0.9-0.9,0.9-2.4,0-3.4c-0.5-0.5-1.1-0.7-1.7-0.7s-1.2,0.2-1.7,0.7c-0.9,0.9-0.9,2.4,0,3.4C227,1214.8,227.6,1215,228.2,1215
				 M208.7,1222.7c0.6,0,1.2-0.2,1.7-0.7c0.9-0.9,0.9-2.4,0-3.4c-0.5-0.5-1.1-0.7-1.7-0.7c-0.6,0-1.2,0.2-1.7,0.7
				c-0.9,0.9-0.9,2.4,0,3.4C207.5,1222.5,208.1,1222.7,208.7,1222.7 M219.6,1223.2c0.6,0,1.2-0.2,1.7-0.7c0.9-0.9,0.9-2.4,0-3.4
				c-0.5-0.5-1.1-0.7-1.7-0.7s-1.2,0.2-1.7,0.7c-0.9,0.9-0.9,2.4,0,3.4C218.4,1223,219,1223.2,219.6,1223.2 M230.1,1224.1
				c0.6,0,1.2-0.2,1.7-0.7c0.9-0.9,0.9-2.4,0-3.4c-0.5-0.5-1.1-0.7-1.7-0.7s-1.2,0.2-1.7,0.7c-0.9,0.9-0.9,2.4,0,3.4
				C228.8,1223.9,229.4,1224.1,230.1,1224.1 M225.3,1192c-0.8,0-1.6,0.3-2.1,0.9l-1.3,1.3l-30.8,30.8c-0.9,0.9-1.1,2.1-0.7,3.3
				c0.5,1.1,1.6,1.9,2.8,1.9h45.4c0.8,0,1.6-0.3,2.1-0.9s0.9-1.4,0.9-2.2c-0.3-12.8-5.3-24.9-14.1-34.1
				C226.9,1192.3,226.1,1192,225.3,1192C225.3,1192,225.3,1192,225.3,1192L225.3,1192z"/>
		</g>
		<path class="st2" d="M148.9,1182.6l-2,2l0.8-0.8C148.2,1183.4,148.6,1183.1,148.9,1182.6L148.9,1182.6z"/>
		<path class="st2" d="M252,1227c0-0.6,0-1.1,0-1.6c-0.7-14.4-6.3-28-16-38.6c-0.4-0.4-0.8-0.8-1.1-1.2l-1-1l0,0l-0.7-0.7
			c-0.4-0.4-0.8-0.8-1.2-1.1c-10.6-9.7-24.2-15.3-38.6-16c-0.5,0-1.1-0.1-1.7-0.1l-1.1,0h-0.1l-1.2,0c-0.6,0-1.1,0-1.7,0.1
			c-14.4,0.7-27.9,6.3-38.6,16c-0.4,0.4-0.8,0.8-1.2,1.1l-0.8,0.8l-0.9,0.9c-0.4,0.4-0.8,0.8-1.1,1.2c-9.7,10.6-15.3,24.2-16,38.6
			c0,0.5,0,1.1-0.1,1.6l0,1.2l0,1.2c0,0.6,0,1.1,0.1,1.7c0.7,14.4,6.3,28,16,38.6c0.4,0.4,0.8,0.8,1.1,1.2l0.8,0.9l0.1,0.1l0.8,0.8
			c0.4,0.4,0.8,0.8,1.2,1.1c10.6,9.7,24.2,15.3,38.6,16c0.5,0,1.1,0.1,1.7,0.1l1.1,0h0.1l1.2,0c0.6,0,1.1,0,1.7-0.1
			c14.4-0.7,28-6.3,38.6-16c0.4-0.4,0.8-0.8,1.2-1.1l0.8-0.7l0.1-0.1l0.9-0.9c0.4-0.4,0.8-0.8,1.1-1.2c9.7-10.6,15.3-24.2,16-38.6
			c0-0.6,0-1.1,0-1.7l0-1.1v-0.1L252,1227z M193.3,1170.7c13.7,0.7,26.2,6.2,35.7,14.8l-5.1,5.1c-8.2-7.4-18.9-12.1-30.7-12.7
			V1170.7z M187.6,1170.7v7.2c-11.7,0.7-22.4,5.3-30.6,12.7l-0.1,0l-5-5C161.4,1176.9,173.8,1171.4,187.6,1170.7z M147.8,1189.6
			l5.1,5.1c-7.4,8.3-12.1,18.9-12.7,30.7H133C133.6,1211.6,139.1,1199.1,147.8,1189.6z M147.8,1266.8c-8.7-9.6-14.1-22-14.8-35.8
			h7.2c0.7,11.7,5.4,22.4,12.7,30.7l0,0.1L147.8,1266.8z M187.6,1285.7c-13.7-0.7-26.2-6.1-35.7-14.8l5-5l0.1-0.1
			c8.2,7.4,18.9,12.1,30.6,12.7V1285.7z M190.4,1274.6L190.4,1274.6l-1,0h-0.1c-11.5-0.3-22.5-4.8-30.8-12.8c0,0-0.1,0-0.1-0.1
			l-0.8-0.8l0,0l0,0l0,0l-0.6-0.6c0,0,0-0.1-0.1-0.1c-8-8.4-12.5-19.3-12.8-30.8v-0.1l0-1.1l0-1v-0.1c0.3-11.5,4.8-22.5,12.8-30.8
			c0,0,0.1-0.1,0.1-0.1l0.6-0.6l0.9-0.8l0.1-0.1c8.4-8,19.3-12.5,30.8-12.8h0.1l1,0h0l1,0h0.1c11.5,0.3,22.5,4.8,30.8,12.8
			c0,0,0,0,0.1,0l0.7,0.7l0.1,0.1l0.7,0.7c0,0,0,0,0.1,0.1c8,8.4,12.5,19.3,12.8,30.8v0.1l0,1v0l0,1v0.1
			c-0.3,11.5-4.8,22.4-12.8,30.8c0,0,0,0-0.1,0.1l-0.6,0.6l0,0l-0.8,0.8c0,0,0,0-0.1,0.1c-8.4,8-19.3,12.5-30.8,12.8h-0.1
			L190.4,1274.6z M193.3,1285.7v-7.2c11.7-0.6,22.4-5.4,30.7-12.7l5.1,5.1C219.5,1279.5,207,1285,193.3,1285.7z M233.1,1266.8
			l-5.1-5.1c7.4-8.2,12.1-18.9,12.7-30.7h7.2C247.3,1244.8,241.8,1257.3,233.1,1266.8z M240.7,1225.3c-0.7-11.7-5.4-22.4-12.7-30.7
			l0,0l5-5c8.7,9.5,14.1,22,14.8,35.8H240.7z"/>
		<path class="st2" d="M144.9,1186.6L144.9,1186.6c0.5-0.3,0.8-0.7,1.2-1.1l0.9-0.9L144.9,1186.6z"/>
	</g>
	<path class="st2" d="M235.8,954.3c0.6-0.3,1.1-0.8,1.5-1.4c0.7-1.2,0.8-2.7,0.1-4c-0.1-0.2-1.1-2-3.2-4.5c0,0-0.1-0.1-0.1-0.1
		c0-0.1-0.1-0.1-0.1-0.2l-0.2-0.2c-0.3-0.3-0.6-0.7-0.8-1c-1.5-1.6-3-3.2-4.7-4.6c-2.1-1.9-4.4-3.6-6.8-5.1
		c-2.9-1.8-5.9-3.4-9.1-4.7c-3.7-1.5-7.5-2.6-11.5-3.4c-4.9-0.9-10-1.2-15-1c-15.6,0.6-31.1,8.4-40.1,21.3c-0.1,0.2-0.3,0.4-0.4,0.6
		c0,0,0,0,0,0c-0.1,0.2-0.3,0.4-0.4,0.6c-0.6,1.2-0.6,2.6,0.1,3.8c0.3,0.5,0.7,0.9,1.2,1.3c-3.3,6.1-5.1,12.8-5.1,19.7
		c0,24.6,22.1,44.5,49.2,44.5c27.1,0,49.2-20,49.2-44.5C239.6,965.4,238.3,959.7,235.8,954.3z M148.7,948.3
		C148.7,948.3,148.7,948.3,148.7,948.3c0.6-0.9,1.3-1.8,1.9-2.6c1.3-1.7,2.8-3.2,4.4-4.7c2.1-2,4.4-3.8,6.9-5.4
		c5.1-3.4,11-5.9,17.1-6.9c11.8-1.8,24.3-0.4,35.1,4.8c2.9,1.4,5.7,3.1,8.3,5c2.1,1.6,4.1,3.3,5.9,5.2c0.6,0.6,1.2,1.2,1.7,1.8
		c0.3,0.3,0.5,0.6,0.7,0.8c0.1,0.2,0.3,0.3,0.4,0.5c1.9,2.3,2.8,3.9,2.8,3.9c-0.4-0.1-13.3-2.7-22.2-10.3c0,0,0,1.6-1,3.8
		c-0.1,0.1-0.2,0.2-0.2,0.4c-0.3,0.8-0.7,1.5-1.1,2.2c-1.2,1.9-3.1,4.1-6,6.1c0,0-2.5-8.8-10.6-12.5c0,0-1.9,8.4-13.2,13.2
		c0.2-0.3,3.4-7.1-8.1-15c0,0-7.3,9.8-21.2,9.8C149.7,948.4,149.2,948.4,148.7,948.3C148.6,948.4,148.6,948.4,148.7,948.3z
		 M190.4,1012.1c-25,0-45.4-18.3-45.4-40.7c0-6.5,1.7-12.8,5-18.5l0.5,0c10.7,0.5,18.2-4.1,22.2-7.5c2.2,2.6,2.5,6.5,0.7,9.5
		l-2.1,3.4c-0.4,0.7-0.4,1.6,0.2,2.2c0.5,0.6,1.4,0.8,2.2,0.5l8.2-3.5c6.4-2.7,10.2-6.5,12.5-9.8c2.5,2.6,3.5,5.7,3.7,6.1l1.1,3.8
		c0.2,0.6,0.6,1.1,1.2,1.3c0.6,0.2,1.2,0.1,1.7-0.2l2.9-2c0.2-0.1,0.4-0.2,0.6-0.3c3.8-2.6,6.1-5.4,7.6-8c8,4.7,16.5,6.5,17.5,6.7
		l1.5,0.3c2.4,5.1,3.6,10.4,3.6,16C235.8,993.8,215.5,1012.1,190.4,1012.1z"/>
	<path class="st2" d="M188.1,900.2h1.9c0.5,0,0.9,0.6,0.7,1.1c-0.8,1.9-1.7,4.2-2.2,7c-1.5,8.4,0.8,15.4,2.2,18.8
		c0.2,0.5-0.1,1-0.6,1h-2c-0.4,0-0.8-0.3-1-0.7c-1.4-3.5-3.9-11-2.2-19.7c0.5-2.7,1.3-5,2.2-6.8
		C187.4,900.4,187.7,900.2,188.1,900.2z"/>
	<g>
		<path class="st2" d="M500.8,902.9c24.5,0,44.3,38.1,44.3,69.9c0,31.8-19.8,45.2-44.3,45.2c-24.5,0-44.3-13.4-44.3-45.2
			C456.5,941,476.3,902.9,500.8,902.9 M500.8,898.9c-12.8,0-25.2,8.9-34.8,25c-8.5,14.3-13.5,32.6-13.5,48.9
			c0,16.2,4.8,28.8,14.3,37.5c8.4,7.7,20.2,11.7,34,11.7s25.6-4.1,34-11.7c9.5-8.7,14.3-21.3,14.3-37.5c0-16.4-5.1-34.6-13.5-48.9
			C526,907.8,513.6,898.9,500.8,898.9L500.8,898.9z"/>
	</g>
	<path class="st2" d="M488.8,920.9c-3.7,3.6-8.7,9.4-12.4,17.8c-3.8,8.5-4.8,16.2-5,21.4c-0.1,1.2-1.2,2-2.3,1.5
		c-0.4-0.1-0.8-0.3-1.2-0.5c-0.7-0.3-1.1-0.9-1.1-1.6c0.1-5.3,0.9-13.8,5-23.3c3.9-8.9,9.1-15,12.8-18.6c0.5-0.5,1.3-0.6,2-0.3
		c0.6,0.3,1.2,0.5,1.8,0.8C489.4,918.6,489.7,920,488.8,920.9z"/>
	<path class="st2" d="M511.8,1168.9h-22c-9,0-16.3,7.3-16.3,16.3v61.5c0,9,7.3,16.3,16.3,16.3h0.6c0.5,0,0.9,0.4,0.9,0.9v16
		c0,5,3.8,9.4,8.8,9.8c5.5,0.4,10.1-4,10.1-9.4V1264c0-0.5,0.4-0.9,0.9-0.9h0.6c9,0,16.3-7.3,16.3-16.3v-61.5
		C528.1,1176.2,520.8,1168.9,511.8,1168.9z M506.2,1280.1c0,2.7-1.8,5.1-4.4,5.5c-1.9,0.4-3.7-0.3-4.9-1.5c-1-1-1.6-2.3-1.6-3.9
		v-16.5c0-0.4,0.3-0.7,0.7-0.7h9.4c0.4,0,0.7,0.3,0.7,0.7V1280.1z M524.1,1246.7c0,6.8-5.5,12.3-12.3,12.3h-22
		c-6.8,0-12.3-5.5-12.3-12.3v-36.6c0-1.1,0.9-2.1,2.1-2.1H522c1.1,0,2.1,0.9,2.1,2.1V1246.7z M522,1200.3h-42.5
		c-1.1,0-2.1-0.9-2.1-2.1v-13.1c0-6.8,5.5-12.3,12.3-12.3h22c6.8,0,12.3,5.5,12.3,12.3v13C524.1,1199.4,523.2,1200.3,522,1200.3z"/>
	<g>
		<g>
			<path class="st2" d="M160.7,370.5c6.7,0,13.1,2.6,17.8,7.4l31.7,31.7c6.4,6.4,6.4,16.8,0,23.1l-12.5,12.5
				c-3.1,3.1-7.2,4.8-11.6,4.8c-4.4,0-8.5-1.7-11.6-4.8l-31.7-31.7c-9.8-9.8-9.8-25.8,0-35.6C147.7,373.1,154,370.5,160.7,370.5
				 M160.7,366.5c-7.5,0-14.9,2.9-20.6,8.6l0,0c-11.4,11.4-11.4,29.9,0,41.3l31.7,31.7c4,4,9.2,6,14.4,6c5.2,0,10.4-2,14.4-6
				l12.5-12.5c7.9-7.9,7.9-20.8,0-28.8L181.4,375C175.7,369.3,168.2,366.5,160.7,366.5L160.7,366.5z"/>
		</g>
		<g>
			<path class="st2" d="M214.9,444.3l4.6,4.6c3.3,3.3,7.7,5.1,12.4,5.1c0.2,0,0.4,0,0.7,0l10.1-0.4l0.1,0c0.7,0,1.3,0.3,1.8,0.8
				c0.5,0.5,0.7,1.2,0.7,1.8l-0.2,5.5c0,1.3-1.1,2.4-2.4,2.4l-2.8,0.1c-5.2,0.2-9.5,4.4-9.7,9.7l-0.1,2.8c0,1.3-1.1,2.4-2.4,2.4
				l-5.5,0.2l-0.1,0c-0.7,0-1.3-0.3-1.8-0.8c-0.5-0.5-0.7-1.2-0.7-1.8l0.4-10.1c0.2-4.9-1.7-9.6-5.1-13.1l-4.6-4.6L214.9,444.3
				 M214.9,438.6L204.5,449l7.4,7.4c2.7,2.7,4.1,6.3,4,10.1l-0.4,10.1c-0.1,3.7,2.8,6.8,6.5,6.8c0.1,0,0.2,0,0.3,0l5.5-0.2
				c3.4-0.1,6.1-2.9,6.3-6.3l0.1-2.8c0.1-3.2,2.7-5.7,5.8-5.8l2.8-0.1c3.4-0.1,6.1-2.9,6.3-6.3l0.2-5.5c0.1-3.7-2.8-6.8-6.5-6.8
				c-0.1,0-0.2,0-0.3,0l-10.1,0.4c-0.2,0-0.3,0-0.5,0c-3.6,0-7-1.4-9.6-4L214.9,438.6L214.9,438.6z"/>
		</g>
	</g>
	<g>
		<path class="st2" d="M809.9,408c-9.7,0-17.6,5.1-17.6,11.3s7.9,11.3,17.6,11.3s17.6-5.1,17.6-11.3S819.6,408,809.9,408z
			 M809.9,426.7c-7.8,0-13.6-3.9-13.6-7.3c0-3.5,5.8-7.3,13.6-7.3c8,0,13.6,3.9,13.6,7.3S817.9,426.7,809.9,426.7z M809.9,408
			c-9.7,0-17.6,5.1-17.6,11.3s7.9,11.3,17.6,11.3s17.6-5.1,17.6-11.3S819.6,408,809.9,408z M809.9,426.7c-7.8,0-13.6-3.9-13.6-7.3
			c0-3.5,5.8-7.3,13.6-7.3c8,0,13.6,3.9,13.6,7.3S817.9,426.7,809.9,426.7z M809.9,408c-9.7,0-17.6,5.1-17.6,11.3
			s7.9,11.3,17.6,11.3s17.6-5.1,17.6-11.3S819.6,408,809.9,408z M809.9,426.7c-7.8,0-13.6-3.9-13.6-7.3c0-3.5,5.8-7.3,13.6-7.3
			c8,0,13.6,3.9,13.6,7.3S817.9,426.7,809.9,426.7z M809.9,408c-9.7,0-17.6,5.1-17.6,11.3s7.9,11.3,17.6,11.3s17.6-5.1,17.6-11.3
			S819.6,408,809.9,408z M809.9,426.7c-7.8,0-13.6-3.9-13.6-7.3c0-3.5,5.8-7.3,13.6-7.3c8,0,13.6,3.9,13.6,7.3
			S817.9,426.7,809.9,426.7z M809.9,408c-9.7,0-17.6,5.1-17.6,11.3s7.9,11.3,17.6,11.3s17.6-5.1,17.6-11.3S819.6,408,809.9,408z
			 M809.9,426.7c-7.8,0-13.6-3.9-13.6-7.3c0-3.5,5.8-7.3,13.6-7.3c8,0,13.6,3.9,13.6,7.3S817.9,426.7,809.9,426.7z M809.9,408
			c-9.7,0-17.6,5.1-17.6,11.3s7.9,11.3,17.6,11.3s17.6-5.1,17.6-11.3S819.6,408,809.9,408z M809.9,426.7c-7.8,0-13.6-3.9-13.6-7.3
			c0-3.5,5.8-7.3,13.6-7.3c8,0,13.6,3.9,13.6,7.3S817.9,426.7,809.9,426.7z M863.7,406.6l5.2-0.9c-0.1-0.2-0.1-0.3-0.2-0.5l-1-2.4
			l-0.3-0.5l-0.9-1.6c-5-9.2-12.8-16.9-22.4-22.4c-9.8-5.6-21.3-8.5-33-8.5c-29.9,0-55.4,19-60.7,45.3c0,0.1,0,0.1,0,0.2l-0.5,2.4
			l-0.1,1.2l3.4,1c0.9,0.3,3.2,1.1,3.6,2.8c0.3,1.2,0.1,1.8-0.2,2.7c-0.7,1.8-0.8,3.3,0.3,5.7l0,0l0,0c0.5,0.9,1,1.7,1.7,2.1
			l0.3,0.2l0.3,0.1c0.6,0.3,1.2,0.4,1.9,0.4c0.6,0,1.2-0.1,1.8-0.2l0.1,0c0.4-0.1,0.9-0.1,1.2-0.1c0.5,0,0.5,0.1,0.7,0.3
			c0.4,0.6,0.2,1.5-0.3,3.3c-0.6,2-1.5,4.7,0.4,7c1.1,1.3,2.6,1.9,4.5,1.9c0.8,0,1.6-0.1,2.4-0.2c0.7-0.1,1.4-0.2,2-0.2
			c1.1,0,1.6,0.3,1.9,0.5c0.9,0.7,1.1,1.5,1.5,2.8c0.6,2,1.3,4.5,5.1,6c0.9,0.4,1.8,0.6,2.6,0.6c2.2,0,4-1.2,5.5-2.3
			c1.6-1.1,2.7-1.8,4-1.8c0.3,0,0.6,0,0.9,0.1c1.8,0.4,2.8,1.3,4,2.4l0,0.1c1.6,1.4,3.6,3.3,7.5,3.3c0.6,0,1.3,0,2-0.1
			c4.8-0.6,6.6-3.6,7.9-5.7c1.2-1.9,1.6-2.3,2.6-2.3c0,0,0.1,0,0.1,0c1.4,0.1,3.4,0.7,5.5,1.4l0.1,0c2.8,0.9,5.9,1.9,8.8,1.9
			c2.4,0,4.3-0.7,5.7-2.2c2.1-2.3,2.6-4,1.8-6.6c-0.3-0.9-0.4-1.3,0.6-2.4c1.1-1.3,3.7-1.9,6.2-2.4c4-1,8.6-2,9.4-6.3
			c0.7-3.3-0.3-5-1.4-6.5c-0.6-0.9-0.9-1.2-0.4-2.6c0.5-1.5,1.3-2,2.7-2.9c1.6-1,3.6-2.2,4.2-5.6c0.3-2,0.3-4.1-2.3-5.8
			c-0.6-0.4-0.6-0.4-0.6-1C859.8,407.7,860.5,407.2,863.7,406.6z M811.1,373.8c22.8,0,42.6,11.8,51.9,28.8c-2.8,0.5-6.8,1.2-7.3,5.1
			c-0.2,1.3,0,2.2,0.4,2.9c0,0,0,0,0,0.1c0.5,1,1.4,1.6,1.9,2c0.7,0.5,0.8,0.5,0.6,1.8c-0.3,1.7-1,2.1-2.3,2.9
			c-1.4,0.9-3.4,2.1-4.3,5c-1.1,3.3,0.1,5.1,1,6.3c0.7,0.9,1.1,1.5,0.7,3.3c-0.3,1.6-2.7,2.3-6.4,3.2c-3.1,0.7-6.4,1.5-8.3,3.7
			c-2.5,2.8-1.8,4.9-1.4,6.2c0.3,0.9,0.4,1.3-0.9,2.6c-0.6,0.7-1.6,0.9-2.8,0.9c-2.2,0-5-0.9-7.5-1.7c-2.4-0.8-4.7-1.5-6.6-1.6
			c-0.1,0-0.2,0-0.3,0c-3.4,0-4.9,2.4-6,4.2c-1.2,1.9-2.1,3.4-5.1,3.8c-0.5,0.1-1,0.1-1.5,0.1c-2.3,0-3.3-0.9-4.8-2.3
			c-1.4-1.2-3.1-2.8-5.9-3.4c-0.6-0.1-1.1-0.2-1.7-0.2c-2.7,0-4.7,1.4-6.3,2.5c-1.5,1-2.3,1.6-3.2,1.6c-0.3,0-0.7-0.1-1.1-0.3
			c-2-0.8-2.3-1.7-2.8-3.4c-0.4-1.5-1-3.3-2.8-4.8c-1.4-1.2-3-1.4-4.4-1.4c-0.9,0-1.7,0.1-2.5,0.2c-0.8,0.1-1.4,0.2-1.9,0.2
			c-0.7,0-1.1-0.1-1.4-0.5c-0.5-0.6-0.3-1.4,0.3-3.3c0.6-1.9,1.5-4.5-0.2-6.8c-1.2-1.6-2.7-2-4-2c-0.7,0-1.4,0.1-1.9,0.2
			c-0.3,0.1-0.9,0.1-1.2,0.1c-0.1,0-0.1,0-0.2,0c0,0-0.2-0.2-0.3-0.5c-0.6-1.4-0.5-1.8-0.2-2.7c0.4-1.1,0.9-2.6,0.3-5
			c-0.8-3.2-3.7-4.8-6.3-5.6C759.1,392,782.7,373.8,811.1,373.8z M809.9,430.7c9.7,0,17.6-5.1,17.6-11.3s-7.9-11.3-17.6-11.3
			s-17.6,5.1-17.6,11.3S800.2,430.7,809.9,430.7z M809.9,412c8,0,13.6,3.9,13.6,7.3s-5.6,7.3-13.6,7.3c-7.8,0-13.6-3.9-13.6-7.3
			C796.3,415.8,802.1,412,809.9,412z M809.9,408c-9.7,0-17.6,5.1-17.6,11.3s7.9,11.3,17.6,11.3s17.6-5.1,17.6-11.3
			S819.6,408,809.9,408z M809.9,426.7c-7.8,0-13.6-3.9-13.6-7.3c0-3.5,5.8-7.3,13.6-7.3c8,0,13.6,3.9,13.6,7.3
			S817.9,426.7,809.9,426.7z M809.9,408c-9.7,0-17.6,5.1-17.6,11.3s7.9,11.3,17.6,11.3s17.6-5.1,17.6-11.3S819.6,408,809.9,408z
			 M809.9,426.7c-7.8,0-13.6-3.9-13.6-7.3c0-3.5,5.8-7.3,13.6-7.3c8,0,13.6,3.9,13.6,7.3S817.9,426.7,809.9,426.7z"/>
		<g>
			<path class="st2" d="M791.1,383.7l-5.2,7.6c-0.3,0.5-0.9,0.8-1.5,0.8c-0.3,0-0.7-0.1-1-0.3c-0.8-0.6-1-1.7-0.5-2.5l5.2-7.6
				c0.6-0.8,1.7-1,2.5-0.5C791.5,381.8,791.7,382.9,791.1,383.7z"/>
			<path class="st2" d="M794,402.4c-0.2,0.7-0.9,1.2-1.7,1.2c-0.2,0-0.4,0-0.6-0.1l-11.1-3.7c-0.9-0.3-1.4-1.3-1.1-2.3
				c0.3-0.9,1.3-1.4,2.3-1.1l11.1,3.7C793.8,400.4,794.3,401.4,794,402.4z"/>
			<path class="st2" d="M784.1,423.7c-0.3,0.6-0.9,1-1.6,1c-0.3,0-0.5-0.1-0.8-0.2l-10.8-5.5c-0.9-0.4-1.2-1.5-0.8-2.4
				c0.4-0.9,1.5-1.2,2.4-0.8l10.8,5.5C784.2,421.7,784.5,422.8,784.1,423.7z"/>
			<path class="st2" d="M781.9,434.6l-8.5,3.6c-0.2,0.1-0.5,0.1-0.7,0.1c-0.7,0-1.3-0.4-1.6-1.1c-0.4-0.9,0.1-1.9,1-2.3l8.4-3.5
				c0.9-0.4,2,0,2.3,0.9C783.2,433.2,782.8,434.2,781.9,434.6z"/>
			<path class="st2" d="M805.7,443.9c-0.3,0.4-0.9,0.6-1.4,0.6c-0.4,0-0.8-0.1-1.1-0.4l-8.7-7.1c-0.8-0.6-0.9-1.7-0.3-2.5
				c0.6-0.8,1.7-0.9,2.5-0.3l8.7,7.1C806.2,442,806.3,443.1,805.7,443.9z"/>
			<path class="st2" d="M832.2,431.5l-5.5,9.6c-0.3,0.6-0.9,0.9-1.5,0.9c-0.3,0-0.6-0.1-0.9-0.2c-0.9-0.5-1.1-1.6-0.7-2.4l5.5-9.6
				c0.5-0.8,1.6-1.1,2.4-0.7C832.4,429.6,832.7,430.7,832.2,431.5z"/>
			<path class="st2" d="M843,415.8v11.6c0,1-0.8,1.8-1.8,1.8c-1,0-1.8-0.8-1.8-1.8v-11.6c0-1,0.8-1.8,1.8-1.8
				C842.2,414,843,414.8,843,415.8z"/>
			<path class="st2" d="M855.4,404.2l-10.2,5.3c-0.3,0.1-0.6,0.2-0.8,0.2c-0.6,0-1.3-0.3-1.6-0.9c-0.5-0.9-0.1-2,0.8-2.4l10.2-5.3
				c0.9-0.5,1.9-0.1,2.4,0.8C856.6,402.7,856.2,403.8,855.4,404.2z"/>
			<path class="st2" d="M836.7,402.6l-11,3.4c-0.2,0.1-0.3,0.1-0.5,0.1c-0.8,0-1.5-0.5-1.7-1.3c-0.3-0.9,0.2-1.9,1.2-2.2l11-3.4
				c0.9-0.3,1.9,0.2,2.2,1.2C838.2,401.3,837.6,402.3,836.7,402.6z"/>
			<path class="st2" d="M837.4,387.7l-8.7,8.3c-0.3,0.3-0.8,0.5-1.2,0.5c-0.5,0-0.9-0.2-1.3-0.6c-0.7-0.7-0.7-1.8,0.1-2.5l8.8-8.3
				c0.7-0.7,1.8-0.7,2.5,0.1C838.1,385.9,838.1,387,837.4,387.7z"/>
			<path class="st2" d="M822.1,381l-6.4,9.2c-0.3,0.5-0.9,0.8-1.5,0.8c-0.3,0-0.7-0.1-1-0.3c-0.8-0.6-1-1.7-0.4-2.5l6.4-9.2
				c0.6-0.8,1.7-1,2.5-0.4C822.4,379.1,822.6,380.2,822.1,381z"/>
			<path class="st2" d="M811.3,400c-0.3,0.4-0.9,0.7-1.4,0.7c-0.4,0-0.8-0.1-1.1-0.4l-8.7-6.8c-0.8-0.6-0.9-1.7-0.3-2.5
				c0.6-0.8,1.7-0.9,2.5-0.3l8.7,6.8C811.7,398.1,811.9,399.2,811.3,400z"/>
			<path class="st2" d="M774.7,408c-0.4,0.4-0.9,0.6-1.3,0.6c-0.4,0-0.8-0.1-1.2-0.4l-8-6.9c-0.8-0.6-0.8-1.8-0.2-2.5
				c0.6-0.7,1.8-0.8,2.5-0.2l8,6.8C775.2,406.1,775.3,407.2,774.7,408z"/>
		</g>
		<path class="st2" d="M868.9,405.7c-0.1-0.2-0.1-0.3-0.2-0.5l-1-2.4l-0.3-0.5l-3.1,0.5c-0.3,0.1-0.7,0.1-1.1,0.2l-0.1,0
			c-2.6,0.4-6.6,1.1-7.1,4.8v0l0,0c0,0.2-0.1,0.5-0.1,0.8v2l0,0l1.6,1.2c0.2,0.1,0.4,0.3,0.6,0.4c0.7,0.5,1,0.7,0.7,2.2
			c-0.3,1.8-1.2,2.4-2.6,3.2c-1.4,0.9-3.2,2-4.2,4.8c-0.9,2.6-0.3,4.1,0.9,5.9c0.7,1,1.2,1.6,0.8,3.7c-0.4,1.9-3,2.6-6.7,3.5
			c-3.1,0.7-6.2,1.4-8.1,3.6c-1.7,1.9-2,3.5-1.3,5.8c0.3,1,0.5,1.5-1,3.1c-0.5,0.5-1.2,1.1-3,1.1c-2.3,0-5.2-0.9-7.7-1.8l-0.2-0.1
			c-2.3-0.7-4.5-1.4-6.3-1.5h-0.3c-3.1,0-4.6,2.3-5.6,4c-1.1,1.8-2.2,3.6-5.4,4c-0.5,0.1-1,0.1-1.5,0.1c-2.5,0-3.6-1-5.1-2.4
			c-1.4-1.3-3-2.7-5.7-3.3c-0.5-0.1-1-0.2-1.5-0.2c-2.6,0-4.4,1.3-6.1,2.5c-1.1,0.8-2.3,1.6-3.5,1.6c-0.4,0-0.8-0.1-1.2-0.3
			c-2.2-0.9-2.5-2-3-3.7c-0.4-1.4-0.9-3.2-2.7-4.6c-1.1-0.9-2.5-1.4-4.2-1.4c-0.8,0-1.7,0.1-2.5,0.2c-0.6,0.1-1.3,0.2-1.9,0.2
			c-1.2,0-1.5-0.3-1.8-0.6c-0.6-0.7-0.5-1.6,0.2-3.7c0.6-1.9,1.4-4.3-0.1-6.4l0-0.1l0-0.1c-0.4-0.5-0.8-0.9-1.3-1.2l-0.2-0.1
			l-0.2-0.1c-0.6-0.3-1.2-0.4-1.8-0.4c-0.5,0-1,0.1-1.9,0.2c-0.4,0.1-0.8,0.1-1.2,0.1c-0.4,0-0.6,0-1-0.8c-0.7-1.6-0.5-2.1-0.2-3.1
			c0.5-1.3,0.8-2.6,0.3-4.8c-0.4-1.6-1.6-3.7-5.2-5l-4.6-1.7c0,0.1,0,0.1,0,0.2l-0.5,2.4l-0.1,1.2l-0.1,1.3
			c-0.2,1.6-0.2,3.2-0.2,4.8c0,30.4,27.7,55.1,61.7,55.1s61.7-24.7,61.7-55.1C872.8,418.3,871.5,411.9,868.9,405.7z M811.1,476.1
			c-31.8,0-57.7-22.9-57.7-51.1c0-1.5,0.1-3,0.2-4.4c1.2,0.4,2.4,1.1,2.7,2.2c0.3,1.1,0.1,1.6-0.2,2.4c-0.6,1.6-1,3.3,0.3,6.1
			c1.2,2.6,3,3.1,4.6,3.1c0.7,0,1.4-0.1,1.9-0.2c0.3-0.1,0.8-0.2,1.1-0.2c0.1,0,0.2,0,0.2,0c0,0,0.1,0,0.1,0.1
			c0.4,0.5,0.1,1.4-0.4,2.9c-0.7,2.1-1.6,4.9,0.5,7.4c1.4,1.7,3.2,2.1,4.9,2.1c0.8,0,1.7-0.1,2.4-0.2c0.8-0.1,1.4-0.2,2-0.2
			c0.7,0,1.2,0.1,1.6,0.4c0.7,0.6,1,1.4,1.4,2.6c0.6,2,1.4,4.7,5.3,6.3c1,0.4,1.9,0.6,2.8,0.6c2.4,0,4.3-1.3,5.8-2.4
			c1.5-1,2.5-1.7,3.8-1.7c0.2,0,0.5,0,0.7,0.1c1.7,0.3,2.6,1.2,3.8,2.3c1.7,1.6,3.8,3.4,7.8,3.4c0.6,0,1.3-0.1,2-0.1
			c5-0.7,7-3.8,8.3-5.9c1.1-1.8,1.4-2.1,2.2-2.1h0.1c1.3,0.1,3.3,0.7,5.5,1.4c2.8,0.9,6,1.9,9,1.9c2.3,0,4.3-0.6,6-2.4
			c2.8-3,2.4-5.2,1.9-7c-0.3-0.9-0.3-1,0.5-2c1-1.2,3.6-1.7,6-2.3c3.9-0.9,8.8-2.1,9.7-6.6c0.8-3.8-0.6-5.6-1.5-6.8
			c-0.6-0.9-0.8-1.1-0.4-2.2c0.5-1.4,1.3-1.9,2.5-2.6c1.6-1,3.8-2.3,4.4-5.9c0.7-4.2-1.4-5.5-2.5-6.3c-0.1-0.1-0.3-0.2-0.4-0.3
			c0,0,0-0.1,0-0.3c0.1-0.8,2.3-1.1,3.9-1.4c0.4-0.1,0.7-0.1,1.1-0.2c2.4,5.6,3.7,11.7,3.7,18.1C868.8,453.2,843,476.1,811.1,476.1z
			"/>
	</g>
	<g>
		<path class="st2" d="M167.7,712.5c9.4,0,17.1,7.7,17.1,17.1s-7.7,17.1-17.1,17.1s-17.1-7.7-17.1-17.1S158.3,712.5,167.7,712.5
			 M167.7,708.5c-11.6,0-21.1,9.4-21.1,21.1c0,11.6,9.4,21.1,21.1,21.1s21.1-9.4,21.1-21.1C188.7,717.9,179.3,708.5,167.7,708.5
			L167.7,708.5z"/>
		<path class="st2" d="M213.2,699.4c9.4,0,17.1,7.7,17.1,17.1s-7.7,17.1-17.1,17.1s-17.1-7.7-17.1-17.1S203.8,699.4,213.2,699.4
			 M213.2,695.4c-11.6,0-21.1,9.4-21.1,21.1s9.4,21.1,21.1,21.1c11.6,0,21.1-9.4,21.1-21.1S224.8,695.4,213.2,695.4L213.2,695.4z"/>
		<path class="st2" d="M206.7,692.9c-1.7,0.5-3.3,1.1-4.8,1.9c-7.1-15-8.1-28.3-8-36c-12.6,13.4-19.4,35.6-22.2,46.7
			c-1.3-0.2-2.7-0.3-4.1-0.3c-0.4,0-0.8,0-1.2,0c3-12.5,11.5-41,29-54.8l2-1.6c1.2-0.9,2.9,0.1,2.6,1.6l-0.4,2.5
			C199.5,653,196.5,671.4,206.7,692.9z"/>
		<path class="st2" d="M165.9,632.7c1.7,0,3.5,0.2,5.3,0.5c8,1.5,14.4,5.9,17.5,11.5c-8.8-3.2-13.7-4.6-23-4.6c-1.7,0-3.7,0-5.8,0.1
			c0,0,14,0.8,27.8,6.3c-3.6,3.1-8.2,4.6-13.6,4.6c-2,0-4-0.2-6.1-0.6c-8.3-1.5-14.9-6.3-17.9-12.2
			C154,634.8,159.6,632.7,165.9,632.7 M165.9,628.7c-7.2,0-13.9,2.4-18.5,6.6c-1.3,1.2-1.7,3.1-0.9,4.7c3.6,7.3,11.4,12.7,20.7,14.4
			c2.4,0.4,4.7,0.7,6.9,0.7c6.5,0,12-1.9,16.2-5.6c0.7-0.6,1.1-1.4,1.3-2.2c0,0,0,0,0,0c1.1-1.3,1.3-3.1,0.4-4.5
			c-3.8-6.8-11.4-11.8-20.3-13.5C170,628.9,167.9,628.7,165.9,628.7L165.9,628.7z"/>
	</g>
	<g>
		<path class="st2" d="M483.6,670.9c13.5,0,29.7,5,48.3,19.3c0,0,1.8,0.2,4.1,0.2c2.4,0,5.4-0.2,7.7-1.2c0,0,0.6-14.1,22.6-17.4
			c0,0-24.6,21-1.1,36.5c0,0-1.8,0.4-4.3,0.4c-5.4,0-14.4-1.6-16.9-11.8c0,0-0.7-0.4-2.2-0.4s-3.6,0.4-6.4,1.9
			c-3.9,2.1-24.3,20.2-54.7,20.2c-13.3,0-28.5-3.4-45.1-13.2l7.8-3l-7.8-5.4C435.4,697,452.6,670.9,483.6,670.9 M450.9,696.6
			c1.8,0,3.2-1.4,3.2-3.2c0-1.8-1.4-3.2-3.2-3.2c-1.8,0-3.2,1.4-3.2,3.2C447.7,695.2,449.2,696.6,450.9,696.6 M566.2,671.8
			L566.2,671.8 M483.6,666.9C483.6,666.9,483.6,666.9,483.6,666.9c-32.7,0-50.8,26.7-51.5,27.9c-1.2,1.8-0.7,4.3,1.1,5.5l1.5,1.1
			l-0.7,0.3c-1.4,0.5-2.4,1.9-2.6,3.4c-0.1,1.5,0.6,3,2,3.8c15.5,9.1,31.4,13.7,47.1,13.7c27,0,46.7-13.8,54.1-19
			c1-0.7,2.1-1.5,2.5-1.7c1.7-0.9,2.9-1.2,3.8-1.3c3.1,7.7,10.2,12.1,19.9,12.1c2.9,0,4.9-0.4,5.1-0.4c1.6-0.3,2.8-1.6,3.1-3.2
			c0.3-1.6-0.4-3.2-1.7-4.1c-5.3-3.5-8.1-7.4-8.4-11.8c-0.6-9,9.2-17.7,9.8-18.3c0.9-0.7,1.4-1.8,1.4-3.1c0-2.2-1.7-4-3.9-4
			c0,0-0.1,0-0.1,0c-0.1,0-0.1,0-0.2,0c-0.2,0-0.3,0-0.5,0.1c-18.8,2.9-23.9,13.1-25.3,18.3c-1.2,0.2-2.6,0.4-4.2,0.4
			c-1,0-1.9,0-2.6-0.1C516.4,673.5,499.6,666.9,483.6,666.9L483.6,666.9z"/>
		<path class="st2" d="M477,659.7c0.1,2.8,1.1,6,4.8,7.9c-7.1,0.2-13.5,1.7-19.1,3.9c0.9-12.5,10.5-16.3,14.1-17.3
			c0.6-0.2,1.1,0.4,1,1l-0.2,0.7C477.2,657.2,477,658.4,477,659.7z M477.1,650.1c-17.9,4.7-18.6,17.8-18.4,21.6l0,4.2l4.8-3.1
			c5.7-2.2,12.2-2.9,18.3-3.1l15.3,1.5l-13.4-7.1c-4.3-2.3-2.1-8-1.9-8.6l2.1-4.8l0.4-0.9c0.3-0.8-0.4-1.6-1.2-1.3L477.1,650.1z
			 M478.1,657.9L478.1,657.9L478.1,657.9L478.1,657.9z"/>
		<path class="st2" d="M461.5,719.6c3.8,0.9,7.7,1.5,11.5,1.9c-2.3,3.4,3.3,9.9,3.3,9.9C464.3,729,462,722.4,461.5,719.6
			 M456.6,717.8l1,2.5c0.6,3.5,3.5,12.1,18,15.1l9.7,2c0.6,0.1,1-0.6,0.6-1l-6.5-7.5c-1.5-1.7-2.9-4.3-2.9-5.3l3.6-2l-6.7-0.6
			c-3.6-0.3-7.3-0.9-11-1.8l-5.8-3.4V717.8z"/>
		<path class="st2" d="M503.2,718.6c0.9,3.1,3.6,6.3,3.6,6.3c-4.9-1-8.2-2.7-10.5-4.6C498.7,719.8,501,719.2,503.2,718.6
			 M505.9,715.8l-3.5,1.3c-2.3,0.7-4,1.1-6.1,1.5l-7,1.1l4.4,3.7c3.1,2.6,7.2,4.4,12.2,5.4l9,1.8c0.8,0.2,1.4-0.8,0.8-1.4l-6-6.9
			c-0.6-0.7-2.3-2.9-2.8-4.7l-0.3-2.8L505.9,715.8z"/>
	</g>
	<path class="st2" d="M833.5,1010.3h-14.9v-0.3v-28.4v-1.7c5.7-2.2,10.9-6.9,15-13.8c5.5-9.2,8.5-21.4,8.5-34.3
		c0-2.3-0.1-4.6-0.3-6.8l-0.2-2l-0.1-0.7l-0.1-0.9l-0.4-2.9c-1-7.3-3-14.3-5.9-20.1l-0.3-0.5c-0.5-1-1.6-1.7-2.7-1.7h-42.6
		c-1.2,0-2.2,0.7-2.7,1.7l-0.3,0.5c-2.9,5.8-4.9,12.8-5.8,20.1l-0.4,2.9l-0.1,0.7l-0.1,0.9l-0.2,2c-0.2,2.2-0.3,4.5-0.3,6.8
		c0,12.9,3,25,8.5,34.3c4.1,6.8,9.2,11.6,14.9,13.8v1.8v28.4v0.3h-14.7c-3,0-5.9,1.4-7.6,3.9c-3.2,4.8,0.2,10,4.8,10h50.6
		c4.6,0,8-5.2,4.8-10C839.4,1011.7,836.5,1010.3,833.5,1010.3z M807.2,1010v-28.4c1.2,0.2,2.4,0.3,3.6,0.3c1.3,0,2.6-0.1,3.8-0.4
		v28.4H807.2z M792.1,900.1h37.6c1.2,0,2.3,0.7,2.8,1.8c2.1,4.8,3.6,10.2,4.5,16.1c0.1,0.5-0.3,0.9-0.8,0.9h-50.6
		c-0.5,0-0.9-0.4-0.8-0.9c0.9-5.9,2.4-11.4,4.5-16.1C789.8,900.8,790.9,900.1,792.1,900.1z M783.8,931.8c0-1.6,0.1-3.3,0.2-4.9
		c0.1-0.9,0.8-1.6,1.7-1.6h50.6c0.9,0,1.7,0.7,1.7,1.6c0.1,1.6,0.2,3.2,0.2,4.9c0,25.2-12.2,45.6-27.2,45.6
		C795.9,977.4,783.8,957,783.8,931.8z M836.2,1020.1h-50.5c-1.2,0-2.2-1-2.1-2.2c0.1-2.1,1.7-3.7,3.8-3.7h47.1
		c2.1,0,3.8,1.7,3.8,3.7C838.3,1019.2,837.4,1020.1,836.2,1020.1z"/>
	<g>
		<g>
			<path class="st2" d="M773,638.7l63.2,63.2c-16.5,15.8-38.7,25.6-63.2,26.2V638.7 M773,634.7c-0.5,0-1,0.1-1.5,0.3
				c-1.5,0.6-2.5,2.1-2.5,3.7v89.4c0,1.1,0.4,2.1,1.2,2.9c0.7,0.7,1.8,1.1,2.8,1.1c0,0,0.1,0,0.1,0c24.6-0.6,48-10.3,65.9-27.3
				c0.8-0.7,1.2-1.8,1.2-2.8c0-1.1-0.4-2.1-1.2-2.9l-63.2-63.2C775,635.1,774,634.7,773,634.7L773,634.7z"/>
		</g>
		<g>
			<path class="st3" d="M789.9,669.7c0,2.6-2.1,4.7-4.7,4.7c-2.6,0-4.7-2.1-4.7-4.7c0-2.6,2.1-4.7,4.7-4.7
				C787.8,665,789.9,667.1,789.9,669.7z"/>
			<path class="st3" d="M789.9,691.8c0,2.6-2.1,4.7-4.7,4.7c-2.6,0-4.7-2.1-4.7-4.7c0-2.6,2.1-4.7,4.7-4.7
				C787.8,687.1,789.9,689.2,789.9,691.8z"/>
			<path class="st3" d="M805.9,684.2c0,2.6-2.1,4.7-4.7,4.7c-2.6,0-4.7-2.1-4.7-4.7c0-2.6,2.1-4.7,4.7-4.7
				C803.8,679.5,805.9,681.6,805.9,684.2z"/>
			<path class="st3" d="M821.6,697.5c0,2.6-2.1,4.7-4.7,4.7c-2.6,0-4.7-2.1-4.7-4.7c0-2.6,2.1-4.7,4.7-4.7
				C819.5,692.8,821.6,694.9,821.6,697.5z"/>
			<path class="st3" d="M806.4,707.5c0,2.6-2.1,4.7-4.7,4.7c-2.6,0-4.7-2.1-4.7-4.7c0-2.6,2.1-4.7,4.7-4.7
				C804.3,702.9,806.4,705,806.4,707.5z"/>
			<path class="st3" d="M789.9,713.7c0,2.6-2.1,4.7-4.7,4.7c-2.6,0-4.7-2.1-4.7-4.7c0-2.6,2.1-4.7,4.7-4.7
				C787.8,709,789.9,711.1,789.9,713.7z"/>
		</g>
		<g>
			<g>
				<path class="st2" d="M844.1,703.1c1.2,0,2.4,0.5,3.3,1.4l5.2,5.2c1.9,1.9,1.8,5-0.2,6.8c-21.9,19.5-50.2,32-81.4,33.7
					c-0.1,0-0.2,0-0.3,0c-2.5,0-4.6-2.1-4.6-4.7v-7.3c0-2.5,1.9-4.5,4.4-4.6c27-1.6,51.5-12.4,70.5-29.2
					C841.9,703.5,843,703.1,844.1,703.1 M844.1,699.1c-2.1,0-4.2,0.8-5.8,2.2c-18.9,16.7-43,26.8-68,28.2c-4.6,0.3-8.2,4.1-8.2,8.6
					v7.3c0,4.8,3.9,8.7,8.6,8.7c0.2,0,0.3,0,0.5,0c30.9-1.7,60.7-14,83.8-34.7c1.8-1.6,2.8-3.8,2.9-6.2c0.1-2.4-0.9-4.7-2.5-6.4
					l-5.2-5.2C848.6,700,846.5,699.1,844.1,699.1L844.1,699.1z"/>
			</g>
		</g>
	</g>
	<g>
		<path class="st2" d="M490.9,409.4c-3.8,0-6.8,1.1-8.9,3.2c-1.6,1.6-3.4,4.5-3.2,9.7c0.4,9.7,7.7,22.5,14,27.9
			c5.4,4.6,24,19.8,35.9,19.8c3.9,0,6.4-1.6,7.7-2.9c6.9-6.9-0.2-19.6-2.5-23.7c-5.1-9-12.2-17.6-14.3-20
			C513.9,416.8,500.7,409.4,490.9,409.4z M516.5,426c6.8,8,24.4,30.9,17,38.2c-1.2,1.2-2.9,1.8-4.9,1.8c-9.8,0-26.7-13.1-33.3-18.8
			c-8-6.8-16.6-25.6-10.5-31.7c1.4-1.4,3.6-2.1,6.1-2C499.1,413.4,511.3,419.9,516.5,426z"/>
		<path class="st2" d="M494.3,417c0.8,0.8,0.8,2.2,0,3c-0.4,0.4-1,0.6-1.5,0.6c-0.6,0-1.1-0.2-1.5-0.6c-0.8-0.8-0.8-2.2,0-3
			c0.4-0.4,1-0.6,1.5-0.6C493.3,416.4,493.8,416.6,494.3,417z"/>
		<path class="st2" d="M489.4,421.9c0.8,0.8,0.8,2.2,0,3c-0.4,0.4-1,0.6-1.5,0.6c-0.5,0-1.1-0.2-1.5-0.6c-0.8-0.8-0.8-2.2,0-3
			c0.4-0.4,1-0.6,1.5-0.6C488.4,421.3,489,421.5,489.4,421.9z"/>
		<g>
			<g>
				<path class="st2" d="M490.1,409.7c-1.9,0.1-3.7,0.5-5.3,1.3c0,0,0-0.1,0-0.1c0.8-3-5-7-5-7C485.9,403.1,488.9,407.1,490.1,409.7
					z"/>
			</g>
			<path class="st2" d="M479,421c-2.8-1.5-7.2-4.8-5.9-10.5c0,0,4,5.8,7,5c0,0,0.1,0,0.1,0C479.5,417.1,479.1,419,479,421z"/>
		</g>
		<g>
			<g>
				<path class="st2" d="M481,367.1c-10,0-15.9,7-15.9,7s11.2,3.5,15.1,8.8c9,10.3,13.8,23.6,20.9,23.6c2.1,0,4.4-1.1,7-3.8
					c5.5-5.5,3.9-16-3.7-23.6C495.3,369.9,487.4,367.1,481,367.1z M505.3,399.8c-1.7,1.7-3.2,2.6-4.2,2.6c-2.4,0-6-5.5-9.2-10.3
					c-2.5-3.7-5.2-7.9-8.6-11.8c-2.4-3.1-6.5-5.6-10.1-7.3c2.1-1,4.7-1.9,7.8-1.9c6.5,0,13.4,3.6,20.6,10.8
					C507.5,387.7,509.2,395.9,505.3,399.8z"/>
				<path class="st2" d="M479,385.7c2.8,3.3,5.2,6.9,7.3,10.2c-4.4,0.3-12.8-1.2-19.7-14C466.6,381.8,473.6,386.3,479,385.7z"/>
			</g>
			<g>
				<path class="st2" d="M443.4,395.8c0,0-18.6,15.7,5,39.3c4.6,4.6,10.2,7,15.1,7c3.3,0,6.3-1.1,8.5-3.3
					c11.7-11.7-6.5-16.3-19.8-27.9C446.9,407,443.4,395.8,443.4,395.8z M471.7,431.7c0.1,1-0.8,2.6-2.6,4.4c-1.7,1.7-4,2.1-5.6,2.1
					c-4.1,0-8.6-2.2-12.3-5.8c-7.4-7.4-11-14.5-10.8-21.2c0.1-2.8,0.9-5.3,1.9-7.2c1.7,3.6,4.2,7.7,7.3,10.1
					c3.9,3.4,8.1,6.2,11.8,8.6C466.2,425.7,471.5,429.2,471.7,431.7z"/>
				<path class="st2" d="M465.2,417c-3.2-2.1-6.9-4.5-10.2-7.3c0.6-5.4-3.8-12.4-3.8-12.4C464,404.1,465.5,412.6,465.2,417z"/>
			</g>
		</g>
		<path class="st2" d="M545.2,456.5c1.8,0,3.5,0.2,5,0.6c4.5,1.3,5.5,7.3,0.7,7.3c-1.1,0-2.5-0.3-4.3-1.1c0.6,0.3,8.9,4.2,5,8.1
			c-1,1-2.1,1.4-3.2,1.4c-2.1,0-4.2-1.3-5.6-2.3c2.2,2,5.7,6.1,1.4,8.4c-1,0.5-1.9,0.8-2.8,0.8c-1.7,0-3-1-3.9-2.1
			c1,2.2,1.6,5.1-1.2,6.1c-0.3,0.1-0.6,0.2-0.9,0.2c-4.1,0-6.3-10.1-7.7-13.9c0-0.1,0-0.2-0.1-0.2c0.3,0,0.6,0,0.9,0
			c2.9,0,5.4-0.8,7.4-2.8c2.5-2.5,3.2-5.9,2.7-9.8C540.7,456.8,543,456.5,545.2,456.5 M545.2,452.5c-2.1,0-4.4,0.2-6.9,0.6
			c-2.2,0.3-3.7,2.3-3.4,4.5c0.6,4.3-1,5.9-1.5,6.4c-1.1,1.1-2.6,1.7-4.6,1.7c-0.2,0-0.5,0-0.7,0c-0.1,0-0.2,0-0.2,0
			c-1.2,0-2.3,0.5-3.1,1.4c-0.8,1-1.1,2.3-0.8,3.5l0,0.2l0,0.1c0,0.1,0.1,0.3,0.1,0.4c0.2,0.6,0.4,1.4,0.7,2.3
			c1.8,6,4.4,14.3,10.7,14.3c0.8,0,1.5-0.1,2.3-0.4c1.9-0.7,3.3-1.9,4-3.7c0,0,0-0.1,0-0.1c1.4-0.1,2.8-0.5,4.2-1.2
			c3.1-1.7,3.9-4.1,4.1-5.5c0-0.1,0-0.2,0-0.3c1.6-0.3,3-1.1,4.2-2.3c1.8-1.8,2.5-4,2.1-6.2c-0.1-0.5-0.3-1.1-0.5-1.6
			c1-1,1.7-2.2,1.9-3.7c0.6-4-2.3-8.2-6.7-9.5C549.6,452.8,547.6,452.5,545.2,452.5L545.2,452.5z"/>
		<g>
			<path class="st2" d="M544.5,439.7c-3.7,3.2-7.4,4.4-10.3,4.6c-0.5-1-1.1-2-1.7-3c2.5,0.1,6.2-0.6,10-3.9c0.4-0.4,1.1-0.3,1.5,0.1
				l0.6,0.6C545,438.5,544.9,439.2,544.5,439.7z"/>
			<path class="st2" d="M530.1,437.7c-0.6-0.9-1.2-1.7-1.7-2.5c2.3-1.8,5.3-4.6,7.4-7.8c0.3-0.5,1-0.6,1.5-0.4l0.7,0.4
				c0.6,0.3,0.8,1,0.4,1.6C536,432.6,532.6,435.7,530.1,437.7z"/>
			<path class="st2" d="M526.2,432.1c-0.6-0.8-1.3-1.7-1.9-2.5c3-2.3,7.5-6.2,9.2-10.3c0.2-0.5,0.8-0.8,1.4-0.6l0.8,0.2
				c0.6,0.2,1,0.9,0.7,1.5C534.4,425.3,529.5,429.6,526.2,432.1z"/>
			<path class="st2" d="M521.7,426.3c-0.7-0.9-1.4-1.7-2-2.4c3.5-2.6,8.7-7.5,10.5-14.4c0.2-0.6,0.7-1,1.3-0.9l0.8,0.2
				c0.6,0.1,1,0.8,0.9,1.4C531.2,418.1,525.5,423.5,521.7,426.3z"/>
			<path class="st2" d="M507.9,474.6l-0.6-0.5c-0.4-0.4-0.5-1.1-0.1-1.6c2.9-3.4,3.8-6.7,3.9-9.1c1,0.6,1.9,1.1,2.9,1.6
				c-0.4,2.8-1.6,6.1-4.5,9.5C509.2,475,508.4,475.1,507.9,474.6z"/>
			<path class="st2" d="M497.2,468.1l-0.4-0.7c-0.3-0.5-0.1-1.2,0.4-1.5c2.9-1.9,5.5-4.6,7.3-6.8c0.8,0.6,1.7,1.2,2.5,1.7
				c-2,2.4-4.8,5.4-8.2,7.6C498.3,468.8,497.5,468.6,497.2,468.1z"/>
			<path class="st2" d="M488.8,465.8l-0.2-0.8c-0.2-0.5,0.1-1.1,0.6-1.4c3.9-1.6,7.5-5.6,9.9-8.6c0.8,0.6,1.6,1.2,2.4,1.9
				c-2.5,3.3-6.6,7.7-11.2,9.6C489.7,466.8,489,466.4,488.8,465.8z"/>
			<path class="st2" d="M478.8,462.4l-0.2-0.8c-0.1-0.6,0.3-1.2,0.9-1.3c6.5-1.7,11.2-6.5,13.9-9.9c0.7,0.6,1.5,1.3,2.4,2
				c-3,3.8-8.2,9-15.6,10.9C479.5,463.5,478.9,463.1,478.8,462.4z"/>
		</g>
		<g>
			<path class="st2" d="M508.2,438.4C508.2,438.4,508.2,438.4,508.2,438.4c-7.1,7.1-18.5,6.2-18.9,6.2l-1.1-0.3l-0.6-3.9l2,0.2
				c0.1,0,10,0.8,15.8-5c0,0,0,0,0,0c3.4-3.4,4.8-8.4,4.2-14.9l-0.2-2l4-0.4l0.2,2C514.2,428.1,512.4,434.2,508.2,438.4z"/>
		</g>
	</g>
	<path class="st2" d="M842,1208.9v-4.9c0-17-13.9-30.9-30.9-30.9s-30.9,13.9-30.9,30.9v4.9c-1,0.7-1.6,1.9-1.6,3.2l0,0
		c0,1.5,0.8,2.7,2,3.4l25.6,74.2c0.5,1.6,2,2.7,3.7,2.7c0,0,0,0,0.1,0c1.7,0,3.2-1,3.7-2.6l27.8-74.3c1.2-0.7,2.1-2,2.1-3.5l0,0
		C843.6,1210.8,843,1209.6,842,1208.9z M784.2,1204c0-14.9,12-26.9,26.9-26.9h0c14.9,0,26.9,12,26.9,26.9v4.1h-53.8V1204z
		 M810,1288.4l-24.9-72.4h52L810,1288.4z"/>
</g>
</svg>
